<mxfile host="app.diagrams.net" modified="2024-06-09T18:14:56.496Z" agent="Mozilla/5.0 (Windows NT 10.0; Win64; x64) AppleWebKit/537.36 (KHTML, like Gecko) Chrome/125.0.0.0 Safari/537.36" etag="2i9Z_3zkdRJIDDZsZWu-" version="24.5.2" type="device">
  <diagram name="Page-1" id="DEx0tE7_pVKB7i16aWe6">
    <mxGraphModel dx="1434" dy="778" grid="1" gridSize="10" guides="1" tooltips="1" connect="1" arrows="1" fold="1" page="1" pageScale="1" pageWidth="1700" pageHeight="1100" math="0" shadow="0">
      <root>
        <mxCell id="0" />
        <mxCell id="1" parent="0" />
        <mxCell id="ShWJT1CUM9F-AKnDE7Rj-22" style="edgeStyle=orthogonalEdgeStyle;rounded=0;orthogonalLoop=1;jettySize=auto;html=1;entryX=0;entryY=0.5;entryDx=0;entryDy=0;" parent="1" source="ShWJT1CUM9F-AKnDE7Rj-3" target="ShWJT1CUM9F-AKnDE7Rj-4" edge="1">
          <mxGeometry relative="1" as="geometry" />
        </mxCell>
        <mxCell id="ShWJT1CUM9F-AKnDE7Rj-3" value="" style="shape=image;verticalLabelPosition=bottom;labelBackgroundColor=default;verticalAlign=top;aspect=fixed;imageAspect=0;image=data:image/png,iVBORw0KGgoAAAANSUhEUgAAAeYAAAJgCAYAAABfksCXAAAMQWlDQ1BJQ0MgUHJvZmlsZQAASImVVwdYU8kWnluSkEBogQhICb0JIlICSAmhBZBeBBshCRBKiIGgYkcWFVwLKhawoasiih0QO2JnUex9QUVBWRcLduVNCui6r3xvvm/u/PefM/85c+7MvXcA0DjJFYuzUU0AckT5kphgf8a4pGQGqRtgQB/QgCWgc3l5YlZUVDiAZbD9e3l3EyCy9pqDTOuf/f+1aPEFeTwAkCiIU/l5vByIDwKAV/HEknwAiDLefGq+WIZhBToSGCDEC2U4XYGrZDhVgffKbeJi2BC3AKCixuVK0gFQvwJ5RgEvHWqo90HsJOILRQBoMCD2ycnJ5UOcArENtBFDLNNnpv6gk/43zdQhTS43fQgr5iIvKgHCPHE2d/r/mY7/XXKypYM+rGBVy5CExMjmDPN2Oys3TIbVIO4VpUZEQqwN8QchX24PMUrJkIbEK+xRQ14eG+YM0CF24nMDwiA2hDhIlB0RruRT04RBHIjhCkGnCfM5cRDrQbxQkBcYq7TZJMmNUfpC69MkbJaSP8+VyP3KfD2UZsWzlPqvMwQcpT6mXpgRlwgxBWKLAmFCBMTqEDvmZcWGKW3GFGawIwZtJNIYWfwWEMcIRMH+Cn2sIE0SFKO0L83JG5wvtilDyIlQ4v35GXEhivxgLTyuPH44F+yKQMSKH9QR5I0LH5wLXxAQqJg71i0QxccqdT6I8/1jFGNxijg7SmmPmwmyg2W8GcQueQWxyrF4Qj5ckAp9PE2cHxWniBMvzOSGRiniwZeBcMAGAYABpLCmglyQCYRtvQ298E7REwS4QALSgQA4KJnBEYnyHhG8xoJC8CdEApA3NM5f3isABZD/OsQqrg4gTd5bIB+RBZ5CnAPCQDa8l8pHiYa8JYAnkBH+wzsXVh6MNxtWWf+/5wfZ7wwLMuFKRjrokaExaEkMJAYQQ4hBRFvcAPfBvfBwePWD1Rln4h6D8/huT3hKaCc8ItwgdBDuTBYWSX6KcizogPpBylyk/pgL3ApquuL+uDdUh8o4HTcADrgL9MPCfaFnV8iylXHLssL4SftvM/jhaSjtyE5klDyM7Ee2+Xmkup2665CKLNc/5kcRa+pQvtlDPT/7Z/+QfT5sw362xBZiB7Bz2CnsAnYUawAM7ATWiLVix2R4aHU9ka+uQW8x8niyoI7wH/4Gn6wsk3lOtU49Tl8UffmCabJ3NGDniqdLhOkZ+QwW/CIIGBwRz3EEw9nJ2QUA2fdF8fp6Ey3/biD01u/c/D8A8D4xMDBw5DsXegKAfe5w+x/+ztkw4adDFYDzh3lSSYGCw2UXAnxLaMCdpg+MgTmwgfNxBm7AC/iBQBAKIkEcSAKTYPQZcJ1LwFQwE8wDJaAMLAOrwDqwEWwBO8BusB80gKPgFDgLLoEr4Aa4B1dPF3gB+sA78BlBEBJCRWiIPmKCWCL2iDPCRHyQQCQciUGSkBQkHREhUmQmMh8pQ8qRdchmpAbZhxxGTiEXkHbkDtKJ9CCvkU8ohqqhOqgRaoWORJkoCw1D49CJaDo6BS1Ei9El6Bq0Gt2F1qOn0EvoDbQDfYH2YwBTxeiYKeaAMTE2FoklY2mYBJuNlWIVWDVWhzXB53wN68B6sY84EafhDNwBruAQPB7n4VPw2fhifB2+A6/HW/BreCfeh38jUAmGBHuCJ4FDGEdIJ0wllBAqCNsIhwhn4F7qIrwjEol0ojXRHe7FJGImcQZxMXE9cQ/xJLGd+JjYTyKR9En2JG9SJIlLyieVkNaSdpFOkK6SukgfVFRVTFScVYJUklVEKkUqFSo7VY6rXFV5pvKZrEm2JHuSI8l88nTyUvJWchP5MrmL/JmiRbGmeFPiKJmUeZQ1lDrKGcp9yhtVVVUzVQ/VaFWh6lzVNap7Vc+rdqp+VNNWs1Njq01Qk6otUduudlLtjtobKpVqRfWjJlPzqUuoNdTT1IfUD+o0dUd1jjpffY56pXq9+lX1lxpkDUsNlsYkjUKNCo0DGpc1ejXJmlaabE2u5mzNSs3Dmrc0+7VoWqO0IrVytBZr7dS6oNWtTdK20g7U5msXa2/RPq39mIbRzGlsGo82n7aVdobWpUPUsdbh6GTqlOns1mnT6dPV1nXRTdCdplupe0y3g47RregcejZ9KX0//Sb90zCjYaxhgmGLhtUNuzrsvd5wPT89gV6p3h69G3qf9Bn6gfpZ+sv1G/QfGOAGdgbRBlMNNhicMegdrjPcazhveOnw/cPvGqKGdoYxhjMMtxi2GvYbGRsFG4mN1hqdNuo1phv7GWcarzQ+btxjQjPxMRGarDQ5YfKcoctgMbIZaxgtjD5TQ9MQU6npZtM2089m1mbxZkVme8wemFPMmeZp5ivNm837LEwsxlrMtKi1uGtJtmRaZliutjxn+d7K2irRaoFVg1W3tZ41x7rQutb6vg3Vxtdmik21zXVboi3TNst2ve0VO9TO1S7DrtLusj1q72YvtF9v3z6CMMJjhGhE9YhbDmoOLIcCh1qHTke6Y7hjkWOD48uRFiOTRy4feW7kNydXp2ynrU73RmmPCh1VNKpp1GtnO2eec6Xz9dHU0UGj54xuHP3Kxd5F4LLB5bYrzXWs6wLXZtevbu5uErc6tx53C/cU9yr3W0wdZhRzMfO8B8HD32OOx1GPj55unvme+z3/8nLwyvLa6dU9xnqMYMzWMY+9zby53pu9O3wYPik+m3w6fE19ub7Vvo/8zP34ftv8nrFsWZmsXayX/k7+Ev9D/u/ZnuxZ7JMBWEBwQGlAW6B2YHzgusCHQWZB6UG1QX3BrsEzgk+GEELCQpaH3OIYcXicGk5fqHvorNCWMLWw2LB1YY/C7cIl4U1j0bGhY1eMvR9hGSGKaIgEkZzIFZEPoqyjpkQdiSZGR0VXRj+NGRUzM+ZcLC12cuzO2Hdx/nFL4+7F28RL45sTNBImJNQkvE8MSCxP7Bg3ctyscZeSDJKESY3JpOSE5G3J/eMDx68a3zXBdULJhJsTrSdOm3hhksGk7EnHJmtM5k4+kEJISUzZmfKFG8mt5vanclKrUvt4bN5q3gu+H38lv0fgLSgXPEvzTitP6073Tl+R3pPhm1GR0StkC9cJX2WGZG7MfJ8VmbU9ayA7MXtPjkpOSs5hkbYoS9SSa5w7LbddbC8uEXdM8ZyyakqfJEyyLQ/Jm5jXmK8Df+RbpTbSX6SdBT4FlQUfpiZMPTBNa5poWut0u+mLpj8rDCr8bQY+gzejeabpzHkzO2exZm2ejcxOnd08x3xO8ZyuucFzd8yjzMua93uRU1F50dv5ifObio2K5xY//iX4l9oS9RJJya0FXgs2LsQXChe2LRq9aO2ib6X80otlTmUVZV8W8xZf/HXUr2t+HViStqRtqdvSDcuIy0TLbi73Xb6jXKu8sPzxirEr6lcyVpaufLtq8qoLFS4VG1dTVktXd6wJX9O41mLtsrVf1mWsu1HpX7mnyrBqUdX79fz1Vzf4bajbaLSxbOOnTcJNtzcHb66vtqqu2ELcUrDl6daEred+Y/5Ws81gW9m2r9tF2zt2xOxoqXGvqdlpuHNpLVorre3ZNWHXld0BuxvrHOo276HvKdsL9kr3Pt+Xsu/m/rD9zQeYB+oOWh6sOkQ7VFqP1E+v72vIaOhoTGpsPxx6uLnJq+nQEccj24+aHq08pnts6XHK8eLjAycKT/SfFJ/sPZV+6nHz5OZ7p8edvt4S3dJ2JuzM+bNBZ0+fY507cd77/NELnhcOX2RebLjkdqm+1bX10O+uvx9qc2urv+x+ufGKx5Wm9jHtx6/6Xj11LeDa2euc65duRNxovxl/8/atCbc6bvNvd9/JvvPqbsHdz/fm3ifcL32g+aDioeHD6j9s/9jT4dZxrDOgs/VR7KN7j3mPXzzJe/Klq/gp9WnFM5NnNd3O3Ud7gnquPB//vOuF+MXn3pI/tf6semnz8uBffn+19o3r63oleTXwevEb/Tfb37q8be6P6n/4Lufd5/elH/Q/7PjI/HjuU+KnZ5+nfiF9WfPV9mvTt7Bv9wdyBgbEXAlX/iuAwYqmpQHwejsA1CQAaPB8RhmvOP/JC6I4s8oR+E9YcUaUFzcA6uD/e3Qv/Lu5BcDerfD4BfU1JgAQRQUgzgOgo0cP1cGzmvxcKStEeA7YFPg1NScV/JuiOHP+EPfPLZCpuoCf238BAdh8a+1vdBMAAACKZVhJZk1NACoAAAAIAAQBGgAFAAAAAQAAAD4BGwAFAAAAAQAAAEYBKAADAAAAAQACAACHaQAEAAAAAQAAAE4AAAAAAAAAkAAAAAEAAACQAAAAAQADkoYABwAAABIAAAB4oAIABAAAAAEAAAHmoAMABAAAAAEAAAJgAAAAAEFTQ0lJAAAAU2NyZWVuc2hvdDPwGJMAAAAJcEhZcwAAFiUAABYlAUlSJPAAAAHWaVRYdFhNTDpjb20uYWRvYmUueG1wAAAAAAA8eDp4bXBtZXRhIHhtbG5zOng9ImFkb2JlOm5zOm1ldGEvIiB4OnhtcHRrPSJYTVAgQ29yZSA2LjAuMCI+CiAgIDxyZGY6UkRGIHhtbG5zOnJkZj0iaHR0cDovL3d3dy53My5vcmcvMTk5OS8wMi8yMi1yZGYtc3ludGF4LW5zIyI+CiAgICAgIDxyZGY6RGVzY3JpcHRpb24gcmRmOmFib3V0PSIiCiAgICAgICAgICAgIHhtbG5zOmV4aWY9Imh0dHA6Ly9ucy5hZG9iZS5jb20vZXhpZi8xLjAvIj4KICAgICAgICAgPGV4aWY6UGl4ZWxZRGltZW5zaW9uPjYwODwvZXhpZjpQaXhlbFlEaW1lbnNpb24+CiAgICAgICAgIDxleGlmOlBpeGVsWERpbWVuc2lvbj40ODY8L2V4aWY6UGl4ZWxYRGltZW5zaW9uPgogICAgICAgICA8ZXhpZjpVc2VyQ29tbWVudD5TY3JlZW5zaG90PC9leGlmOlVzZXJDb21tZW50PgogICAgICA8L3JkZjpEZXNjcmlwdGlvbj4KICAgPC9yZGY6UkRGPgo8L3g6eG1wbWV0YT4KS4xkjAAAABxpRE9UAAAAAgAAAAAAAAEwAAAAKAAAATAAAAEwAABnnJUmSLMAAEAASURBVHgB7L2HfyPpdSV6kAGCYM5kd7PZaTrHyRrlrJVGM5JtaW39dv12f+/9TW/f2/VbW2vLlleSFSzJVrAVZqZzTmSTzZwjCBKxqt75AFY3iSbZAAiAVeCt+XGQ6qv66txqHNz73Xuuw+CGl2xqF103oOk6ctj9JUeTjwUBQUAQEAQEAUFgKwQcuRBz9mCdBK2TrNOUrh65gxB2NkryWhAQBAQBQUAQyB+Bgog5/9PICEFAEBAEBAFBQBDIBQEh5lxQkn0EAUFAEBAEBIEyISDEXCag5TSCgCAgCAgCgkAuCAgx54KS7CMICAKCgCAgCJQJASHmMgEtpxEEBAFBQBAQBHJBQIg5F5RkH0FAEBAEBAFBoEwICDGXCWg5jSAgCAgCgoAgkAsCQsy5oCT7CAKCgCAgCAgCZUJAiLlMQMtpBAFBQBAQBASBXBAQYs4FJdlHEBAEBAFBQBAoEwJCzGUCWk4jCAgCgoAgIAjkgoAQcy4oyT6CgCAgCAgCgkCZEBBiLhPQchpBQBAQBAQBQSAXBISYc0FJ9hEEBAFBQBAQBMqEgEPTtJf2Yy7TXOQ0goAgIAgIAoLAnkdAiHnP3wICgCAgCAgCgoCVEBBitpI1ZC6CgCAgCAgCex4BIeY9fwsIAIKAICAICAJWQkCI2UrWkLkIAoKAICAI7HkEhJj3/C0gAAgCgoAgIAhYCQEhZitZQ+YiCAgCgoAgsOcREGLe87eAACAICAKCgCBgJQSEmK1kjTznsrgcxtOJUUzMzGBxaRGxeDzPI8judkTAAQ0up5aeuqa7YMBlx8uQOReIQGNtHY7u70ZbUzOCwSC8Hm+BR5JhVkVAiNmqlslhXtMLc7jX34enYyOYnJ7GyupKDqNkFzsj4HAAIb+O9vokfG4HIjEXlvkXjgLxpJ2vTOaeKwLtTS24cOIkejr3o662FgGfP9ehsp9NEBBitomhNpvm4PgofnPtI9x4cA+9A/2YX5jfbDd5r0IQcJCVnXSOe1p1fP6UgeaQE8MLDvRNAQ9HDMwuVciFymVsi8Dh7oP4yic+g4snT6OrpQ01wept95cP7YeAELP9bPZsxr3Dg/jZ73+LP968ivuPHmJudvbZZ/Kk8hAI+A001gHnDjrw7qVqdNR7MTSfxN2RGP5wP4HBCQPRmAMpjW61bBWLwNEjR/GnX/4a3rn4Kg62d6EuVFOx17pXL0yI2caWF2K2sfEKmHp7s453Trrw5tEAzh+pRlOtB6sJHY9Go/jXW8u40ZfC8KSB5RVnAUeXIXZBQIjZLpYqfJ5CzIVjt+sjhZh33QRlmYDXozNcCZw84MBXLlXhIkm5o9nH99zp84/MxPDRw2V8+DiKy481jE/Ta04Bul6W6clJyoyAEHOZAd+F0wkx7wLoxTqlEHOxkLT2cZrqdJztceD1Yz68fTKEnvYAE35c8DD5S20rqynMzCdw7ckKfnAtiruDQCSsI5FIfyz/qzAEhJgrzKCbXI4Q8yag2OUtIWa7WKqweXrcBoJVwJFO4FNnfHj1aBBHu6rSIez1R9TZudVI6ugdj+Lnd5bxUW8ST0Z1LCxCPOf1QFXIcyHmCjHkNpchxLwNOFb/SIjZ6hba2fzqagwc2+ckIXvwidMk5c4qhKpc8Hk2riEb7Khu6GptOYXx2Tiu9a/iJzdjeDgsnvPOLGDN0ULM1rRLMWclxFxMNMt8LCHmMgNeptO5XQZUBnZ3uwNvH/eSmKtw7lAQbQ3bC0mYnvNDJoP9+EYYl3s1CtDoWAob0LjmrAhcNvsjIMRsfxu+7AqEmF+GkIU/F2K2sHF2MLVQUMf+NgfOH3Ljc/SUTxwIor7GTbLeXuHL9JxnFxJ4OLSKy0+i+PVDjWVUQGxVQ0oESHZgFesMFWK2ji1KNRMh5lIhW4bjCjGXAeQynsLJCLWbidYdLQYTvVx440gArzEDe1+TDw4XE71yLE+OxXQskpzvqzKqh1HcfKpjdELDckS85jKas2SnEmIuGbSWObAQs2VMkf9ENhDz40eYn53J/yAywjIIeBmpDlLN63Q38P6lAC71BNFY40GVn4yttDhz3DQmgyVZ3zyzlETfRAyX+1bxi1sJ1jg7waVosnOOB5LdLInAEVNg5IIIjFjSQEWYlBBzEUDcrUO8QMxzovy1W7bYyXkV57oYpa6rVRnYLIs64saXz4RwhGVRcFKGc2OuV86nSnvO4SRuM6z9T9cjuDVoYG7JwWYnuZN8zieTHcuGwJHDa8pfFy6J8lfZUC/viYSYy4t3Uc8mxFxUOHftYCp87WO29dEuA18/68Frh6rQSQGREAVEFGnn4SxvuIa055w0MMoa51tPV/BRXxR/eKBhYnb7teoNB5EXlkNAiNlyJin6hISYiw5p+Q4oxFw+rEtzpkxMORRyYF+bE68fduLr56pxqjMAp9cJ55qAyE7PHWbi16QSIOlfwU+uR/GAZVQrq0AyJZ7zTrHdjfFCzLuBennPKcRcXryLejYh5qLCuQsHM9Jh6v1tBr5IT/lNlkUd7wqgmRrYOwlhZ19IMsXmFlxz7puI4jf3VnClL4neUQOLYSHmbKzs8FqI2Q5W2tkchZh3ht+ujhZi3lX4d3xyn9dAbbWBs93AN14L4Xx3FeqY7OVXyV4l2CYX2YmK680fPYnhd/dVwwsHklQM07QSnEwOWTIEVFb2n3yJ3aVkjblkGO/2gYWYd9sCOzj/emJ+0PsY83OSlb0DOMs+tJEa2KqF4+tHfHjneDUOtvjh8TiYCFYaT1Z5zUsMa98kOf/gegK3B4ClhRTiMWHmsht/BydUHrMQ8w4AtMFQIWYbGGmrKT4j5ltXkSFmycreCisrva+Uvfx+4FC7gc+c9qaTvQ63+9EQ8hSU7JUWFlkrgcolWezJVBz/cp/JYL0pPBrSML+Q8ZpFGcxKd8nWc0kT8xe/Kh7z1hDZ/hMhZhubUIjZnsarDhrYTxGRC4dc+PyZapxgsle11wUvveVC1pbT7R3TBcrEI4fyqvAKW0NSU/sKNbV/eDPB9WYH4lE93fDCnojurVkLMVe+vYWYbWxjIWZ7Gc/pNKjs5UB7k05FL+czZa/OeiqL5EGs2VedLzHrTAbTGda+NxbFj25FKN1JZbApNsGImMojpQmlZ89bXheGgBBzYbjZaZQQs52slTVXIeYsQCz+Mq3sVe3AqQMG3r/4XNkr4HM+azCRSyg6+zLzDWWbRK6UwVTDiw97qQx2O4nhKQfnoUhZiDkbYyu9FmK2kjVKMxch5tLgWpajCjGXBeYdn0SRransdbgDrFcujrLXTif2TBlscBU/ukZlsCED88tOxBNCzDvFtpTjhZhLia41ji3EbA07FDQLIeaCYCv7IDfXjn1+R1rZ612l7NVTHGWvnV6IqQw2MhPH9T4mg/XH8GGfgan50pRr7XS+Mj6DgBBz5d8JQsw2tvFzYr6WzspemJesbGuZM7NmGwwC7c0OZl878c0L1ThNEZFiKnvt9JqXIimMTcdxlclgP7kVwyOVDEY97ZQmnvNOsS3F+MNKK/uL/wEfOy9a2aXA1wrHFGK2ghUKnIMQc4HAlW2YImaDutcG3jmZaeN4kSIiHQ1M9sohe7pc00xST3s1ruEhk8H++dYyrj3RMDztoGyneM7lskE+5xFizgcte+4rxGxPu6VnLcRsbeN5PTpqgjpO7gO+dD6I8wer0EZSrmHDCituI3MJynWqLO0YvWew2YUz3T4ynSxmxQnv0TkJMVe+4YWYbWxjIWZrG69BKXt1G3jtsBdvHqtGN5W9AmxO4SlSc4piX/1qTMcc20QqZbB/Ypb2vSEHlhY1KoPpxT6VHG8HCAgx7wA8mwwVYraJoTabphDzZqjs/ntK2cvnMzLKXqeo7HW4Ckc6/GikDraVN7OMqp/KYL+4R03tPg2PhlOYX2RI3ixxtvIF7JG5CTFXvqGFmG1s4w3E3PcYC3OS/GUFcyplr33NOi70UNnrVJAdo6rS4Wsf65WtvJn10OEwG1xMqAztKH54O4H+CUe60YUhjrMlzCfEbAkzlHQSQswlhbe0B3+BmOfnSntCOfq2CJj1yq2NOl4/BLxx2MfHanQ1+ZjsxaFqBxtsShUsvqzh9tAK/v7mKq4Nsr6ZLSJjzNSWbfcROHzoiGRl774ZSjoDIeaSwlvagwsxlxbffI/udgNe1isf36fjTy4whM1kr6Y6L4J+JnvZiNMMyoMq2c7R2QSuPl3Bh0/i+ID1zdML1kxay9dOdt9fiNnuFnz5/IWYX46RZfcQYraWaYIMYbexXvn1Hge+wSzsUx0BuNxOOErUxrHUV7+0kko3u7j2NIqf3I7h8ZiTXjNY32ztkHypcdnt4wsx77YFSn9+IebSY1yyMwgxlwza/A9Mj7id9cofP+HAm4f8uLA/gA56yyqE7bBJCDv7opMpnfXNOh6OR/HzuxFcH9AxwvrmiNQ3Z0NV1tdCzGWFe1dOJsS8K7AX56RCzMXBcadHUSHsKr+TIWwDXz3vwaWDAbSRlEOB3EK/RlYj5HyJvNTjR+fiuNzP+uZ+1SrSwOScK50MJvXNO71zChufluT8wldE+asw+GwxSojZFmbafJLrifnhk17MiyTn5kCV+N2aoBMHW7241AN8/rQHx9r98Hsd8LhyC/mmidXMeC7Awy71+JWYhtnFBK6rZhe347g/6sTqigMJKobJVn4Ejhw6ij8RYi4/8GU8oxBzGcEu9qmeEfPt63j4hOVSkpVdbIi3PZ7Dkemv3NHkwNtHvHjjkBvnu71oV/2V89hKTawvm8rLzm9oBjSGtR9PxvCze/ScGdIenATCEdUmUh3dRpltLwPDBp8fVsT8eeUxX8TB9i7UhWpsMGuZYj4ICDHng5bF9hVi3l2DeKgXUlVl4PR+4BsX/FA62PUhd1rdK5+ZpYlx3QCrhbJN4p5dTuIx65sv90cpQEI97SknVDg708N53QXI05IiIMRcUngtcXAhZkuYobBJCDEXhtvORxnpkuSaagPdbaxXPuTCfzhbjVfaArZO9noZLjHWN4eZqa0kO390YxW3h4GliPRvfhluxf5ciLnYiFrveELM1rNJzjMSYs4ZqqLuqELYTq4F72/V8cVT7Bp1OMB15QAlN5kFxi1fj7eokyvhwTTWNydZ3zw4E8Mf2b/5cn8StwcdmFvKbS29hFPbU4cWYq58cwsx29jGQsy7Yzyf10BttY6zDGF//UIVzh+g5GbQzYSvvUFQcwxp93G9+cpAFL+8p9abXUgm9XRYe3cssrfOKsRc+fYWYraxjTcQc38vk79EK7sc5mysJSkfMCi36WHSVxDdzf50xygXeyzvhS1OEo6sMqQ9EsU/3qLXPOREeIldqFjzLFvpEXhGzOck+av0aO/OGYSYdwf3opw1m5gXF0QruyjAbnGQdNcoess9bTo+fcKNV1mvfLiVXaNC1u4atcXlFPy2mQz2ZDqGf3nIZDBmafeOaVgMU8pTksEKxjXXgYd6jmSysoWYc4XMdvsJMdvOZM8nLMT8HItyPAsGdDak0HDhoDPTNYrrytUUEfFRdnMvbWYW+VIkhdGpBK48jeEnD1Lon2Jtc5ylVdreiBzsls2FmHcL+fKdV4i5fFgX/UxCzEWHdNMDmslerQ06XusxmIWd6RrV2ZBfvfKmB7fxm1qCyWCrGu6NRfGD+1FcGwKm5oFoTIi5lGYVYi4lutY4thCzNexQ0CyEmAuCLe9BLpcBr8+BVzq1TNco1is31XpQ5ctNcjPvE9pkgL7WhWqcqmA3hqL4cCDBbG3pQlVq8wkxlxrh3T++EPPu26DgGQgxFwxdXgOrGMJubQS9ZQe+eS7TNcrBRC/H3opgb4nZclTD+FyCfZvZhepuAr3jmdrmlIS0t8RsJx8IMe8EPXuMFWK2h502naUQ86awFP3NtkYN7xxn16geH87vC6C9liFsRmtt2jSq6PikKNkZpfjIA3ah+sX9FVx/qrOXswsrUfnlUnSweUAh5lKgaq1jCjFbyx55zUaIOS+48t7ZzUi1z6fjWKeOd8/7cIkh7DaGsKt9QjibgTk2rxLBVvDRALtQDTi43qwkO0097c1GyHuFICDEXAhq9hojxGwve22Y7XpifjSg6pilXGoDQDt8EaQOtsrCvtjtwJdPV+N4RwB+twNulyQ3bQat6t08F07iCrtQff9GAo/GXMzSRrpF5Gb7y3uFIaDqmL/5uS/jY1IuVRiANhglxGwDI201xY3E3IcFqWPeCqq83n+WhV2v4xKFRN7o8VJMJIiuxs2zsLPaKecd4q6Y8UwGM1jHfI8h7e/fXKH3DEwzS3s1JhGGvG7Al+x8mHXMQswvAcnmHwsx29iAQsylMV46C5scfLRdx/sn3XiNQiKtJOVg1eZZ2GliJSmlN5UUlqdDXVHjCcL4YpKJYKv4sD+BD/pVCdXmuJXGepV/1MOHSMyfFY+5ki0txGxj6z4j5jvX8WigD6L8VRxj+rmu3FRn4OJ+ZmGfDuBMZwBuvxMuz+aMW1HEWoQfFpFYJkv78tMofniHwiMTbqTY/EKpgsm2cwTUGrMQ885xtPIRhJitbJ2XzE2I+SUAFfhxY62GcwdUCJta2D1VONDog5PryluVR6WJed25CvKYK2i86kKlsrRvjkbx91xrTmtph3UkKEgi284REGLeOYZWP4IQs9UttM38hJi3AaeAj1QrRw+94v0tGr5wwpEOYR9u8aGhOtPOsYBD7ukhfTNx/OJhlO0hDTxJa2krODaPOuxpoPK8eCHmPAGz4e5CzDY0mjnl9cT8+Kkkf5m4FProYxlUKOTEmX0a3j/jSdcsh/wueLcIYRd6nr0ybp5a2n3TcXzUH8PPGdIennaCnaz5J9tOEDjUw6zsz34JHzsr3aV2gqOVxwoxW9k6L5lbNjEvLjIFVrYCEMhQRW0IONzhxOtU+PrCMT+ONPkArrmWyslTkpZKnCPFtdckH9VfLJl5TDE+rt5fvzarQuYqTKzyzNRfZtaZ6alpqj/VetIMpaveGn7+qPAwDO/m++lHOv9elnz5+eGzNpUlcmITbA+5RC3tm8Or+N/Xo7g76sRKjL2bRRGsgHv0+ZCeg2qNWYj5OSKV90yI2cY2FWIulvEMcq+RDmF/6bSbxOzH4WYfGs0s7BIRV5wkHGaiVISSlpGYjvlVHdPLwGLciVWy8gofIysexBOZrOZUyoFo0olE0kHSdqTJWSGgCNntpJ63x0DAo8PtzlB2kElsrbVJ1AcMBEnQ1X4DNdVAQ9CJlpAb1V4el2NNIi8WmuZxNPXDgj82VHvIXz9exdVBHX2T7N28IuVTJkaFPAoxF4KavcYIMdvLXhtmK8S8AY6CX3jYpCLo13C6S8c3LgYYwq5CiFnYfk9xCER5wnESbYyZyTEmQMWYGBVLAssk47kVHYsrSBPz4qoL0xEfluhVrqZAYnaTmANIJjJr3CkNiCcp2sG/9X2Pzbprr0eDj39KsUxtVb4kWmpjqAukUMWW0dX+FELVCTRWk7CrHajlNbrpPQdI2lVe9edEgI8evqe862cedeZwBf9/ejmJu+MxCo8k8O+9OnW1XWnREcMo0S+egmdqj4FCzPaw005mKcS8E/R2eawQc3EMUBPUcaRNx6vdTnzmWBUO0VsuJjFF4hqmllOYDGuYWGBd75KTf27MhD2YXfamPWPV8CGp0RtOudOhXhWq1nQnNL42y4wUkSmJS52Pm2WCOx1cwaXnrIhabeq5ImuPSyfJKq+aj+4MeQc8KUqL6qhhg47mUArddRr2sa1le6MDjTWuov4wia6FtG+MMKR9M477VARbZWtIFQGQLX8EhJjzx8xuI4SY7WaxdfMVYl4HRgFPFYG56F12sEnFJ4468Vq3F6c7/Azz0r0sYFOqV2rdWK0Th0nGKjwdoYe8QK94nOVCEyTkyQUvppf86b8FeseRVQ+SJN/yborAdZK2jip/kh50Egfq4+iqjxKLBJrrdDQy3F1b5SR5OxhNUI9MgluTIs039K1+RBj836OpGH58TymCGRiZ5XrzanEiEuXFbvfPJsS8+zYo9QyEmEuNcAmPL8S8M3DVWmwV111Pss/yN9ik4gJD2LVcVw4UGMLWGKpOUi96KpzCvWmNGclODM0qIvYiHHVjhSHpuPpbC0enUk6uwTJL2Sg3QT33qN30pj3EwUcPOuDV4PcmEWLouymUQGdDDIdb4+hpcaGHiXANxMZBVi6EmJWlphjSvs2Q9odP4/jdI2CSIW3Z8kdAiDl/zOw2QojZbhZbN18h5nVgFPA0WKVjX5POemUHvnYqiFda/XkRT7aHvBjhejE94yEmx9+f8pCYA/QMg1iiZ5xMqXXhchNwAaBwiMfNMHdVEq11EfS0LuJwW5LYuNDBEHd1gH/0oqtVGRnXotWWK1GbIf1rw1H8+Lbq2+ziDxWGtCVLO41jrv8TYs4VKfvuJ8RsX9tBiHlnxlN9lj/+CvDmQR/OMoTduhbCzpVosj3kx5Mu9I75qBUdwFLUw1C2yqjmmnGalBWJ2WNN1eFgZjc9aa+XSWO+BOqZMNZRl8B+hrl7iNmhFoNk7abwSn4etJkE93CSdc3s23xjCBijjrb0bc7vPhZizg8vO+4txGxHq63NWYi5MOO5mYXt8xo42qHha2e9uLSfTSpU+RDXUbfbzISrBEPWSg96cVnD7KKOp2se8uOpKgxOKQ/Zv+Yd24OIt7tm9ZnpQTfXxHGwKYojrTEc70wxWcyJegqyqP7UPtZFq4S5XLbRBfZtHljFR8zSvjbkxPSiiiao8Hpu43M5RyXvI8RcydbNXJsQs41tLMRcmPGCzETubNBw4QDwpZNBHG/z50QsZhLTfETDk8kUs4sduD3sx+Ccf81D9iIay3jIa/+8CpugxUY986CZLOanF91AD7qzgQTdvoqzB1I43OLO6YeNeVmqbnt6Icm65ih+cD+FXkYakqzNNrPPzf3kcXMEhJg3x6WS3hVitrE1NxDz4BPpLvUSW6oQtfprYWnQpQM63mAW9mtsUtFZt7HPcnYoW6ltqTBshIldsyx5Gp7T8XDMQ2IO4N5YCHPMslYJXJm63Exi1UumssnHprdo/fEelmCpNeiupmWcObCE4+1J9DRzDbrWjXquPaeT59YpkGVfrLkE8GAiRmKO4voI+zYvOvmjxsQge4S8Xo+A0sr+xmdE+Ws9JpX2XIjZxhY1ifmDuzfwiMS8lJbktP4X++aQm1/KpZt/ukmFmzXLrdTCZp/lV7sDaKn3sBzIlS7nUfPaLOs4xjpcJQbSP53EB0+cJOUqjC8EMafKnbiWrAQ/WDWcvixVFlTIps6rNjuMV/XRag3apzK4q1hi1RDGK52LONsJXGSLzI5aL5xMDHNsEdo2k+YmlpK4zkSwjwaT+HDQgZkFVTZWGH7Pw+CVP155zN/4tCLmCzjY3oW6UE363pH/VQ4CQsw2tuV6Yn48RI9ZtLK3tabfq6MhxBB2l4FvngqwZjkAD9dHVUtHkxDTBLn2G8FcS57hWvLogkbv2IkPn9Ti6XSICUsq03p9/XHpf1hse3HP1mfLR0xpzPhDpDq4jP2tMzjRsYI397twtMWTFilRGdyqW9dWCmLLqm/zPNeZR+L46QNKd05R1SyR0QPf/lr39qc9Bw9niPmMEHOl3glCzDa27HpiTnvMS9LEYjtzNtSkcG4fFb5IHm93s89yg5c9lreuy51feb6WfH3Ih/6ZIOYjVVSt8u5S/fF2V1f+z8wfMx53Ej5fHI2hGPbXx3CyPYbXDmisgXajlslhfkp9brYllRgL5UnvTypiZrOLERdmFjVE44X+uNjsLJX3nhBz5dk0+4qEmLMRsdFrIebcjOUk+brp3O5vTuHzLI96dZ+PghleCmas93h5LMUH/Fth6HqOXZEGZ1O4O+zB3ZGq9FryfJjZ1sbzsHVuZ987e6ns7WAgju7GFf74WcbpziQOtTqpJOZ+psG9GRqD9Jp/P5DA5SHgzoiGhbAZfdhsb3lPiLny7wEhZhvbWIg5N+N52ZghVO0kUaTw3mkXzrFmOcjOSr41gYxnR6GkpsEkr5FFrnmOUKVq1IPHo3WYmK9et5asSEOI4xlm656Y2dsBNs+o59rzsdYVfOJwHKe4dNDe5EINJT432xaYpT00n+Racxw/vqtjZHr7srXNjrGX3hNirnxrCzHb2MZCzLkZrzpo4GCbg1rYwJeP+XCU8pIbNtNTJkHMLbIMalLDbwa9uD8RwuRsLVZX/Rt2lxcvQ4Ba3A6Nna2ieP1AhGVpqzi+T0NnI1XDqLud/YMozrrwZWqLXx+J4nvX43jAJhfxBBt4sGGHbC8iIMT8IiaV9o4Qs40tKsScm/GUwtcnjiFdHnW6zceWh1khbNNTnk7gg4fAteEg7s0H2YKxislIHnZBEg8uN6TX7cUGIUp/u5ZlVYdaInjr0BLOkJyVYlgjFcPWb6ocjV0x000ufkpFsOtDBsaYob3K9peyvYiAEPOLmFTaO0LMNraoEPP2xlPZwF42ijrSkcK7Z1y4tI+do0jK1WYy0pqnrLKDpxbYeGJEx+/u1eDeeC2mYwHEtMK6TG0/q733aUNolb2ul3Ce686XujV0N7vTbSV9zNhev40tUhHs6SrXmlO4MuzELFtjFlh9tv6wFfdciLniTPrCBQkxvwCJfd4QYt7eVgE2W2iuc+E8PbWvnnLhZFrhywEPCTu9rXnK/fSU/4We8vXBEJ7O1GB+OYCk7oJW9q5P21+PXT/1qqYYgQQONtNzPqgIOoWjnW52sNroESuZ0xkuJVymItg/3NMxwEYgSqpTyHmj5YWYN+JRia+EmG1sVSHm7Y1XT92FM/ucXOcE3unxopvlUenNXFNWSl6sUb45YuAnt2vwgJ5y5IX65O3PIZ/mjkBdtSqlWsKF/WG8fjiFg5TyXL/mrDPxLsn+1bfGovhft+K4NcqezVEHBVw2eta5n7Ey9xRirky7rr8qIeb1aNjs+XpiFoGR58bLiGg5sK9FecoOri37WLPsQT0FL9Lbmqc8zPD1h4MeXB2qwa2hKnpr/nR9sl3aMz6/Yns8S5dT+RNccw7jnSOL9Jw3rjkrz9igh/xkJo5f9UUZzjbQN+VEOLJ5Nrc9rrr4s8wof30RHxOBkeKDa5EjCjFbxBCFTGMjMfdjSQRG0jC61rpHnWB51LcueKn0FUCInaPMbOAVespzYWZfT+j4TV8Ta5QbMDUvyUaF3IN5jUnHpA2qr6k150WuNy/jjUOZNWe/53l3qqnlJB5MxLnWnMC/PwEm5tysH1dnEs9ZoXCwWyl/CTErLCp1E2K2sWWFmDc3XpVfQ0d9io0qgK+cCOKVVj/YlfCZNOQwOxt9+DTB7F8/xUNaSco1Up6zOZTFfXdtsdjLbG215vxKxwK+cHKWOQAutFOzPETNcrUpNbAlqq5dHVnF924m8WjCzcx4J8lZiFnhI8SsUKjsTYjZxvYVYs42XtqtYsKXRnUvjWvLbtYus3sUmyqoLc6anAjXMB9MJvHzBy7cGqljnXI9VqOB7APJ6zIg0Fq/hLeOTOC1gzFKpXrY/MKT/gHFHhkUzDZwl92n/v7OKq5xrXl+2ckfTxuTxcowRUueQojZkmYp6qSEmIsKZ3kPJsScjTeFLZhx3dOawp+eduD1/X40szwqyDC22uYps/lkRmOdsgu/6a1nM4raTJ2yllXXnH1YeV0SBPy+BBprScr75/DVMxGcamcZFdXYvCprnuQ8tJTAH4e41kyZzlujLkp1ip2UIYSYS3I7WuqgQsyWMkd+kxFi3oiXx2NQq9mg5KaGPz/rw7l2hrBV5yjulqC3PMQOUR88deHqcA3ujNZjPly17gBmmDTjda/7IMenMj4DVO74qTacLtpnX8siPnt8jD+kWEbVxDKqqrUfUiyfGlhI4OpoHL98RKnUGU9aDWyvl0+prOz3PyVrzDn+w7TlbkLMtjRbZtIbiHlYkr9qgjoOMxP71X0OfK7Hj0MNPvZX5polm1Isreq4M86yqAf1uDvewDVMH0Oj6zywtX7IBRfNyvjMTZkPa9I2CragP4q22gV2pJrH+2c1nGhbW3pgOFs1FLk5zrrm23EKv7i5/uxi5rz5I8jG/3h3MPWe7iMk5i9IVvYOMLT6UCFmq1tom/k9I+Z7N9E7/IRZ2Qvb7F35H7Ux4evjh3S8vs+D060+tAQzxDsb0dBL/evLwz6W4bRhhPrXSofZ2JBMZH7Z5+7xbURUxmfwyB8/J1JcW47hROccvvPaPF5lbkBonab2g+kYfvCAa80jDkxSDSwW39trzSqU/f4nhZg3/vurrFdCzDa2pxDzc+M5qc18iGvL3z5DQRGuLdczHFrFEhy19VLZ65/vu6goVY/B+QaEVwNrjrFJps+PI8/Kj4ADOguhdOxrWsLnj02z7jyOI60uNK1pag+HmUU/HMXlkRTXmt1cglgX6Sj/dHf9jELMu26Ckk9AiLnkEJfuBL0jg/jpH3+LD+7eQt+g8pjnS3cyCx/Z4zZQ5ddfWFtOsvg1wtKbW6MpfP9GLe6MNWI1zsYUKdHAtqI566tXKZu6QI95ER8/kmJfZzc9aQeW2HnKXGv+l8dgxMPNiIez4FUHK157PnMSYs4HLXvuK8RsT7ulZ907OoifXP4dPrx7E339vVha2JvEHKqigtQma8vzbOPYzyzsK0Ne/OvjFgzN1LGLkYv6y6IkZcXbXnWjqqmKUUZ1Du+dn8fZDraJVAXo3J6vNScoDONaW2vem3YUYrbi3VvcOQkxFxfPsh6td2wIP7n6O3xEYu7tIzHPz5X1/FY5WfbacnNVpivRICU3f/fESQWpWiZ8NWJhudoqU5Z5bIKAg8sRTqeO7tYFfOXMJOvQkzhQ60K9L0PAstacAU2IeZObp8LeEmK2sUGFmIHN1pb9LqYTMaP3zngKf3urDjeGG5mFHWAzBAlhW/t2N9JZ2g21UXrNS3i9exHvcL25uy6zpixrzRnrCTFb+y4uxuyEmIuB4i4dY68T81Zry1HWLM+v6MzCBr53owO9E43p8PXGLOxdMpqc9qUIBPwptNQlcHH/LL5+Yh4nWp3wMqS9lMisNV8ZieMXj4DRWbaF3JBZ/9JDV8QOQswVYcZtL0KIeVt4rP3hemLue9KHxT0Wyg4FubbczLrlLmyoW56KMHt3XMNHQwH84Uk7JufrJAvb2rfyhtm5GM72enUcb5/Dn52bwCXat7bKCSfFSNRa87VRtoW8kcDDCU8mZ2CPkbMi5m+wXOrt0+dxsL0LdSH2N5WtohAQYraxOTcQc38f15j3SvJXpla2pS6Ft3uoic265bOsW25dW1vum6UW9mMXk77qMDDdhOWV9QpfNjb4Hpu6Kp/6yokJvNkdQ0+zEw0kZ7XdncxoaF8fo4b2iodLFHurrrn7wCEh5gr/tyDEbGMD72ViVkKbB1qS+LrSxO7yo4Oa2CqDV60t3xpL4W9u1OHmSDMiUT+Sqb1d92rXW7yhJo7TnUusa17Ax3ui6K7P2PGZhvaojttUA1tc3lu5A0LMdr2jc5+3EHPuWFluz71KzCrU6femcLJdwzfPsd8yNbEVKesasEjpzStcW/7ujXauLTel612lj6/lbt2cJuT3mWvNM3jv1BxOtq7VNVNDu58a2mqt+Ze9DozNefdUv2Yh5pxuH1vvJMRsY/PtVWIO8Au7oy6Ji10GvnKsCseafGkhigX28H08oeOj4QD+ta8do3O1tK6oe9n1Fney/6PXo+Fk1zT+46uTXGt2ZuqauZIRITlf5Vrz395mv+Yp1dzCvWcSwYSY7XpH5z5vIebcsbLcnnuVmBtCSVzoSnJt2c2/APbVZEKZQ/NJ/J4e1EdcW7492YyFiNQtW+6mLWBCB1pn8f75Ebx5QEdnyI0aL1W/qOp2ZyKKv7sTww2Gs5eiLi5Z7I21ZiHmAm4imw0RYraZwdZPd68Sc1dzEl87aeCNLm+alOvW+i0/mEjgh7c9FBRpwkS4HtFEYD1c8tymCLTUL+HNnlGuNa/iYqcb7cwnUNvAfBy/GojhyqiBvmk3llf3Ri6BELNNb+Q8pi3EnAdYVtt1AzGvK5dymC0Ic5ywkdWqz6rjVf9eD797j3ek8K1zTlzq8KVDm0pPOUUP6uZYEt+9UkNBkRasJoJMBNtbSUE5mtt2u4WCq2xQMkclsHl88WgKR5oydp1cSeH2VDzd3OIPAy5ML2Q8Zqvev1sBn++/PyHmrZCsnPeFmG1sy/XE/EySk6Rc0BeTSc4WHu9jm97mGgcudGp494QTJ5sza8uKlCMUFbkyouGvP+rAw9FWrjm6WLucKa/JycTmUnT+XQszh5fxGRxKgJ/Xq7FWN46L+6bwFxdmcbY9Q8xhNigZZ836R0wC+8EdA8P0mpV0WKXe/+Z9LMRsIlG5j0LMNrbtemLue9JLgZH5vL+UzMs3f7Xn+6VWzvE11QZeaQXLowx8stuNg/Vkam7huI4xfkF/OOzCD28ewOBUszkteawABFxMAvN4HDjVNYn/8upIOgnMQ7GRFH8ErPAH2bXxGP7hlhIccbNzmOo8Zf5Kyv3i7XD/m1eTVv76xOdFYMQEpAIfhZhtbNT1xPxk4MkaMRd2Qesc5oIOUI7xLXUaPn4whde5zniS4cxm9lxW22REw/VJjRKcQXw4sI8hzfqCrkEGWRMBVbOuljGOtM/iO+eHmPBnoMavZDqBJOvWH88l8LO+VdwcdzK3wItoPP+15nLcv9uhm8/5lcf8/seFmLfD0+6fCTHb2ILPifkWnjxlP+YKbfuo/J9016GmBN59BXi1w4s2qnxVMztXbf3sIvXrAQ9D2Q3oZTb2UiSYfl/+V1kIHGiex/snhvHG/jg6apyoCWTsPxJO4oOxKK6M68zU9mIxkomkVNbVP7+aDDF/Dm+fEknO56hU1jMhZhvbc68Qc1pQxJ2kwEQS3zrtxfk2P3xuBzxM+lLbg2kNP3jUiGsjLZhaDGA1mr/HZOPbYM9MvZ3Z2Z/qGcMb+yJsbMF8g1AmYjLLmubeJQqOjCfx6z43tdGFmPfMTVGhFyrEbGPD7hViVipfrdXsNtSh4+vHAjjOpC+1qfCfyjW6NaHhu7e7cGO0DSurTtaz5r/GmD6g/M/SCDSEIhSVmWKOwQJe35/CvrV2kCtcbJ6Ja7g2GccP7zvwdJqCI5pjTQ3M0pdU0OTEYy4INlsNEmK2lbk2TnavEHN9dRLnOhIMYTvxZocfXWuCIkzGThPzFWom/7cr+3GP2dgpynJKe8eN90mlvKoJRnGkJYzX9s3is4ciONSQ8Zg1/kKj04zb03F8/6GGe5NerES5/lyhP9CEmCvljt76OoSYt8bG8p9UPDGvZcR0NCbxhaPsItXhQQ9Jud6f+UJme17WKxssl3Hgf1w7QG1syca2/E27gwkGfEm01K7iEsumvnFc9WneuGShksB+OpDA9XEXxljTvBrLo1xuB/Mq91Ah5nIjXv7zCTGXH/OinXEvELPD0HG4NYE/P+fCaxQUqfE40+vLCsTlqI7JMKiN7cc/PujC0GxD0bCVA1kPAZdTY/OSGM6zbOovL01TBWyjgMzochJXJtVas85lDTcWKrTrlBCz9e7NYs9IiLnYiJbxeJVOzGbS15m2JL5zzp/uIpXO0F5bQp5jmdSTGWpjj4TwyycdGF+oKyP6cqryI6DB6VBNLSbwf70xjte6XHBRUIQlzeltgfHsp8zQvkJp1l/0eTDBJDBdrXdU2CbEXGEG3eRyhJg3AcUub1U6Mae7SLEn78V2A189EsBRdpFS38H8Lk5vU2ENdycclGSswe+GOjG1JMRsl3u3sHkatL+Oo52T+M+vD1Er3YEgM/O9a9n5CdY0rySpAMcksO8yCax/ygeNiWGVRs5CzIXdPXYaJcRsJ2tlzbXSibk2mMSZtjhD2E681RXA/tqNocuxJQqLjLroMTewkUEb5pZrshCSl5WIQE/bBL518SmJ2UAja9mrWDq3frs5FcNf39fSNc2rTAJLVVgSmBDzemtX5nMhZhvbtdKJubUugU8qpa8ON15p9FLpa2Oyz8iihg+GArg82oRb441s8yjCIja+nXOe+v6WSXz9dD/LpjR0BdkG0rcxyevxbBw/6Y9RqtOJ8UVPQUpgOU9mF3YUYt4F0Mt8SiHmMgNezNNVKjGnw9UshNpPpa/3jht4rXOj0peJ4dMFDf/2NERvuQUPJmsRXpE2jyY2lfzY0TiNL72iiDmBQ/VuNAQyWfrmNQ8vUQlsdE0JbNKHpZWNkRZzP7s+CjHb1XK5z1uIOXesLLdnpRKz02HAhRSOtyXwnbNutncMbFD6Mg3RN68x6asWV6n4NTBbg8iq3/xIHisYgdb6OXzykFpjXsGJZidaqjcS88xqCo9YOnV5PMUfbh6qwQkxV/DtUJGXJsRsY7MqYv7p1d/jo3u30Pe0D0vsLqW2fDtEmZ11TCh2e7zXrSHEmtUL7ey7fMrPdebNCffRjIYf9zaSmFuZkR1k3WplSzGa9tnrj821i/hY9wg95jBbQAJtSprTXGZmEnaE7SAnSc5XxhL40SMHy+i8qg3GlrBZ7f5/2b+/A/tVEwullX0OB9u72BJTciu2NK5NPxBitqnh1LT7xobxs+t/SBNzb79q+ziXvpqX/cPOvmSrfTGFqlI43JTEq8zG/ky3Hz1r7R2z531vSsP3H7QxAawds2Ef4gnlOZnf0Nl7v+y1WVYj41+G1Oaflw8/Rcxv7RslMS/iXCfQXuuCYy0z22B5lOo4FWc29rXxKP7mdgoPp7zQDPeW5Gy1+/9l/36FmDe/AyvpXSFmG1uzb3wY/3z9j/jo7i087n9cMcTcVJvCW9RCfp3Z2Geaub5cvTHpyzTZHbZ6/N69Tlwfa2dHIQ8SCeUVkVjNeipzx5c9phXG1hGLjH8ZYhs/LzN+jaFF1jCPMJS9SO1sA53UzF5PzGmdVs7wzmSM90cMN9ineTnuIWFvfh8JMW80p7zafQSEmHffBgXPYCMxK495Nn2sl/3izj6h1b6Yuho11i3reKPdjU56Q7XsvbvZ9pyYO9YRM/csiFjXnUHGrwMjh6dr0qnP9iwxfg0k5rMdw2mP+a39wL5aEq4Z6DB/X3EyAwsJ/HowhqusdX8y60Ekuvlas9Xu/5f9+xWP+dmdVrFPhJhtbNpnxMw15scMZS+thbLteknq+9zp0HGIYexvn3QwlO1Nk7LPY37rbryy26qr1J0u3KTHvMwv3URyYxLQxr3lVaUgUFcdxun2UXrN83jngI4Da12msq9vMpLCnRmVBKbjg2E35sKbE3P2OKu/VlnZ770ja8xWt9NO5ifEvBP0dnnsemJOrzEvZJK/dnlaBZ9eaSH7XEmcYt/lP2ff5QtM+nJTb9G1ucOMG+Ma/seNfbg93oFY3M3OUkLMBYNvo4F11RES8wyJeZbEHCUxb273pZgOJULz0UQKP3nixNh8hRDz/h4hZhvdr4VMVYi5ENQsMuY5Md+GIualxUzyl0Wml/c0vO4UGgNxZmNreP94gKUwmb7LWx3o5oSOv7rRlSHmhOrBu/kX9Fbj5X17IlBXvYLTbfN4tXOG2dkRKsJt/stNJYCFYwZD2Ql874GB/lk3ezSv5SHY89LTs1ah7PdUVvZJlZXdibpqycq2sTk3nboQ86aw2OPNSiPm6kAKx5qUNjbw8f1+dGdJcGZb5e6Ugb+900nVrzYsr3rZf3fz5J7scfLa3giYxHypcxZvH4hwjXnzpQ7VvyLJ1qC3mAT2d/cSuD/lRlzzkJzt/QPuAEPZ73/yC3jrBIm5rQN1wZC9DSqzfwEBIeYXILHPG5VGzI01zMammtOlDhdOMRu7JUuCM9sy96YN/MO9Dq4xt1Hdycs1ZiHmbIwq8XU9Q9lnVSi7cw6v7Y+iawuP2bz2hzMx1jPHcHPCibmoDwmb/4DrPnAY733qC2mPubulXYjZNHQFPQox29iYlUbMHfVJfPWwjteYjd1e46bIyOYhStNkQswmEnvrsTG0xDD2GIl5kb2ZU7xXtveAhxYT+N1IDNcngMezPmZn2/sHnBBz5d/vQsw2tnElEbNq59fDbOz/eMKJV9s8CJKUvVtkY5smuzcF/MN9eszjreIxm6DsgcemGgqMdA2TmJdwusNAq1L+2mabWlHZ2XFcYbLglTEv5pftnQQmxLyNsSvkIyFmGxuyUohZkbKT2tgnmlP4T2e8uNjmYza2Kp3a3jj3Zhz43v12hihJzKsMUSbt/YW7/dXKpyYCzTXzeHv/IAVolnG6BdTK3j6yshDX8CScYJ/mFH494KZ2tr2lW4WYzTuhch+FmG1s2w3EPMCs7AV7ZmW7nDoCzMg+25LCX5zy4VzL9tnYpsnuzTrwj49bWDbVgrlIFYnZ3l+45nXJ4/YItNSyicWBQfbpXsbxRgdagtsTcySpYyqeJDEn8cNeF0bm1u6TbGGU7U9rmU+FmC1jipJNRIi5ZNCW/sDPiPk+y6VIzOFFe9Yx+zwGmoM6zrdoePewGycacvN8H/Fyf/ykAdfHmzGxVMO+u5s3uyi9JeQM5USgvW4OXzhIj7kzgp46oKFqe2JOMj07Tv3sK9MJ/PVDoH+GpXU6Z7xOJayc89/pudLlUir5i1nZkvy1UzStOV6I2Zp2yWlWLxDz0kJO46y2U7Vfw6EGDZdaDXyqy4MeJn7lsj3h5f5ysIbNCprwdL4eK9GqXIbJPjZHoLN+Fu8eeUpiXkVXjQM1vpeseaxd7w2qgP31IwP3plk2lQDJObdxVoPrgBIYYbmUELPVLFO8+QgxFw/Lsh+pUoi5vjqBix0JvNbmwoVGHzpeUiZlAv10CfjdcDWuTDTi0XQjwqtB8yN5rGAEDjRN40+O9zOUHWNJnRNBz/YeswnFg/kkfjRg4MYUy6ZWHIgnhZhNbOTRWggIMVvLHnnNplKIubUujs8cSuK1Fg8OBb1o9G2fZWuCNLYMXJvwkZjr6TW3MdtWKSAVGp80v6RlvIlvfo/lw6+nZRLfOdOP19uTCHmd8GVlCW7VQ2NgKYXfjOi4RmIeWGTf5lhuhJ4fDqXfWzzm0mO822cQYt5tC+zg/JVCzPuo9vX+CQ2vt3rR7HIjuJU4dhZWsysGeuecJOZa/HroACaX6snLBRKr+W0u47NQzvFlWfBTtjVwtHUS/+cFEnOHBg9JOU2vptn5+8CcSvbMxyIaSZkSnZPAjWlgcVWIORsjeW0NBISYrWGHgmZhd2J2Ogw4nQaOtCTw7dMOXKLaVxW/Zr3PevhtD0s4bmA0bLB7UJBJYIcwOt/MAeY39PZjX/y0fB7fi+dW78j5M7hsbT/VeczpTOFkG4n5nMrKVhlca7/FzGHbEPPsqo7eBR1XpnT8dtSBmeXcIjOZeVnn/+IxW8cWpZqJEHOpkC3Dce1OzG6XjiqfzlrUFP7smAtnmrxgy/uMB5QDfissg5nml+2VcT++/+gohmZZ1CpbxSLgZuexKl8c50jM3zk9xrK6DBtnBzm28piXEzom1P3CeuZ/6ndgbDG37H+rASrEbDWLFH8+QszFx7RsR7Q7Mfs8OpqrdVxo0fFujwvHcyyTMgGOsQRGfdlem3RTaOQQeqfboOsuNikwvU9zT3msBAT83jhaQsvsPjaN947O4ESj6SbndnXm/XJ1KoG/fWjg6ZyH8RWGs7di8twOW/a9hJjLDnnZTyjEXHbIi3dCuxNztZ8ynKxDvURi/vR+J3pqcyuTMhEkL0PVqN5mMs/3HnbhzmQbogm/dJkyAaqwx1DVKg43zuJVNrD49IEwDvHeyWcz75frk3H8z7sJPGQ9s+5ww3DYK6QtxJyP1e25rxCzPe2WnrXdibmuiqIizQ68yvrlV9uc6HiJtOJWpnrABLAf9raySUErZiNBlsHkphy21fHkfWsi0FC9xJag42xyMo9LbXF0FNjt8PZ0HN+9n8DtaRdiOsVGbNYGUojZmvdnMWclxFxMNMt8rPXE3Pe0D0s2U/5qDlFQpMPBMikHjjY40BgoLAT9ZMmJfx1sZki7mUIjNViJCTGX+VYsy+laqZH9GSXF2R7m/aIXfL88XEjinwZSuDntxMyqy3b1zN3sx/z1T3xeBEbKctftzkmEmHcH96KcNZuYwzZT/mqr0fDVA8BrrU50hpyoYU1qIdvosgMfTYZwlUIjtyabsLgiQiOF4GjdMTpTAnUcaJjBe0cGGcqOopUmri7wfukPp/Cr0SSus2RqcNGF1bj9QtlCzNa9W4sxMyHmYqC4S8ewOzF3sf/y+4cMErMbzX4Xgu7CiHl21cDjeRezbWvxm6H9mA6znlm2ikHAwc5jLmccx1tm8J2TI+w+loTf7YA7S1gk1wsejiTxwVQcV6d1PJj1YnnVXtnZKpQtxJyrte25nxCzPe2WnrV9iTmTTdvdyP7Lx0jMLV6EKKvocxZGzBFmZk+tgB5zAD/s68YQ65nT2bY5F17Z+CbYA1N3u+II+SM43zaNbx+fxpnm/LKxsyGaXE3h1hz7M7Oe+eqkBwsrQszZGMnr3UVAiHl38d/R2e1MzIqDDzel8H8cZ/IXpTjdLFlxFVi2kmJmdixl4Dq/ZP/m/j48nG5mgwIfyTm/LO8dGUMGlwyBoH8FB+vnmCA4i892h3E4z2zs7InNRzX0LbKemR7zb8bsJzQiHnO2RSvvtRCzjW1qV2JWal8et4HjTRr+8hUnLlLxqxjbnRkH/u5hC25OtiASD7FsSpLAioHrbh+jMbRE+c1xvN42z57dCbRX72xGYUZYxpYzCmA/HQZbhsoa884QldHFRkCIudiIlvF4G4h58AnCS/box6wUv4JenSFJDd8+4saZxuIQ8xM2JvgV20BenWrG4EIzmxRIElgZb8eSnaqL/Zff7WH/5bYwOmo1hHJs87jVhFZSOmZiGkPZKfxgwIHRBbuFsg/hvU98Dm8dl37MW9nY7u8LMdvYgs+I+cFtPEkTsz36MXvdOpqqUqxhNvDuQTdeqSvOF+Mk15lvT/twebKejS26MBfZYczTxvdGJUzdQW1sF7WxDzfM4s+PPmW/7iiCfhVtKayszsQkoesIU8716kwSf9frwOC8ef/t7Ljm8Uv9uH8f+zELMZca5l09vhDzrsK/s5PblZiVPnZPjc4QNvCpThefFyeUuBxnWDLsxOWpGtapHsTYUuPOAJbRu4qA25VAwBvF6eYZfPvYGLXUk3DzVikwGfvZtWgU12ZKQpqY/+qRjv4595qMqxDzM5Dkya4iIMS8q/Dv7OR2JeaagI5TDVT7ourX66xh7gpmZWPnmwS21sUgoYE1qaBwRADfH9iPR3PNSCSp7ET97O02I6sLgiPP88v4jVnSxcIv4F1FV80sy6Nm8aXuRRyt33ieZzbNsl+u2tfXZxL4/3p1PJx1IqWxUtrIug+fncBaT8RjtpY9SjEbIeZSoFqmY9qVmJUU5yWGsZXi19lGJ9qr+IVoNp5gK8hcv1ifway+mDmeydn0hAxm3HrwyxEmgXGteSxcjWjc/2zXzZ6kidXItBCEw8nT5+c5yXiFf/Hxa6yex9udQ6xzX8QpJgq2Brewy5r907bN4/65M5/A3/WlcJeSrqsJF8lZiHmzfx/yXvkREGIuP+ZFO6NdibkxqOOdduUxO/FKvZPiIvzCLQIxp4HlF/P4ipOqTlQCm2ykTGcL61S3T+MVYi0NseZ6o2fjr7L21drygfpZfO0Q15ZbVtFCUq72FJeYHy1SmnMwiZvM5p9ddSOREmLO1WayX2kREGIuLb4lPbpdibmFrR4/20kpzhYnDtY6UO/N+sLN02NFVigznHBgnCUwV6Zq8eOnB7jW3LCtHdLEsG6PgjxmGf8MgZ3i53En02vLJ5tm8M0joyyRSsHH1QjPVovLWfbPNeIyQGnO3471ksmWAAAnXElEQVRpuD4DDDA3YTUuxPzMiPJkVxEQYt5V+Hd2crsSczs1st9lm0dFzG1pT2hnOGSPTqTUWrODnpAf/zjQRbnOZsTYcUrTtl9rzj6OvN4dBAI+ri2H5nCxdQZfOsi15bq1MHmRpzO6ojNRUGVnG7g370A4KsRcZIjlcAUiIMRcIHBWGGZXYj5Qr+E7h9lVqtmNKoYnC+xFsKUJ0mvNTATrp9f8q7FaEnQThpea2XWqassx8oF1EEivLXc8fb62XGDXsZdd0cSqjtvzrGeeNnCN4ezFVSHml2Emn5cHASHm8uBckrPYk5gNHGrU8V+P0mMmMbv4XbhVhHKnoE1FHbgz62GosgEfTexnr+Y6sIRVNosi4HLq8DKM3VM/jS8eeIrzTVxbrtpmbXmH1zET1fGI0pxXZ3X8ftLBunebEDObWLz3cREY2aH5LT1ciNnS5tl+chuIeajfFspfTiZnHWnQ8F+POZn85WE7v/yTsLdH5fmnUYa052MO3JgN4YdPD2OAIe0UC1iFnJ9jZKVnAW8cHTVhnGXd8me6pnCkNsG1ZQfXlkszy/m4gcEwpTlndPxqHJi2CzErgREh5tLcFBY5qhCzRQxRyDSeE/MdPBl6guWwtZW/nGklJ2pkN6Twn4+5cbHRVFwq5OpfPkaFtDV6yA8XvfjxUCduzTTTKwoinijteV8+M9ljPQIq1081NWmqXua68iSFZ+ZwrinCMrrShjeWE8zgjxi4TGL+2ZiByWV75CCoOuavv6M85rPobmlHXTC0Hk55XgEICDHb2Ih2I2YVqqzypHCaoexvHfLgbENpCTJd3kr7Tq4ypD3nZf/delxmSHtepDotdde7yId+H5c42EHqK/sHcK5xGY0BDVUlbg4WTTKiwl7eVxjK/v6wwZr3ErnmRUZbiLnIgFrwcELMFjRKrlOyGzF72Lyizp+iN2Tg/W4PTtSV+Jt3DchI0sA0v4BvzVbhl8PdGFhsQSzhpTdtjy/iXO8He+5nIOBLoK1mFedbpvGlrgkcZQi7lLkHJk4qe3+FSnGXZzT8r0GDCYL2uB+EmE0LVu6jELONbWs3YvZ5dLRWaUzqMfCVfW4cqy0PMbNfAeKawVpVD/4w3kKCbsHTxTpmaW+vCGbjW8MWU3colS7oaA4t4PX2EarBLeBUYxKtAaOkuQcmOGwyRVERRcwp/NUTA0OLEso2sZHH3UVAiHl38d/R2e1GzH4ScwfFRS40GvhClxtHitS8IlcQZ2MuPFyoYpZ2PT4Yb8XUck1aR5s6U7keQvYrIgIeVxLV/lUcqZvGp7pGcLohms7CDu6we1SuU1Q/C1QOwhUS8/9DzeynC+X5oZjr/LbaTzzmrZCpnPeFmG1sS/sTc3m/COOsbQ4nnbg9G8BPB1rxaL4J0WQ1Unpx+kHb+FbalanXVkVwummSEZRZtgANs5mJUvhywF2q+rmsqzTA/ygFe4XtH/9bLyMq8/b4gSbEnGXICnwpxGxjowoxF2a8Aa4l/nq4BjeYpT280opIPEjPyZGt7FnYwWXUSxHI1CsncKB2Hp/sHMe55iXsq06hzqt82PJvl0nM//djIebyIy9n3AoBIeatkLHB+0LMhRkpzIQfpaV9a74Wv57sxlC4kSVUmdZ/hR1RRuWDQMAbY73yEvsrz+CTHbM4XBtnBrZRdAW4XOekiFl5zP1z4jHnipnsV1oEhJhLi29Jj243Yg54dewLZdaYP9vhxuGa8oayTWNoDGmnmKndF/bhN5PtuMW+zWPLIepr+9i9UAU4s5pqmAO3eiywicKzw+2R8aan3Mp65TMUETnXuICzTStoY3/u3dyEmHcTfTn3ZggIMW+Gik3eW0/M/cPWV/4K+nUmfBkUFjHwTpsb3aH1HooZxsyTFJ/ZKvfxigeV+tcCG10Mhb24OVuH304ewPhyPZXB2Nc5X55IE+u68xfUHavyx5ue8snGObzVOsukr1g6fO13qWtfd/3PbJrPk8LHSyg7H5xl33IgIMRcDpRLdI4XiNniyl9BnyJm/TkxV5vEbH6pmkDlS86FjU/Qc45S/enxop8h7Q52GGpmX94ga5zZiYrkrBKDctt4ftPrTZNyruPMo1f2eJdTowZ2AmlPmeHrFz3lwuxnovec1M138sP/8ixD2Y919KeTvzg23x9W5mnL9Lh/38GM8tcrovxVJsjLfhoh5rJDXrwT2o2Y06Hsag0XGgykQ9nPiLl4mORzpHQXqrTn7MTQshd35uvwwcw+jC43IJ50s01krl/wu0ssOyWmUo8PeKNoDy3iZMMs3mqhp1wbQy2XNQJpTzkfi5Vm3ytzKfy/vRr6SMwGKDIixFwaoOWoOSMgxJwzVNbb0W7EnK5jDpKYG4EvdLhwJLQ7a8zZlkxQfETJMz5Z9uOP0224yzKq8UgVVaH89Jzd/LI2PfvskfJ6OwSUp+z30FMOLlE4ZIYSrPP82/01ZXPO6ueU+rtKj/m/9+l4suCk3IlS/8r1B5l5pPI+isdcXrx342xCzLuBepHOKcRcHCB1hqGVClSYmdmTK17cWwji38eb8JSecywV4me+4pxojx0l6IuimyVRpxrm+GNsFodqTE/ZGkCoVAKd1Hxllh5zH8ulFswfYELM1rDQ3p2FELONbS/EXFzjqXXllJLuXHLjd1MhEnQjxqONCMdDlG5U2trmF3dxz1spR2MlOKPABtwuDSp83REMUxd9Fmfql/BK3QqamfxnpU1TP8joMiti/u/9wOAzYrbSLF+ci3jML2JSae8IMdvYoiYxX37Ito/MyrZ620cVym6nVrbVQtnmLaDWnFUOV4Rh7amYk6HtKtyca0LvIgl6uY6JYgFzV3ncBAHV1tPNeuS6wDKJeJpNShZwon4Z+4IJhGh7v8V+16gfYgky85U5DX/1FBiyUROLdz/2WbwlyV+b3IWV8ZYQs43t+AIxLy9a+mp8bg0tgRTOM/nry50eHLXIGnM2aKqSWfl2k1EXM7WD9JzrqbHdyPaRoTQ5pzSuOzNjmxwuGxFggRm7QaW4nhxDU1UUPUo8hKHrY7URknIStR5rIqWiI/EkJTlJzP+TbR+Hwxb75bDF3bW/6yCEmLcAp0LeFmK2sSHtRswehjjrvEmcrTfw3n4Pjpepu1S+JlZes6KSOLOyl6itPcp150dL1Xi42IBHbBm5GK1hyJuJQtI2Mg2t2xmH3x2mrOYc3midw3GGrduoe93gY09lZl57LJJ9nX0fJFXbR0ZHrszp+F/DwMiyTdo+CjFnm7LiXgsx29ikdiNml4Nrj+4UTtfp+NZBD07Xe2yB/lLCgZEVD3rDwXTG9lCkDguxAL/U/QyFekjQ1sguLx+Y5lpyCgF6ybXeZbT65ukhL+CNljAOhvg+IfGUqUtUodcdpfrbYkIRs4bvjzq4XCHEXCiWMq64CAgxFxfPsh7NbsScDnlCw/F6Df/pkJtrzfYg5iSFSFaV98ys7bmoG4ORIO4v1eFJuIFlVczc3mNrz06nCl3rXEsOp9eSj9bM42B1BJ1VCTTSSw5yndnFDlFOi/PcMsVlJqI6rs4b+Nk4ly4iEsou6xeYnGxLBISYt4TG+h/YjZhVZpXD0HGoTsN/OeTEpUY3v7wdVtdzeHYjaFyTVAlDkyTnB0tBPAjXonepgWvP1VilWlgy5YNuVG7ds6ngVUUvud63igPVi+yhPIujNSuZteRd6g71zEB5PllMsAfzCol5zqDymwMzK0LMeUIou5cIASHmEgFbjsPakZgVLt21Gv6y24HXm1z0rAAXe/DaYVNrzzpTt9XaczjFmueYC08jbpJzEA+ZvT21quqea6EZlVf3rDxgVQLVWjWHQ6E5nKxdRHf1ChqZzKdUvDJryXaw4vM5zsZ1PA5raY/5D9NOzK8KMT9HR57tJgJCzLuJ/g7PbTtiXrverpCGP98PvNboQpDRbI9NiDnbXCtUJZmJGRQi8eD+XC1D3HWYTdQinKxCPOVGQlOa22tetDUTk7Mvae01hSlZj2x6yAFPClVU8Gr2rzBkPU/FNspr1ioFLy39w8rqIestLpIlcRpuL+q4Ro/5GuU4l6IWj72vXYhkZW9l0cp5X4jZxra0KzG3US/7qx1Gmphb/A5Ue+zhMWffKiqsHWN4e4UdqcJxF2b4NxZzM1HMh2G2kZygB72YaGGCWDDtaSuP2w6bqkd2MYM+5FtBF0VC9jNkvb8qjA6WQjX5k6j3plCzVpesZKUtLi29JeRjqxquzGu4PgfcW3RimfazwybEbAcr7WyOQsw7w29XR28g5pEBywuMmGA1Uy/7M20GLjU4cDDoYgmVPYnZvB7zcYVZvjMMj44xJPo0HMDoah29siaSM3s9p1wMc/Mv6UFS83C5/flatJHF2I48ma7w8Sq7miSshEFYh+xxJikQwuYS7ARVw3Xk1sAKw9Vh/kVIzEq5S2VbOxjhMK/Y3o9DEQ1/mEnh+oKDiXwurDC5zw6bELMdrLSzOQox7wy/XR29npj7R59ieXkhI11VyKxMMsgiiZwPlcf4hiodbzdruFTvwLEaF5p89vhCfBkWacEKetFRZnGvsP55hUQcSXoxF/diPObHCBtjDHA9epZ10HGda9FrGtyFE2tmRoWOd7B8TYWrg+4oWjwRNAciqKNX3FLFxK5gFM2+BJca1OdqDVmDj4SsVh3sGrrOtt/AsoZfTaZwY9HBWnU3fzjxPizD/Z89j/TrPP797Ovqwbtvf0aUvzYFsjLeFGK2sR03JWYbXE+tX8PFBhIzPeaztU60Wk2rsUgYqlC3+lMiJZMxD4YoVPKEvZ8nmMW9xCSxFS2ABGugk9Tg1nRH5i+dYMbXhpcc4WKWt5OPL48omOSc8bYzdcamdrUqb3LTG1YlTuo9RcbKO/a5kpTKTKLJE0enqkUOREnMMbRQQnNfIIkam2VZ52u2R+EUfjyWwi12lVqIKzvY4wfiPiUw8jYlOY+dQXdLO+qCoXwvXfa3OAJCzBY30HbTsysxV3s1nGLJ1MV6lQDmRmfAHl+I29lis8+U82X2fI6ReFfpkS1TrESFtaOaCwsJLybYWnIh4aeH7aN3zc9ZNB3h85VUPbO/g+mwt2qeoY6VqzOnwtNukq+Tf26ScYDE2+ALk4Tj8BLqak+U5U5LaPExXO03UE/JzAD39dMzVipdfpcKZzMpz2mTRfHNwM/hvVsLKXx3IMXSNxebWfBHULrlYw4Dd3kXIeZdNkAZTi/EXAaQS3UKuxJzgIlD3SEdF+oMfLLZyUzfClm0zNHQ2Z70fMKDCLtXRUjaYRJzmOHv5WQdPeoqEriH2d0kDnre+po+dzZdKn9a/alMarW5ScxeV4okrDxjg0QcR4s/QmJO8H0DIXccjcywbvIlGa52MlT9co88feAK+Z/6scScPWZjp/BXAzqXF/hrRcXnHfb4gSjEXCE34jaXIcS8DThW/8iuxOwlDzcEDZyp1fG1dgdeCdnjC7FY90O2Jx1nCFUj6SZJvkkyRorPU/SSk/Ti1PspettKfUyRc4KvFbGs31hiDK9qt8jHdF14+pH+n+Ib7uih1+xLh7OVYpeD+2kkbb5Hkvap13sL/jTOUaWRvaDhb9PNKxQABM1c510PrgWfCzFb0ChFnpIQc5EBLefh7ErMigj8zMR+heHsP+sEztQ46e3Z5nuxnCZOn8v0sBVpM/GboqYEa93GQDdUxZmHIKaTs9THxNgmPLPuSsrzVDWuUPXn1+Z1/GiCSm42Ufwy0RFiNpGo3EchZhvb1q7ErHhDeXY99Jj/Yh/LpurXFMCU4yLbCwiYHrZylNNrzVl7KDwVCa/xcebJ2ntZu8pLIjBHUu4LU4pzwcDv56j4ZRNhEdN4QswmEpX7KMRsY9valZhNyDsoNPKnXRQaaXCxZ68jXY5jfiaPgkCpEBhn44prbPV4jc0r7oZVQp69chyEmEt1Z1jnuELM1rFF3jOxOzE3VWn4VIuGVxuYAFblYnaw8vlkEwRKi8AAhUX+bUbDDZb9DzGMHWWWvJ02IWY7WauwuQoxF4abJUbZnZhrWM98bq1s6kKdG+1+iWVb4saq0EmklwR4bY8pLPKTSQ13KMOpwth2qV82zSLEbCJRuY9CzDa2rd2JOeDWcJANLc6rsqkm954rm7LxrWfLqasSKZVId2tJw99PONgVzIkEezKrzHc7bULMdrJWYXMVYi4MN0uMsjsxq5raenrNZ+p0fLXNhWMhl00kHixhfplEnghQxpwqbDquLxn435MujHJ9WU8ZzGnPqj/L87jl3l2IudyIl/98Qszlx7xoZ7Q7MavMbC/XlY+yP/OftRs4V8vsbDovEtAu2i0iB1qHwAJrzZ5SyPz6ooHfzrgwq8qkyMlCzOtAkqeWQECI2RJmKGwSz4j50V2oJhaRMLNZ7LQpEiYTd9Xo+EYbJTprHailSoavUrok2MkWe2CuY7EUri1miPneItXWbNLmMds0XWmtbDaxEK3sbGgq5rUQs41NWQnErJouNLIN5KeaUrhYxzaQAZWdLT6zjW9Ly069bzmJn08lucbswHTMyz7Z9srGNoHdt+8gvvaWELOJRyU+CjHb2KovEPPyoi2vJsR15pM1iTQxX6pzodPPDgqyCQJFQkBnOjYVTXF3KYV/HGXTCq4tx6lBrlHy1I7bvq5uIWY7Gi6POQsx5wGW1XatFGJWDRda/AmuMRv4UqsHR0Ieq0Et87ExAkkSs+qRfYNh7L8fAwZV0hczsQ2bZjMIMdv4Zsxx6kLMOQJlxd0qhZhdbKqgegO/wo5TX+9w4XStm69VswV7lbFY8R6ROYGdu3RMxQ1cXdTxsyknpiL2jsgIMVf+XS3EbGMbVwoxs19SumVhJyU6v9wGtoN0opnZ2sG91vbIxveilac+GdMovakx8Ut5zW4sxewZwjYxFmI2kajcRyFmG9u2UojZNEE9JTrfbmQSWC1wLOhCk1eSwExs5DF/BFi2zHVkoH9Vx79RG/s2k77GWCIVS9r7vhJizv9esNsIIWa7WWzdfCuNmKs8KRwOpXC+BvhYowsHmKEtmyBQKAKqRSb7VeBuRMc/TTnYUcqJWEKpf9l7iUSIudA7wj7jhJjtY6sXZrqemAfGnmI5bM+sbPPCPC4ddb4UTnKt+fMtThyvdrGmWa01m3vIoyCQOwIRqnpNUXLzWtjAL2bdmIww6YsutNLMtvMmxGxn6+U2dyHm3HCy5F4biXkQy8s2ExjJQtXpMOB2Guiq1vHFFh3nahxca3YiqOTAZBME8kRgkhqcd9mw4jpD2DfCXFuOukjKNmdlYqAkOb/25qdFYCTP+8FOuwsx28laWXPdQMzjg4jYtI4567JQH0jhLbXWzJD2MbaDlLXmbITk9XYI6OReVbfcv8r2jnMGbocdGF/l2rJNBUWyr7VL1TG/SYGRo6fR3dKOumAoexd5bXMEhJhtbMBKJWa11nwomJS1Zhvfm7s59Wdry8tcW57m2vIyBUWSDtuvLZuYCjGbSFTuoxCzjW1bqcTsceqo9SZlrdnG9+ZuTj3MteUxhrGvh4F/5dry9ArXllWKdoVsQswVYshtLkOIeRtwrP5RpRKz0mTKrDVrstZs9ZvQgvMboczX5QWuLTOE3bti32YVW0ErxLwVMpXzvhCzjW1ZqcRsmqQ2oOG1Bnad4lrz8aADLaxrVmlgkgpmIiSP6xGgo4w4F5gfRjT8y7SO+wxhLyU8SOr2rltef43quRBzNiKV91qI2cY2rXRi9rkNtAV1nGZbyM80AIeDTigxxcr6mrXxDWixqa+wFGomqeOWKo+admI04kKKNctGhf2UE2K22I1XgukIMZcA1HIdstKJ2cXSKR+Z+CClOj/XpOFMyIkGFjX7WdssmyCwHgFVBDVNUn64YqTXlq/Mu9LlUev3qZTnQsyVYsmtr0OIeWtsLP9JpRMz6Ou46B7Xsy3khdoUzrEq5FQ1dbS9oghm+ZuzjBNUpKyxBv7JqoFfz1Ppiwpfk0z4iqcq8wecEHMZb65dOpUQ8y4BX4zTpon5xge4/PguBkaV8ldGYMSRZ1embNEFq433uTV0cL35FBXBPt7gQE+VEz5eoyvP6ywG5nIM6yEQZcr1XIqNKlge9as5NwYjHpJy7tKbVr//sxEXYs5GpPJeCzHb2Ka9EyP4+e0PcIXE3D80gOVFEjOdhIKIVbkdarPgeKdDh8dl4AAVwT7brONMtVIEc6DKKavNGaPt7f9PxpNcV47iZljHvUg1luJe1iyv3cw5QJMmZgvf/9mXIMScjUjlvRZitrFNeydJzHc+xJVHd9A/WLnEbJqohl7zhToN59l96mSVA60kZxXUzveHiHk8ebQ3AknKa6qErycrSfz7fJTZ2A7MxKqR0Lx5XZgQc15wyc5lQECIuQwgl+oUz4hZhbJJzOFFLrBxy5eo7BLKc9NrDvkNvMKQ9hcbjXQJVYAevltC2qW6xSx93MWUjiEKidymp/zBvIGJVTezsN3QjfwiKXa5/01jiMdsIlG5j0LMNrbtBmI2Q9k2vp6XTV3xr4MZ2S1BDZ9kffMF1jfvp9dcq2qoZNszCKSTvXi1IyTlqyTlW8sUEgl7sBLPj5DtCpgQs10tl/u8hZhzx8pye24kZiZ/Ldm7u1QuACtyDngMdFRpOMs150/XGugJ7I0v5Fzw2Qv7MK8LUf7dZxb2z2aA3mU3VpNOMP9rT2yq7eNX32B3KWliUbH2FmK2sWnXE/PTYUXM9u7HnKspVHtIJT7SXZXC57jmfJrJYA30nANS35wrhLbcT+Vzqb8l/m+MnSpuLgP/xnrl6RXVzlFdEn+17YGtq1MR86eEmCvY1kLMNjbuXiVmVd+sOLjGm8KxQJL1zTou1bjR6RPP2ca380unbnrKT+MGPmCP5fsMYat2jlF2jsps5uNLD2XrHYSYbW2+nCYvxJwTTNbcae8Sc8YeHqeGWk8SRxnW/kSdA8co2VlLZTCfeM7WvGELnFW2p3x/xYGPFim5uSYioht7g5BN+ISYTSQq91GI2ca23evE7GBgU3WhavBp9JqpDFbNZhcUH1HNLmSrHASyPeWHESczsB3pdWX2rOAmxFw51pYrSd/RmsZCQNlsicBeJ2bTaEoZrD2Qwgl6zm/WUBnM70SQBc5e8ZxNiGz5mFk35poyv6JGmNh1b52nnNAcFBHZW4RsGlE8ZhOJyn0Uj9nGthVizhjPSa/Z49TRRk3t10NsdkHP+SDJuZ4JYbLZFwFFzDr/NxAz8G/srXyP68kTUWd6TVl5ysYeC2GbllTlUl99XZK/TDwq8VGI2cZWNYn5ai8FRvZQVvZWJgvQc+6h13ySf6dJzvt8qsZZ1py3wsuq75tryhE2WJ5JGLjPjlH/HnZjJOpKN6bQ9ighm/ZKe8xCzCYcFfkoxGxjswoxbzSei2VUXpeOFq45nwymcDooa84bEbLHK3NNeZDZ1x+xNP8Bk7zGlKecctKDVjn5ezsSIsRsj/t4J7MUYt4Jers8Voh5cwP46Tm3+VlKRc/5Asm5x+9Ih7UDa00vRMFzc9x2+13TUzbrlM3s67HVTAvHve4pm/YRYjaRqNxHIWYb23YjMQ/uCeWvXMylejirNec61jn3eJM4FTRwIeRK1zk7ycpCzLmgWP59TE/ZrFNOZ1+v95QlTTVtFCHm8t+b5T6jEHO5ES/i+bKJORLeG8pfuULodmTqnA/Te36TutpHWedcz1KqKpcDqqDKLKqyWxOD7Ou3+/w1BqfjbO25wOzrMepdP2Qp1LUlJnopT1lT4eu9HbrOtncnlb++xjXmN4+cQndLO+qCoexd5LXNERBitrEBhZi3N56qc1brzrX0nA/7kjgRMnCaCmEdVAgLcKjZ+yJNbKY3Rg4oqDuXjM8YowD8VvkDataRwOOojg/nfHga8SKccLJ9Y2ZNea/VKW9/VwNCzC9DyP6fCzHb2IZCzLkZz/Sc97Of84kaJw6zV2QHW/Y2sNbZx0OkPWch1gyYBRBrvj9sTA+fuV0IM/N6Sk9h0EjQUwZuz1ZhKepbS/AST3mzO1yIeTNUKus9IWYb21OIOTfjmZ6zV/Vz9hroDuh4o07HMT/QzHIq5T2v3wrymNcdQMZvT6gmkc8kdTxY5V+MHaLiDkzFXVhNeNglylxk2P446yDfU0+FmCvf3ELMNraxEHO+xlOFNgZqfDrO1lIpjElh3Wwh2UpyrlH1zsID+QKa1/4KfSXWFWXN0yJ7KT9l6Pom15Mfsz55MubhejJDGLK9FAEh5pdCZPsdhJhtbEIh5nyNl4lXu+mQBTw6Wn0sqWJi2ImAgVeosd3MDxQ3Cz/ni2tu+6cIbIwyqeMk5bvhFB5FHBiIe7CYdCOpS5JXbijKGnOuONl5PyFmG1tPiHlnxvO5VL1zkmvOGk5VOXCAC871zAhTWdtq7dktdVU7AthctmfrZKww43qBhcrTdJmfUmLzQVjHMD3lcMpDUhZPOR+gxWPOBy177ivEbE+7pWe9gZhHhhBZokySbDkj4GTGtofrztUeDS30oA9y7flUNcPbFCRppHcXFGLOGcvNdlTErHPpYJEFykPM9HocZQ9l1iVPMOM6klRZ12xEwVIoKYfaDL2t3xNi3hqbSvlEiNnGlnyBmKWOuSBrpqU8KUjSxCYYx6qpt+3X0UXCbqEjV8u65wBD304SiJmSVNBJ9tCgFBtPxHm9q8pLJimP88WTmJN/9JajbqxSWlMtGOx1ac1Cb4nOjgNSx1woeDYZJ8RsE0NtNk0h5s1Qyf89RRGqQ6Tq7ex365Tv1EjM/z975/LT1hXE4bFjbAccIE3CI0E0Ra2UqosuorTdVO2mm0r5g7vovosomybqI40SCGlaiJtSAzY22P3NtcGO8gIutu85+a50sXWf53yD9PPMmTOnaZ9MHs57zllZYlOQOLO9m8COWFXlLj9WyPqexpFXFbLelIe8LUHuFgzxete+wfPdNF+9AmF+lUlsRxDmgC2KMA/HeBMqeDE90bRledA+7/m6plVdUth7Vo7epLK3taIkHvQA+kEPeUsZXlV5yn9p/eRHquL12/Y5e944Z00ld1HregBaiq8Icwp4gdyKMAdiqNc1E2F+HZX0x5QfnFQM83nPFY09zxXbtqIM7hUJ9IrKel7ROs940H3Ogx7yfXnIawpbv9Bc5Jo85Ib2fSV8sSpUn1fabwhzWoLZvx9hzr6N3thChPmNaM7khIe4PehaVvb2vKZVfVju2EdTOVvQ3OdZHZ9W6Hsq8aDfjyzubvjZrKVQ9a6UdkdZ1jsaQ/ZsazzkM/mXO9ZDEOZjYQr6IoQ5YPMhzMM2Xjc9qTv+fGAlJYOVNZ1qRstKLuZbtqxCJdcr+aT29vuQxe3C7FnWWwpVP9EcqNWmxpG10IRnWeMhD/t/sf98hLnPItZvCHPAlkWYR288n0FVUAb3tJLDFkoHtqz1npeK8qIV9p7RubLEW7VKXhqLzsnDDHHTMHGSXd1w71g1rXd1oK4EuOfykp/4rjKa642C/dvUGLJC14whj8bKCPNoOI/zLQjzOOmnfPegMD9aX9V6zCz7mBLpO293YfYQt0+x8jWfS/Kgpwodu5g/sMvK6L4sb3pJ86APx6JLEjUdDnLTmhJW1e6Vuh5vt21dQryxr6Ig7UIi0J5h3Z2L3F0FKtDfH8HZJlmP+YtvWfYxOMsdv8EI8/FZZe7KvjDfMxdm1mMej4m8UElRwlyRKM9qv1rqjkXPTZhV2u1uopi8aOWMyaPWeLS++6dOK7u7t7rVCJt+6L/L6TVFo82zqvf148ErdDUUpm7IM9ZMJ/tP3nFV+zN5y2vbpkUm8qrU5eUzFRbIqRNMdxqh1fqvco/5NsLcBxLhN4Q5YKMizNkwXk7CLM3VXGh5x/KiJxLh7ai0pxLEfOpVrq3w9r5EW6tZacnJea2WMa8B6xldV5IQyuEe6eav8ynZdX1W5dFvJUlcqtAlZd6sd2yjldO8Y3nGHYWocz7VSSFtqXgrya4erGntvWYbNQGv/HX71jd4zKMGP8L3IcwjhH3WrzoS5gd4zGfN9iyel1fI2z1pz+ou2b7NKJv7kopwX1Goe07uswtzWR61VqJUXW7tut4X2PDPc4qZy6l+qV53IoP6kxzXdfleydB2z+OVxieVOwZ13r1hP37g1+jnQ+IZ67OpfVvH/pFC11yYddGW3OeqqnRVlcz1kmfce89ZMOEZ6Qlcu4owp6eY7ScgzNm2z1tbhzC/Fc/YTx4WnXRPOlkTWnFrF173qCeU6l2QJ12QMPtyk5M6V5G37Z71lL77QhpJMROJ4kRPGN0zzyuKXNTu07Q8NO5bskiEws1NhaDb2jvuDifHFZaW+O4miVs+vSmnaU4Fq3VUhUsFP+r61CnTLck8Yxft7u7zjgc8Y4Q54ZmVPwhzViwxvHYgzMNjO/QnI8xDRzzcF0g0rePFTFxsJdC+y68978KssLdXGCvn80dec15Cnte5oiec6SYXeN9aPY+3qXBzuxdu9uPuLTck/A2d39W5us7tyR9vaN3jpsaJ2/q5wBYeAYQ5PJudtMUI80mJZeh6hDlDxjhNU1yYtSWetbzSQ8/aP33utIeqXTpzRx6rPO+jc/2kMelu4vFquLjnLXcFt6Pn+xs81O3nfBUnPbn36VFvhFl4gtsQ5uBMduIGI8wnRpadGxDm7NiClkBgVAQQ5lGRHt97EObxsU/9ZoQ5NUIeAIHgCCDMwZnsxA1GmE+MLDs3PPh73X74+Se788d9zWNes+3aVnYaR0sgAIGhELi2uGzf3/zavvr4M7s+t2izUxeG8h4eOj4CCPP42Kd+88ONp/bjL3fs7sNf7dGf61ZDmFMz5QEQyDqBpfkl++7zL+3WyqcIc9aNdcr2IcynBJeF255tVe3u6u/24NmaPX2+abW6F1FkgwAEYiawOHvZbq7csBvynBcuXrJK+XzM3X0v+4YwB2z2RqtpL3ZriSDX9/asdeBFFtkgAIGYCZwvluyDyrRdKE9auVjU3HhNbGeLigDCHJU56QwEIAABCIROAGEO3YK0HwIQgAAEoiKAMEdlTjoDAQhAAAKhE0CYQ7cg7YcABCAAgagIIMxRmZPOQAACEIBA6AQQ5tAtSPshAAEIQCAqAghzVOakMxCAAAQgEDoBhDl0C9J+CEAAAhCIigDCHJU56QwEIAABCIROAGEO3YK0HwIQgAAEoiKAMEdlTjoDAQhAAAKhE0CYQ7cg7YcABCAAgagIIMxRmZPOQAACEIBA6AQQ5tAtSPshAAEIQCAqAghzVOakMxCAAAQgEDoBhDl0C9J+CEAAAhCIigDCHJU56QwEIAABCIROAGEO3YK0HwIQgAAEoiKAMEdlTjoDAQhAAAKhE0CYQ7cg7YcABCAAgagIIMxRmZPOQAACEIBA6AQQ5tAtSPshAAEIQCAqAghzVOakMxCAAAQgEDoBhDl0C9J+CEAAAhCIigDCHJU56QwEIAABCIRO4H8AAAD//wAhlCgAAEAASURBVOy953cc17Xtu5lzzjkTzDkrUjlLpKIlK8vW8b33D3jjjXE/3/HGO88+x5ZtyVHZkmXlnKhAiTnnBJJgDmAGc3rztwoFQjAANrq7qquBveV2E93VFVbt2nOFudaqd/78+YvODy8BLwEvAS8BLwEvgURIoJ4H5kTcB38SXgJeAl4CXgJeAiYBD8x+IngJeAl4CXgJeAkkSAIemBN0M/ypeAl4CXgJeAl4CXhg9nPAS8BLwEvAS8BLIEES8MCcoJvhT8VLwEvAS8BLwEvAA7OfA14CXgJeAl4CXgIJkoAH5gTdDH8qXgJeAl4CXgJeAh6Y/RzwEvAS8BLwEvASSJAEPDAn6Gb4U/ES8BLwEvAS8BLwwOzngJeAl4CXgJeAl0CCJOCBOUE3w5+Kl4CXgJeAl4CXgAdmPwe8BLwEvAS8BLwEEiQBD8wJuhn+VLwEvAS8BLwEvAQ8MPs54CXgJeAl4CXgJZAgCXhgTtDN8KfiJeAl4CXgJeAl4IHZzwEvAS8BLwEvAS+BBEnAA3OCboY/FS8BLwEvAS8BLwEPzH4OeAl4CXgJeAl4CSRIAh6YE3Qz/Kl4CXgJeAl4CXgJeGD2c8BLwEvAS8BLwEsgQRLwwJygm+FPxUvAS8BLwEvAS8ADs58DXgJeAl4CXgJeAgmSgAfmBN0MfypeAl4CXgJeAl4CHpj9HPAS8BLwEvAS8BJIkAQ8MCfoZvhT8RLwEvAS8BLwEvDA7OeAl4CXgJeAl4CXQIIk4IE5QTfDn4qXgJeAl4CXgJeAB2Y/B7wEvAS8BLwEvAQSJAEPzAm6Gf5UvAS8BPJTAhcvXtSJ86pnF1CvXvCen1fjzzrXEvDAnOs74I/vJeAlkNcSAJQvXDzvLl646ADkevXql757cM7rG5vDk/fAnEPh+0N7CXgJ5K8ETp065Y4cPuyOHjvqSo4dc6fPnHb1BcqtW7d23bp1d61atXL169eXEe0BOn/vcm7O3ANzbuTuj+ol4CWQ5xLYs2ePW7l8mVu/fr3bsrnQHRZI1xMQDx482N166+1ucEGBa9SokavfoEGeX6k//bgl4IE5bon74+VMAufPn3dnzpxxZ/U6d+6cLZjNmzfT4tnYXI85OzF/4LySAJbyoUMH3cYNG9ycH390K1eucFu3bHZHjhwxi3n0mDHu0ccedxMmTnItZTU3btw4r67Pn2zuJeCBOff3wJ9BTBI4efKkO3jggLkfj5Ucc02bNnU9e/dybdu21YLawINzTPch3w+zZ/dut2TxIrdYr6VLlrht24rc8ePH3dmzZ436NXzESPfgQw+7yVOmuC5durgWLVvm+yX7849ZAh6YYxa4EUUuXHDnz5/T64Lj74v6+wLvFV6wPEUlCYgk9QNSSX3IJXKXQTIhfhW+N5C7zDNBK7+Zp0+fdkdlzezdu9cVbd3i9un9qGKCbdu2ccOGj3C9DJzbCaibVb4D/6mXgCRw6tRJWcqH3Pp169zs779zy5YudZtxYeuz8mPosGHuvvsecJOnTnW9evV2rdu0Kf91zv5dtvbIW4QScU4epGDt0Tok4tqFi8F6BLM8WGdK1xytMw14NWzoGvLSWuNj59HeRg/M0cr3J3u3B0PszTOnz7gTJ06406dOm0v13Dk9JOfOG1gH7+fdBR4a/ccDAug2VKyqYUNe+re96wHRZ430oOAqayLrj4fGj3+XwP59+9zqVSvlclzpli9b6nbt2iV5n3Vdu3Zz4ydMcKNHj3FYOZ06d/73H/tPvAQkAZ7d3bt3uSWLFpm1vGTJYldUJEu5pMRArryQhgwd5mbee5+bImDu3aePa9Ombfmvc/bvMJRzQtY9pDXWIAD6LOsPQC3ABqwFx1pbSkFYawqhHrxLzZs3N0Ib7z52Hu1t9MCcBfky4W2Cnz3jTgt0z4idabHM0sl+nglf+uIhIEZ18riAWZZcAMrh9wE4sz9epEXWk6UMMPMgmLaKxmqv4G8+b9ykiWvWrJk9PJe2EWgD3OW+byIA53ss7rowuAfHjh51hZs2uR9//EEL6mK3bu0aV1y83y6/a7dubty4CbaAXn3Nta5P3745F8sF86YEsfAwHs6csTlhylswNy7KurkgK6e8l4WTDzwo5SydBvVl3QQWDvfe5oPmAXOGf/OZWT85v/JkngDyPUUI5OABt27dWvfD99+75SJ8bdm82chelZ31kKFD3YyZATD36dPXtVGoJM7BWsPawou15rRetuacPGEu92NHjrrDR0JgFt/irCxowNnWKAGzSORlyr/mR+PGjVzTJgLmFi0MmFvoHUOgic0hGQVNeDXRS5/xueYXc8uT3tK/6x6Y05ed/dIeXE38o0ePmJvrQHGxxTF5kCGDlEij5oVmfUIPBloqC+55LbIXLvBicQ1cSJUvtMFiS25kfXNnh4vupXceoqZNm9iD07p1G3t4SNXg323kRuvYqZPr3r2H69ixo+OhaqQHpy4M7gVux6VLF7sfZs92mzZu1H06aooT19++QwcxaAsMmG+7/U43SGzaXI4QlIlXHjp4MHgdPuSOKR3n5ImTNneYPyyyKIIofIREsHJMkdPJmxKnxbShrBw8KU21YALC/LtFi5auXbt2rl379q6Drp254clJVd/xUOnZtXOnW7hgvsWUVwiUt2/bVhZTruzXuQZm5g9eon167d27x+0Ve5x3nocD4liwHrEGAcSXFLxLih7JXRgEYT42ilsDKXgNGqDYNTQABqRba41hPjGX8DZ16tzFYuodOnS0uQVI+5GeBDwwpyI3ac0smme0GBJngkTEK9REjyleiWvooBbTAweY/IDzQQPm48dL3LEQmPXAsKjyQGRz8ODg1m7erLniWa0FzLwEzPq3AXPHTq5Hj56usx4cHqSWrVuZW6pF8xZGTGHRrk1WE6xrFp8tWza7+XPnukWLF7lVK1Zoodr7E7GTb9qzVy83Zco0d+/9DyjePPwn30f5B/MJcD0poD2uF+7Fk1LcmFfEw1lAAeeDYv8yvy4B83GzhPgt8ygAZwGzlDxGA1nHxAKxcho1xoppInCWBaN/t9Ri2lb3v72AuX37DjYXWkkGADaKHTF2FLcy74vmVF0dgDJKEGC2ds1q971iyiuWLzeiF/enuhE3MDMPmDco/xgDxfv3K1yz00FS2wMw6wWvoljXQjycNYjrS3fgZcG1jVLXrl2g5HUuBeauIrt17NTZdegYKH4AeHPWGb0zFz0XJjWpe2BOQU7Ee1kIyVMkzoQGvVMv8hiZ9Idl1bBwMuHNjS0XkrkhSxdPHhxbREstm0weiqpON9BqQ5e3XJTSbHEn8WqiRbmpXN2ANA9Q125dRXjq4/r27ef6DxggjbejPTC1BZwBtMLCTUbO+f67b2Q1r9eCddgArbz8iJV10iICSefnjz7mRo4aXf7ryP4dWsbMmx3btrsisXq3btmi+bRLQHDArHrcp7gizyg8gqsRi/gchMFKPC2hZccJ48q2l5Q1mxO4sc2dLeUNi0eAjSLWmDmhxRUZwErv3KWrlLcemhN9XY+ePS3+zsLLvuraQJ5U8tqxfbubJ8WOEMhKKXY7d+4wsCYeW92IG5hR3FiTNmvOrxKXAoV0/779BtJmPJwO3NnMJ/O0aC5lMpgTxnsRQON9w3UduLFRApu6Fq3kmWnbTkVWurm+/fopRNTP3vHcNZPyB7D7Ub0EPDBXIh9AlAmN6xnLq+SYrF65QIuL97vdIg6hje4AmKWRYoXhHuVhZcFN8mAhxmLu0rWr6y1g7te/v7lye4o5ihWFBclCjfWdjwNlqERpUEVbtwbpLCLqkM6yZ8/uSi8HC5Hrnjxlqnv8ySfd6DFjK90u4w9LPS6ntEAeO3rM5kvAEt9jFthWne9WscWZT3hdsJ6ZS1EocOWvBeBmYeW+dykFZhbR3r17u54C5w4W+mhpXhU8MFg8tUV5Ky+H8N8GyJI78udZXyNL+dtvvrE85V07dpjnIty2uveogZn1ySxknecxhdD27tlr82fjhvUGzLjaWZMA4lwMjAFSxDACAOZ+/frbO+E0PDUognhq8Mx4jkPld8gDcyVywSVEas327dtEHNrotol9CRCTA2vuRlnHPBi4tU9p8ucDKHOZLKoWdxRANwstJbm3+/cf4EaNHu0GDRosSzo56R2V3JpqPyKuTxwZ5jUx5Q2qyIRViiejshEXMIceF7wr69autcIUmzSvdsn7gsKH4nf8hMIcmlPGP5BFEzUoh/IwcMarwpzQQkl4g/QeFJZu3bu7fgLq/gMGukEFBbbQ1uaFFK8E8t+u533+/Lmm1K1evVrK+E573gHEVEbUwGwWss4JAtqa1auUsrXZDAbc7kcE1IRHsIxzZSjUqydWt6xi5hQubF4tW7aSV6aLgfSgQYPcUDHXu0v5aykAZ03y46cS8MAsefAwntDCeLxEGqjcQsRocFthxcDoBZh3y5qBhJPKghlOzDDNgInXwNKcAkY1LFnNXXtweNh58SCZlV76UKVynJ/eypr/hWaLhdyjR083YtQoN3LkKDd8+AiLu7I4YyHlw0BuRwRw5CgvlduRVJZlAmdIL9WNqIEZiwUL/sjhI1Lqii29Zo0W+g0b1mleFRoXgXufqwW0KtmE8wI3P0z1gVLYhg0bbv/u2KmjkQpDa6eqfeTT58TpUd5gKjNnUJ7mzPnR3vG2oKjXZGQbmEOFAUseRZO1CK/Qxo0bDJixkAmzVaWA1uTco9qWNRFLmRDaQAHzMOV69+3bX2Dd2axomOvMKRRFtq3ro84DMwDIZGeiby4stJSIbUXb3P79++xzY1MLLE+ehLRVfWwpnEzhwgYxArcxLFjTGkWywcUTugTPKn6IqxzAh7Sxb+8+s9IhaMThygwVCB4IgBiX0/gJE5XXOzqv8nohtqxetUppLEvFnl1g8WUWKgC7uhElMDOvIAFStnHD+nVyMa6yOWaVxwQA3HcUwqSBMvIK5wXzFOIO4Q9i0Fg648aPN89KN8WjcW/XhhF4yPZYzesF8+a6tQJmOCSU3QTsAO6ajGwDM9455g1lP5dK6dygOUUufrHc7bissZCTOpfKyy1YF2U9KwZNbjcx6AEDB7ohQ4aax667DAQzYpQeWtdHnQRmrJRLLMbDRpzAtbhh/QY9nOvsb8CSyZ7KgAhBSgrWZyu5bND+whQCJh9ECNiJuG0AZrZFM8RKPi6LirgjwIyrEyudODas3PCh43zjGB3F3qY4AovvtCuusIeG+CNEoSQNQA9AgzWL+xqvxmLFk2HNls9Tvtw5ZxuYOSfuFekqnBcWPAoD7tC1a9eYNQZjPIlgXJ2sQkWTKlajx44163mASIPduvcwpZN5n2+WDvfAPC167rCKN2kOrVq5whS7bUVbDZDTfe6yAczMcTwupGGisGM4MIcAZhpmUIEsyRZydfOJ7wILup0VYEFeY8eOcwMHDrK0K0iqrJfMu7o66iQw464mblQoC5mHsbBwk/4W8UZgaDmj0lB5KFNdQInXkiNMfLZgcIGRqljEIM+w+JO6Qg4gcReL0Yklq6kpt3iwkFuCPyCt1CrIP5T5WybSEl1rduzYbnHIOCYoAAwQDxg00F1xxZVu7LhxBtQAdpJG6NrbLjbz/PnzDJCxSnft3GXKDMz4VEa2gRlFDksYhvXCBfMMlIu0yMNXIJbMQprqnErl/OPaJrSgmykdr207LJ3uxuYn7DFRjRp6qbpVPlk63APmEG7rVaoGB5OZdQClGEY/Ch/fA47pjEyBmePygli6VkqdeYNWLHdFmlekz2Hh54OFfDnZEepr3qK5GS7EnwFm1pzBBUNcHyqmycCpq6NuALMmOQ8jVjIuTtxAWMhYVzyQ6bIYSREgV5jSjv3FcCZ2MljATFwO4gz5xCxqqQ6UgZMilO0UA3TZ0iWW7oMVCDjjrkpXg0/1+OF2sClHKN5MEf5rrr3Org2FItcVwwglsGgSs2XRonhIJrHAbAGzeT5kJUO+IcWGvFcUBohouLOZd7Vp4PlhfhN3niYFbviIEVbABqYt3qOazPk45cLzA2ETDxVKuCnAqne9evUqCzng5cjGSBeYWaMgkpZIQSdtruz8pDhQdQzuS7rKQjauK6p9MGdYS0nXG6XOXCM0nwrk3sbQIRwYxp6jOn4S91sngDlkxULoovA8DyIED/7GhZwOi5HFh4IdFKUYKeIUqTakIBF3Qwtk0a+pK4aHDk0d5jeuqnVr1rhZs742izBOy9nSqhQXHzd+grtfhTe4NmLkua4YhlsP4CPcQBoUrOtMYoHZAmaUPawZ5hUVoogBEv/DSsay4Z7WpoGSxhyh2lP//gPkhhzrrr52urG3iUvzfRIHRDxS0go3bnJLRQ4kvYjnqnh/sZH0Ug1dXe7a0gXmM3Jd483DVY1ih6WMxwVXNp68XKU/Xe56M/2etZRQCACMldyjR09XUFBgdQXGT5yo1L1egadR29SVUauBmQXR4jSl8VsWcmKRa9eutpgNoFzTwSQCpFiUBsj1Mm7ceFmXI+XyHWrFKmq6v6q2B6R3KF1r7pw5bv68eW7RogVmSaNVR601hw8KSgc1fydNnqIuOb2MIFbV+UbxOZ1vsHKojAVBjyIKWKEA4PLly9xOgTTu4XQ9CZkCM8dmDuFSx/OC0gcjnPOM4z5FIfOa7BNwhmlLN6Xp110v0uDYMkY/VhDzKJeD5x+whc3MfYIkiLt6vazP5cuWKYd8mwFetgA5vFasvRkzZ8rjNM2Rx4uMqhscv0SAjHcFxRPmPulazPV8jyVXd91VfYfnBTBm/Zk6dZqtrZBoW8sDSY0FQLy2j1oNzLg9Q2YsAIeLkeIguLH4DhdkTUYIWDxsV111jRsjwgKswq6aNEwmrIVsjpIS5VOLmALT+N133rZ42GkVqYjDAuNaeTgmyZ09RQU4pugBoXxlnAOiFEQquvgsXUoDirXGnKf6GiVQcREji3QVlUyBmRjlSgEy9ZOpDkVe6SEpEOQjp3tOcco302OxQBJbhksxQLnOY6WkXieAHqCQThIsZ+YHzzrEKbqLbRTQBTH/PTZ/WANQ6lCisjmIkd59zwyrwd5PHgVY7dUNiJ6FOrc1a1bZPILMuF9u65CAmu3zq+5ckvAdHpeQt9O7d1/zSF551VUWg8YjCXm2to9aCcywLWE0Q7rZsmWzWTNYnaQbpAPI4STAUsZ9jev6pptusdzfTiozB4MwihG64Fn833rzTXOTElsFrOIY1FXGVTl12jR31933GCkj6uMCaFgQuPRYVGGob5DLEeDbuHGDMWhrmlda1TmnA8wskrbgKx6JRbNALkes9w2Kd7PA1sUBCEMaxHK+/oYb5doeb2xbUvDitJpJa8JDxjOO25o4LeEqGNcAM4pTHM8PzVBuv+NOs5j5Nxka5QdzHIWA84RshrKwWiQ02pKuXLnc3O3Ms7qg3JWXS8V/o/TB0yFN78qrr7aQGimd1OHmO+pB1NZR64CZyUxnFaxjckcpNEHMBmIOgMYDkc6EZ4EhhjxVaUQwUamURYk5qtvgtotk6Fp4QHG/ffftt6rbO8dccKRVxTFC4MJafuwJSlaOifSw3BdeFNvfqLAD93C5yG8oVJY+pjgb7uOa5pVWddLh9aVakpN7gYVOXBJAxnWN23Gn/kaRyLZLtKrzTtrnWM7wKbCcB8qDNHHSZHfzLbdaqIfnJi5wxmXNs0/FPvLHC/Xcw5DneaEEKs+/zR/dwygH9edvuvkWK/UKc71in288dfBa8AQtWrjAWOHUUCD+TU13zjGdNSrKa8rFvplXWM8Wd9Zay5p7rTwyhA3xQvD81tZRa4CZiQxpCgC2vNbFi6zw/FoRqCgWkslEt1iaJsLwESPdzXrgAChyOOMqsMBig8Y/T8UPvvzic3PnxjEhUThgS06aPNk988tn3QQpJCzAPDDZGoAdgMaiSU43no4d23dYnWKAGeBjYY3CgkgVmJk7ADJxQLwwnNcPP8y2BbUmNZSzJbOk7ie0nMco5eXe+x6wUA85qTw/2R7MBwt1qGLfCfU2D5jMxZYyhyK7Sd4V3snA4L7FOVDgsfAIAUFeQoFnhOx9rGQ8QTCtUfDgvsRhyccpg2weK1yHUHiuvuYa4/UMlCeCynTMucgMo2xeRA33VSuAmYWTV0CW+tEYu+vkWtwlNxYLfaZsRgr8Q+OfqIdsytQrHDFmGIRxsU9DNimdbt74x+sG0jW8z2ltjqUDCBM7fPKppy3ejGuJhyEbI7RAcVlvkVWMQgVTFkuC+O0BuYuPqqk7cfVMFKuqzjVVYMbLQhobrtAfv//eGL108oFMhFub7/0IarGjuMG7mH7dDW6SLOehIvAQ7snmCOcNAAf4YhUX6n5sF3EKJZaKXeXrj8d9fyAqjRkz1mLM106/3tYLrh/2PudKmuZihWZQHphDoZWcCXck9EpE8Zxk896ls69wHYLHQw49ocTrrr/ByGEdOnS0wk7p7DfJv8l7YGYi4hYiPYX0gllff+VWKBk/G5oymhhEg8HSzm644SZZjBOtmD+TIc4RkqAWKBXn73/9i3VOYrFhgYpj0A6RtohT1B6R1m2UaUxncK84ZxQlrBjcv7gYw7xyFipckFRiyoQLkOq5BazidnZdTzz5tFW1Kv/bC+pxjDV/6NBhc1+v0rz6/rvvjNVbHVs2XEgAKTwO9Dom5EFcrGFDteRsqFaM9dU3WfOLF8oPv5F66S5eCJTMCyo+c+E8rnNqqavlo3K4z55RPXUVT4FDcVIv5kUm5Lfy15rNf+O6HSHv0mSx+a+ZXpoHn4GnJWTn4+KFEMmL1Lk9u/dYmIp8X+LIe0QKzIYinqks8BJQy4BaANOmXWGkSU1940zQFGetgHmZWOEQUbmHFZ9j+mlbK0XNGQyAYN401FzhVd96btcvN3eYP7yYP7QFZU6Uf8FV4e+zmkM8e6dPnTZ3OSWBOXa+gDnXCCubODOW8wSVDx4iXkMX8X5I5eT72jLyGpiZULywlOf8+KNSoRYaS5bcVpixmWrKITNwvPJ57xLLcpQAKheswHBhInf3xRf/5haIyBYyNuOYiMTJHnjoZwZgmbjwWRwAOqwaiFNmIWuhoqAKxR1gWuMdYAHm3kW9YASu1zZ2XU89/QuHC7b8oBgFAEwhk9nff2cKHylafMZ1VFxQw98CtgAyCzQg1UVVjfC6tO/Q3kq2kuceAHazsoWX37Cwct3hC08Bblpip0elxCAfFNC9IgDiCsViDGUVHjsJ7yg8FIYYO368u/fe+4y0k8lzEyqm9D9nzmzZUljWUQkrFJCGEIgscBdXdV/ikg0KGWVKwyYgEONQrlAoCKuFcx1vS8VzRUGDTAphjGpYPVV0o32HjkrRVDlf7RPZNlFstVkz3vVStb5GjQDsBu58qdJ7SnX9mbvs3zrg6f2EPkNO8Dew0vFIIbu4sjyyJXvAl7nUVZbzGOXP33LLbWY586whj9oy8haYWbQDS7nYXLuzvlYhjhVoodmLKcHAHjFyhLErb7jpJmMo5/LG06z99ddecfPl0o4zJkX97Hvvu99iZpRf5CFIZXCPABmzdLCOFVbAzUgMGaY11gMLLakhuVggsERoR4cn4JlfPGtAwnWFFcZQICDlQCCkjSTu68qAkJAGCyasfVz9uNx47yAg7qQ51AVwLm1mwqLCos0igis9tIgMmEvldQmYT9scB3SOSWEJgFkLq4CZeV6sRR5rHq8DihpeBs4PBSiXI/QYkM975513Wh58P8UHAetUhz3fAhTmC6GO/fv2l7Zh3VRK6goIgZVZnKkeI+rtmF/MA4A6UEoDxniYpomcuO/MHcCbucjcoOwp84Y0TOLTgDQ19vmObZk3wbu8MPLoAcx4YPDwnD59JvColIKygbNAmVAM8wRgRjmAaFYs1jrzhlLAwXYCcM0hlE7mYNSKcbryDy1nKi3ecMNNIhtOssYqkA+RJ3LN95GXwMyE4UUyPkzlRbKUKV1JakQ2LGVuKje3YMgQLSx3u8lauOlJe7l8xKgnA3m87737jgqOzFWsarNpvFEfk/0jB8vLVMGEfio9ShpVKiNkn2LpEDvG3QgQ48JDW6fJO1YE7rVcuNQCy6aFAfMvn/2VGzdhgl0WlgVzi9DIXLX/o9sQ+eS43llgKy5YYYnKvn37maz69OlrljIKDAtoYB2XurLNuglckqE7m4UmXEzYdygL3mGgh0CNPM0VKXlhCVFXHct5i+YCVj3tSeNU2KqbA1wPnoIRo0ZLoZuimOCNNneq+034Xfh88zwvXrjQiIAoSJAAuQfMGciCVMpCRkkdBiBS2ngP72t5wAsVuqC86TDJZ6BqB/S0mDzKHVZyqLixbQOFQBoIgEM3dgPtl38ja17hMULX9XkBNfP1vIVEFA6pMH94BlE+CR2h6MHJ2b5tu9V+iCOUlMl9Q6asQ3379lNHvAmWBTBY61QzKS1xcX8yOf/L/TYvgZlJg0sPxm6ZpSx3KA9tNgbF1Vlsx44f5x762cNiAU4w90muE9sBtc8/+1TAPEeL1RqrnZuN673cPgYXFLg775KCIpYp1c7aq1xnZYOFgYUA7RtCC+0r0dCpRR4CMwQqXHksULleVNGuAU0K5//s4UeMqAT4HVCJRmqpr1T+OOERXO3lz5cYIICLhQz44qYGjGGNosQEDUw6yMJpUQa4lckr08+wpGGJFykPFmAulEVfpGIaWEMUOsGjhIy5L7kYyAev08TJk939Dzykft8jU4oFhq5rFNEvPv/UiFJUVwNIcnUt2ZRf6OqmHWxXdZ/r33+AxeSZP9SLbte+g+ZltKVNkSM96Mn1RpmjqQ8hQKqhUbluHyQ6KX5Y1HhhcjmPqpJ9KEc8erfceqsU64mW0soziaKSzyMvgXnHju3mzsVSXi43I9YNYMDimY1B3hyaGE0cKBQwRC65JJSCY9H97ttvlDY1x5jnLMBxjEGDC9wdd95lngOS/dtr4ahsIH9cZjzYuN3p+AQQYzFTN5r4sVk61cRnK9tvVJ/x8KJ5G5lEtZ5xHaJQAHawZw3g5EplbpVXInAr0rgE7wEF96l6hdXTXi5HXJe4HEPCTlTnzn6RN0QwSpaygBI3RHlbvXqVzQ+ei1yECMJrRvFBgaFC3sM/f9TIOiyal4sF4nJFmVu8eJH79JOPlZ62xkAkdAGH+8/Xd2QAOQxAgb8yEGW3YwcrOYmFDJEJ2UUNLswf3NYBmVAxac0j0s7wwqDordOLd+ZVLudRVfcZ+WAdw/pHIZ44aYq78aabTUHmu6jlV9V5ZePzvAJmHkysBB7Uzz792OpeU0yA2GU2B6UocV/nqhRlVdfCtc4VyQ1XNpXMcPXFMYJKRneZy3fQoMEGQJUdF48F5TKxdAgx4ArOB0sHRYNrxMKjpjIxzcpcwoAMDd679+iuTmKDpbANsdz23oq7J6HgAc8B1j3pOPPnz7d3/kbZYBHOlbUZNnXA4wIgXa52NPKHHIgC+tGHHxhTv7L5lm+fMX/aqjd7rz693QgRKmFtQ2Dq0aNnUB9AYJzLwfy4cPG8WdHwP8iQwDNHiITOVnhhyKYgnJKruVSZfJArz99oKYD3iKRL0x3c3HyeryOvgBnX6BbF02hE8cXnn0mbW2tkBRadbA20rKHDhhvZiYUkF80bqroWFlkKElBoZM6PP5inoKpts/l5qsCMpUx3pSWydJaIQY7Vg7ss6ZZOSAIjjYlzxYqoSKJiXkDgInVstCoQ8U5bujataeoeWMjEjHM5eA4I81AfHtmvUErOt/KwkIaWy5ghrv1pV15pii5ubYCouhE+55Ac33vvHbPaqts+X77Dy0LYBDBm/lCIBCUFKxnPjUy8nF8KgEs/c+L41BCAfAcwA9Cst3jBIGsmybWN7HiG+/UPCpBQeW6klB5Y7fk68gKYmQQsOiw2xFet29LCBUZYyKbgjYyhhwT30qOPPS5SwUSzonLd7jC8RlxMxDwBZtJ3eGDiGAEwU/t3qizLgn+r/RueA+7fb7+ZZdYyTGZcYPk8AGMeeixpKzcpNz5FM7B0qpNDrq85bB9IZamvv/xSbu3FbqsKcRCjzcWAVQwxZ6rIg7fefrt5G6o7D0ABQtIyKXcff/SBechOS1ki9nxW6wCEuCQBQ3XXwnfEQgl/FKi5BYUxximNjPAHMeYkj3DdJb0qcG2rf728YISn8ChhPbMuJ8V65hnFOzNx4mTrdkZ5WMImhAXybeQFMGPB8LBS4OH999612BNsQqyAbI4wdkhs+b77H7T4IWBdD202AcMWK9VnxpL4RgBYpMU2joHb9vY77jBghgjWoUPlBVZQnH78YbaAea5ZzrCv83nwQEMOw/0Ks5jqb7jyyaG0vFxp6UkctqDK8seywcLBrf3Vl0Ep11wsouTldlbKGDXXH37kUavcVJ3c8FoQ18edCqdijUqgUmqX/HHCJeR2JzHmWdU1hc1gYA8DzAA05NKkKPxVnTefM5eIQSN3iJw7d2y3Zhs/zP7e0gdz6YmpeN6Qc0k7GyVvxJ133WPeiSibDFU8fjb/zgtgxp1CusQCLTCffPyRLTZoakyabA4KAgwXmQfL8MabbzatNpv7z3RfkJJWKi2M2Nusr74yt36m+0zl96kCM0xOanpTCIU4OBb9GVUXIk2D+wVjO7xvuQCIVK413AZLGZJOT7lhsZCvUts5qgzBMsaCzocBuBGvXbZ0iaXZ0YOYVDBihHGOkD1LC1EKueCRqk7hZW7wwlJbvXqVKaCAAj25jx49ZiQlSIZUQgvnFGAOWAMUvCAyMddyOZhDXCeM/WlXqPmNvC3jdO0QBfNxANBwMKhBQAU81qJtYsuTZYHxlO31OB0Z4eWClEl63lTxhHh2KfLD5/k0Eg/MPKCFhRvdF599Zov9urXrLFUqiknQp28/uUCuM2AmDkRMKEnDgE+t4QDmr774QtWPCmM5vVRd2QABKRaFhZssFk7eslk5AoPjJWo2oHgzrOxc5S2nKqxwQSU1jDaGWDo87B07djJCSb64xgAtFkyY2t/O+tpR0hXiZHHx/lRFkZXtWBQBKEDpqaefsYIjKDfVWYw898wTGNrHNW9wz59BwStV8rguSksy544fp0TnUXOvUmcdz80OWXZkAuRyEPeEpU/Tm5mqgEZ8mVQoYsr5OFhzCScQEoF4SuYFHg3Ihjzn8DKSMCCC9e8/wNbxO+++29rVMgfzCZwTDcxowZQjJCXqn/980y1RfDWKCcANY7EdNny4mzHzPls4evbqZW6RJEy08BxwTdLZCGuUfGYW3DhGquQvHlzAAAVivR5WmgoEwKxUKS2eWDEAM4spCytFMrBuCFOwiCaF7QlokJtMic7bb79TWvdIs54vl+YTx71I5xjEA+n3CzDDAcD7FHou0tlfur+B8AR3A49UUHO9eVq7CucZc8iAWfMnBGa8NCiEa2Rpky7G55CZcjHwuEDwIsMDYCY9Kp/AoSqZMXd4VrdoHs2e/Z21P0UZ57lPgqciVIhovvPAgw+ZQkTBlmw136lKLtn8PNHAbPmMShFauGCB++D99wyUeBizbS2jzUOth+z16ONPXCJ9ibSRpAHbdr1axBFjxqUP2zaOkSowcy7cGx5agPbEyRPmbkTBOn8e0o5c2Xqnli9gTGlAXGEoGKRYASD8HmsplwOlbNoVVxrRi4ebog9Yd1jS+TiwZHADQ6b611v/tIWUvGeepThHWWlXAVUvARbAle5gnvBCEYQMBikMVyuKXpEKrrBm4LrHmovbQxBeUw9V8UIJmarYOvF15lVtGDyfyJ26BHv3qA3q2tXilvxg6ZFJ8FSEHq/BIqrSF5xMgOrSPJN4TxINzHGxkAPSV1d7iKj0Rd/lJLo+iBduFBhDroKtSp5hHKMmwJzK+QAI5KOzYG4r2qaY1Tq3VHHQwo2brOwiVnUuBl4TCCR4Tu6+e4b1n2ZxhVCSz4OFlBfelrffess8LiygWJNxDmob33rbHZYPDwEKFm0UAwVvlTwEeJboNoeHABCPcwAOg3WNd8mVOmkyJX2pFZ5aKds4zzOTY4WKEWmcpEnSynLF8uwXfEr3HKmqNk6KNcrRVVdfo1h/n8SkpV3umhINzDBKP/zgfUsPwqoifhnF4AYS/0Gzvfqaa11vkTWS6HKqLcDMA407jLghFg41kCkosURpPd9/921saWAV51LYTWzixEluppp24HqlihcelXwfAPM2WZLfffutpbNB0IPlH+cwDsf06wyYR0fI4SBEQggFsHj9tVfNQxBns4vQYmNNefzJp4z0Raw5n1ypqc4LnuWQW0L44GspQsuXq5mQwDpbJZJTPZeK21ESF+IXpLsH5dKmjzNEROqLJ30kFphh/8HwffMfr9sDFlVsmUUX1vHNt9wizXayablVpQPl+mbWFmCuKMeg5vMet0gNC955+1+ydlb8W4GPir+J4m8sOEr74Xa89VbybQdFcZic7ZMUQxZPPC5ffvG5kfTiPBkq6k2ddoUBM1YM3ogoBkoIFayWKbXwpb/9zRR7wmKEWOIYQcGalm6SrvHpZ56xrmX160VfYjOOa6vuGFQmpPARYQQyAbCkowg9VncO5b9DQSIENXr0GKuFTxcqyuY2a5Yet6H8vqP+d2KBmcUZBulbIn2tVP5yFDc4TOOglu9DD6tZhVijxL3IXU3iqK3ATIyQOOhK3XOAeZEebNyRcbu0+/aDlX+9ub4o60ft7No0wqYXuHjfeP01kzcgFtcgTWjChEkGzFdedbU8U30iOzTXRXyZ+YQiApcBcI5j0L6RayVd5371MaefeRI9cNmWBc8rz+1yKUSfqMY5dSeiMKhqct6A80BlV1BDm/oUVHWEeJj0kVhghtxER6KPP/owklgqDwrl8HBbc8PuuuceqxqTZM22tgJz+JBsELGN2sjzVWeb7k60NYxzDNMCev+DD1rpyB49elpf5TiPH/WxrHCHQgc0f3n5xb/pfVHgmZBiFMegpOmYMeMMmK+VSxtFKMpB+OsLZS9QKY8iJdR7jmNglUE8os/3bWL1w9GoCyOMOdO3/Ksvv7C6E1SfQ+58l6sRzLuxuh/THPOOgkFJV5QSC8zP//45VyQtl0pS5CVmc3BT0KQgZAQW0hQjfFE8Isk3rLYDc1HYPUsWDmUk44yBct/xmDz9i1+axUxlJlyStWlgRRLbxwP1xj9eEzlqni2axPnjGDxfxPlYIMkPJzc8ysF8grMAMFO/Pa5ubAHpaIIBM5wVgKCuDACYPGf6xS+kINQnH1mXKvLPcwXOLVq0tDr3KEoPitw7IqHk3vJzJLHA/L//7//L2u+tEJGAilfZGizA5KlSInCUYg833XyL5al2UPEIiD5JHrUdmGmCQZyZAiqU/Mu2QlbVvYUMAghPnjzFPfur/2FsbBjaKG+1cZCa9t67b5uLlxraR7SQxjHCynp0baOyXn/Vi45yEOPEbQ8wz53zY2xNXyzdbpqadggIJmlORRVLj1J2mew77KdNaIoSyihFVHGLOzQVXsOldNgJ7pFHH7f2o2TiJFnxTiwwP/vMU+bKNDa2SnJmY4SWMrT5qcpTnaC8ZZi3xINgTLIYJ3nUdmDOVWUz7n1rcQtg5T/x5NNqHze21oIy85tn6kt1Z0MBWr06PhcvldOGqqwpwHyzGttTWS3KgYW8dOliy/unyxYWdByD2PnVV19rwIwXJl9LcKYrq4uymvHMkJIHEWy+OuKhIKEo5WKw7rO2k0d/t0KWKEuUSW2jUGZSR2KB+eEH71eeZdAwPdN8S2PniSbfslUrNdXu7IZpccDFRF1s3E6QNfJh1HZgDst5UkDlgw/eU0309bHcFvOgdOliLtaHH/m51deN5cA5OghEqB9n02xkjjwU2e/SVtVlhax3ukzdclv0rPcgn3mFeQaIedIVKY5B7Py6624wYMYrR4yzLg76gFOJjTn20YcfqhDJGkuRpDhJLgYK01WlChP12pOsMCUWmB+8f6YVQEDLyrTmrVlEKhKBhk6axihZyf0G9BdIU/u4Wd7kqdZ2YCbvEXc2rT3ffOMNS+2J4wHGWqZ0Iq7Hmffeb1ZdHMfN1TF2Y0kqhg/JjrzmoqKtsZwK7R8tHS3F9o+ZnhSkI8AABSTOErZwV2686RabTzCyyaWti8NKKqvOOc0u3nlH2RYKU9GMhLKduRiwsYeJlc1zftPNeGyiDaVkco2JBeZnf/G0dS1Jp7AIFjJxBYrFYyWzIHRTqz56dU7RosCDY2lRKsOZTyO3wHz5fsyZyhISEu39AOZXXn5JVYSWZ7rLlH5PRSb641LT+K6777Fc9pR+mKcbsTiuV5wZV/ann3wi1/bGWK6E55BqWKQR3Xr7HZfty5zpSTGX6CMcXOfHVsQm032m8vu4Kpylci5J2KZQLG1CJ7izV69aZe1Ic3FeEDrxkGKcUUObCo9gBa7upI3EAvP/+//8H1lPO1R4X642WVE1GQT1qbTTXbHjQQUFSl0YbCkLvdTCj1SGli2CXqj5Ru7JFTCn2vaxJveosm3JZcb9hSv773/7ixWIqGy7bH/WXh1/SGlBk779DtJbCrJ9iETtD7IXVjL5ve++8y+rUx7HCeYCmKkeCPkrqC0fjwJCz/K71A8YRQ+Fr1379nGIN7HHoMY/YSk8F3Heh4oCCYy15qoENsm6nI0TxwisSCK3KLHA/Inyl1k8ZoudS7nGkmMlqtxzqoxyj5aDoBEsBUGaNm3i6P6Da5om9gAwlYYK9JBgIRP3adeufSK1o4oTqKq/azswU0QGdzYu1r/8+U/mbq1KFtn8nNjnkCHypmghvaUWVvyqKKsSyXj37l0GzG++8bpZMRW3ieLv2IGZ2vKqhYACwnqyUXXm4xgFmkszZsw0YGbdadu2dtXIrqkMwxKpi+XKfvONf1hVMJRwCGJxD3CD4kGPPf6EWc4oTUlsw5lYYIZRGZZ4o0vMRoEz3Yig4pOPibWLa4JFFUJXF5F3IFl069rNddK/O3bo6NrKRdmyVUulR/FqkWh6fCoTNFfAHDSxiN6VDTCXHC8xi/kvf3peaRaLUxFLxtvANaC4CMB8o9LnsHJq8yBthfKcWDCvvfqKlUCN43rjBmYK1BRq3SA08uEHH6hZSjxkQkJmM2beaws/9cEpZFSXx4ULQV9w3Njvvv22vKDzHA2K6DCXi4FH444779L9mWZld9sn0KORWGDmhgW1fVfLDbLObZC2y99oWhcvXpC1HLCsOwqYScMAmLsKlIkh8Fk+xpAvN0lzC8x3GXBF2T7tzFl1nRJo4Mr+8wsA86LLiSQr30POoegAwHzDjeTXDsjKfpO6E8g3B2RNYkm+8vKLiuUvi+VU4wbmXLH8A2C+z+ZT0tNyYrnxpQeBFT/rqy8ttLBCRW7Ibc7F6NW7t7viyqvt/tCwprvauiZtJBqYKTpPfduSkmOmXbFo03OV8r5NcF0r/7RxY95Dd7Zc2SJ8NZF7O1+6iNRkQtR2YIbFacCsmOCfnv+jB+aaTI4abHvqZNB9CWB+SaU5ly9bWoNfp79pboC50Cxm+rnHlX7ngbnyOYJhtVpNVCCBfSEyGO04czGoQDeCCnQigV1/442uf//kKeKJBuaKN438N1oFMuibm8SgfcVzzubfdQGYseZ4cF94/g9usWo5xzHqmsVsJDsRwJBznCS72IFZrR+3bC40zwAVqPC8xTE8MFcu5bCJCu04//nmGxZCIc4cd6lOvKmUSYWdPfPe+6zwSOVnnLtP8wqYiS2HNzGpNPcob2VtB2YeUnq7Qv56/o8A88IoxVm277oGzOaJOnrU5PzXv/zZyDhlwojwH3EDc1CzeYtZzO++845Sp9ZGeHWXdu2B+ZIsyv+L5xuPJ73AX33lZSs8cuzYUescWH67qP+NV5W4MhbzY088aWSwqI9Z0/3nFTDX9OJq2/Z1AZh5cLHk/viH56wgQRz3sK4Bs5HsRLxBAfrzn16Ij/0ecx5zrtLCPDBX/9SuVaevt2Qxz50zx+1USiyZGHGOsHY2/bKf+cUv3XilTfFZktJnPTDHOSMyPFZtB2ZCFVhzAPMfnvudadQZiiyln9c1YA7bP8YdMojbYg6AucgsZvoy07wjjuGBuXopb92yxX3z9VdurhTDbDcpqv7IwbekTBEGHTd+guUzT1Tt7KR1k/PAnMqdTMg2MGkhsJD+8fFHHym/O568zCBdKnpWtnEIlDIFYPz+ud+6RSouE8eoa8B8/rxciihAIn/9Qe1VqWUcx4gdmEtrNUNyC4B5TRyXaRUGZ8z0rOyqhE071+VLl9pz/s2sWY4OZ7kYI0eOcg///FGxs6dZ2VRSapMyPDAn5U6kcB65KqXogTmFm5NHm8DTOHfurKWtPPfb/7a+uXGcfvzAfMTRsAMF5O1/vSWL2QNzHPf5cscIm1vYfTFPRjz3peJ5Ubf9nnuCQjD9+vW3uhcVt8nV3x6YcyX5NI5L3h89TrEAvv4qvm45HpjTuFkJ/klAojxvwPzb//qNWzBvXixnmwtg3g4wywMDMK9dEw8AeFd29dOJrIDDhw+5BWoH+fJLL5r1jLeMeRnnoF7BTSoohMU8bPhwK1QV5/GrO5YH5uqkk7DvqBmO2xFg/uGH7932bdtiOUMPzLGIOdaDsAgSEvmvX//agCuOg3tgjkPKyT8GHhsIiGRd/E1ZAQB0Lkp00gbyGrX/paY58WYaHSVleGBOyp24zHmwkG7dstkRk6GUYpykCQ/Ml7k5efo1luRvfv2f5uqN4xI8MMch5fw5BoVtXn7x7+a5oXwqhW/iHFT8miziF8A87YorHU2OkjI8MCflTlRzHuZ6vHhe/YlXu3feesss5jjTDDwwV3Nz8vgrD8zR3Dzvyk5NrsT8IeUxD4u2blVnuSOp/TBLW3VWGedRo8dYG9Lp19/giDMnZXhgTsqdqOI8cPvQp7i4eJ9bqqYOH7z/vlu5YoVy/+JLzA+AOfomFp6VXcUkiOhjD8zRCNYDc2pypSTnl198bsC8atVK64WQ2i+zs1XowaFGPv3B6QOQlOGBOSl3opLzAJQBK7pszVMyPvHlpUuXWH/qOEvZxdWP2QNzJZMgwo88MEcjXA/Mqcl1x/btFpabJ64DvJmdO3ak9sMsbVW+NOcMleYcOnRYlvac+W48MGcuw6zuISRGUFf2qKziw4cOW0/ZOT/+4NaoYk4u2qV5YM7qLU7MzjwwR3MrPDCnJlfLMlGXqXlyZX+trlN0n4pzUFSka/fubqoqgD34s4fdcHWYS8rwwJyUO6HzCC3kAweKrfMKBUTWrFlrpK9du3Y62tjlgr3oXdkJmiRZPBUPzFkUZrldeWAuJ4xq/lnWllPAHGf3r/CUmjdvboVFaGbx80cfcyNHjQ6/yvm7B+Yc3gKA+JxaHQK2JWppWaL2lsfUXACreKMavNPYff26dW7vnj2q1HTK3Nq5OF1P/sqF1KM/pgfmaGTsgTk1uVIjmxRQ0vbefOMNkVtXpfbDLG2V5GYWHpizdJPT2Q0tLJmclKjbXLjZLOMtSonatXu3XNgH3ZHDR4zkBXAD4nEn4IfX5IE5lETtevfAHM399MCcmlwhtR4oLjby1ysvv6gU0OWp/TBLWzVR6+A2bdtal6knn37GjRk7Lkt7znw3Hpgzl2FKewBUw7aGJ2QdHz9eouo3h13x/v1GeihU39gtKu5epLqx1MQ+qwR8wDgJwwNzEu5C9s/BA3P2ZcoePTCnJleKjGCYUJrzL3+Or8tZeHaNGzd2LVu1MmB+5hfPurHjx4df5fzdA3MMtwBQ5nVUbmpcN9uKtloMeZsqd5GPTEz5eAlgrdeJ4w5LOimgjHg8MMcwSXJwCA/M0QjdA3NqciULg05nQTOV37mFC+bH6hVs1KiRa968hUpyTnW/fPZXbtyECamdeAxbeWCOQMiAMJOOuDCAWyLruESa4X5Zx5TRpJsKOXykC+zbt9cAOYLTyNouPTBnTZSJ2pEH5mhuhwfm1OQaGiwL5s93z/3uvwXQc2zd5PM4hvVlbtbMLOb/+NX/dOMnTozjsCkdwwNzSmKq2Ubmsj510hLmtwiAiRsX6h1S1yFix6pwA2CfPHnCiF+AeJKHB+Yk3530z80Dc/qyq+6XHpirk85PvwOEqZn9xz/83oAZPk1c6yE9mZs0aWoW86/+5/9yEyZO+unJ5fAvD8xZED5uZ+IlJ0VmIGYC8ALAO+W23ly4yYhdW7YUGlBXl+5kGlzTpq6JXs2kyTVp3MThbqnfoL65eE6dOi13+BFHjJrjxTWBPTBnYZIkcBcemKO5KR6YaybXJYsXuT+98Ly5tOHe4N6OYxgwa63Flf2r/+GBOQ6Zx3oMwJY2ZrimSW/aLCJXUVGRgHivgLpE1rFemnA0pwdMK3PV1KtXz7Vs2cp16dpFr26uuxLfO3bs6Nq2aesaN2lsMee9avu4atUqt011ZYlLn4yp6LsH5linU2wH88Acjag9MNdMrkuXLHZ/VZcp5iM8HDg2cYyGFmNu7shjfvY/fuXGT/Cu7DjkHtkxANfTAmPo/tSspjPKHqU4ETsOgHmzmNbbzXKuCoTr169vbpSWrVoaIFOFBiDuJkDu1q2btSDr2LGT6PxtXGNZzhcunDcLnBZp1Mqm+AjHjWPECcxoy3TP+v1zv3WLFiyI4/KsyMAIVf1Bc77hxpsdfVrrwvDAHM1d9sBcM7kuW7rUvfT3v9pzT6YKhk4co4yVrefeWNnjPCs7DrlHdgxcyRC5YFcbECuGvE0N2ffv22eu7DB+XJVLJoxtdO7c2Q0cNMgNGDjQ9e8/wHUVILeRhdyiZQvXrGkzWcqlrmyBuMxsh8VMu8eFAixKdFJDO44RFzATEigD5t/91liacVxfJ90HD8zRSzpsGjBVCyFNAyj1GuUgpLRdzyUKyNv/esutXbMmysOV7dsDc5koUvrH8mXL3Msv/d1izBgbcXkCCRm2Lc1jfuKpp30ec0p3K0EbUZ3rpMhcpDMdO3rMkuJ3qOA6Luv169dZyzKKhOCyrmzgpg7jx7irSWpv376D69mrpxs8uMANkIXWr39/17FTZ1nRTWzbyvaDMrBW9bJZaD7/7FNXuGlTZZtl/bO4gZnre+63/+2BOet38qc79BbzT+WRrb88MNdMkhgbr77ykjWyKFbBEbg6cQx4PCiLk6dMc489/oQbNWZMHIdN6Rie/JWCmCiTSa3qrSoAsk4xZIqAQOyiag1kL3KPcb+cP3eu0r0F+XLNXVfFjgE5LIWBAwe57j26m4XcSknuLVq0MAsZaxogr2wQV16/fr2RJD75+CNzZ1e2XbY/88CcbYkmY38emKO5Dx6YaybXlWpk8dqrr5jBsU9eRzyScYywVvYUxZgf8bWy4xB5ZscIK3RhAR85cthqVeOqLtwUWMjkIldHvgJYAdimcke3btPatW/X3qzh3r17u8EFspDluqYpd3tpa2xHvDmVcVAVwTYqtkyLtI8/+kBdpzak8rOMtwmAOfp+zKEr21vMGd+ylHbggTklMdV4Iw/MNRMZnJnXXysFZoXr8EzGMay7lMKHkL8e+tkjbsRI310qDrmnfQys4N2yiAuV6rRC2txmtSODYX3o4CEje0H6qi5dKXRbd+veww0fPsIVDBkid/VAEbu6udatWyuGXGohqyRcqqDMxeQKmONq++iBOe0pm9YPPTCnJbbL/sgD82VF9JMNcmUxt9Ja3LNnTxUYmebue+BBN2z48J+cVy7/8K5sST/MQ0ZTI+2Jbk70BoXYtXLlCqvWBfsaMK5qBCzrJg63dFtZyJ06dzKrGFIRFmefvv1cu3btzE1dlau6qn2Hn3tgDiWR3XdP/pqbXYFWsTdP/qpCMHX845VqXmExZnFL6B2A4RPHaKv1uL+4PcSY775nhhlQcRw3lWN4YJaUwjxkYshQ9zeq3eI2MZ73791nrmypYdW/AABAAElEQVQmCu5tALyyASiTEwfLGjJXwZChbuiwYQ7XdTuBNJoZMWRizemCMsfNFTB7V3Zldz3/P/MWczT30FvMNZPrilJWNiG6gwcPxMbK7tipkxumdRpgvvmWWy3EWLMzj27rOgnM5BaTiwwt/6hSKoqL91tzCfofL1u6xMpnpsIOJD5MLlzrNm1E7OpqFvLQYcNdQcEQiyVz42sSQ77cbc4tMN9leb6DRFwjNh7F8K7sKKRa9T49MFctm0y+8cBcM+mx5r74N+Uxy2Imj5kaEXEM0lPHKXd5ytRp7uprrpVXs28ch03pGHUSmMNa1nR6Wr1ypZjWa43hDNP60KFDrkSkL6rPXK7kZUC372ggPHXaNDdkyDDXuUsXc1nj0iYPuSYx5MvdMQ/Ml5NQet97V7Z3Zac3cyr/lQfmyuVS1adU/qLtIxYzzX6qCxlWtY90Pu/Vq7e74sqrzOCYOGmysmR6pLObSH5Tp4AZsD1WcszAd5/Yf+Qh05x7g1KQilQs5Ii0tcoqdVWUvFWMsfKZXa0wyKhRo0zr6tuvn2vWvLm5rCv+Jht/e2DOhhT/fR8emD0w//usSP8TD8w1k93iRYvcC8//wSp/kcOM4RTH6N9/gLvhppvdVLGyh4uRzTqQlFGngJm8Y+LHa9euVVnL5Y4SmgeUgkSFIHLnqqrUVfFmURyEuOuIkaPUkWSiG6TqXR1UPpM4MozsTOLIFY9V/m8PzOWlkb1/e2D2wJy92eScB+aaSXPRwgXu96r0RylerOWquDw12+vltybkCOkLVzYFniCDJWXUamAOY8mQtyAVFIncBct6ldzXa1avVonLPdWSuireJCxlXNR9lYNMi7CxY8e5kaNHW3wZMI4KkMPz8MAcSiK77x6YPTBnc0Z5YE5NmuH6TP1/gBnOA6CcitcytSNUvxUZMw89/Ij1Y+6ieDN5zUkZtRqYcYnQ0Yma1vPnqfmDQJk2jLvVcOLokaP67lSNtDNL91BOMoA8bdqVboAs5TYifjVVzdWoQZkJ44E5msfGA7MH5mzOLA/MqUnT1mcRvQDk5//4B4flHBcoc4ZjtI4/9fQzVmCEdZza2UkZtRKYueGnVNv68KHDAuFdVrx+7pwfLS95nwqF1LSyjJXUlJuanDfcHuPHT3AjR402olecN9IDczTS9sDsgTmbM8sDc2rSxGiiPsR8kb7++pc/uaVLlqT2wwy3gpDLmo7X85lfPusgflXXoyDDw6X181oJzCUieNGGkQIhaGPElHfv2mXFQ6ymtVKlajJoOtFXVHos5enX3yD29VCzlOPWsDww1+Supb6tB2YPzKnPlstv6YH58jJiC0KM8H7mz5vjXnn5JSPipvbLzLYChKnASJvXx554yixn0lrj8Hqmeua1CpjJf4PIRcMJ6khD8KJF4jbVtsZtfbn0p4pC40ZB5oJWP2nKFLk8prhJk6e47iq1mYvhgTkaqXtg9sCczZnlgTk1adIcaOfOHWY8/fPNN4z3k9ovM9sKnlAPSnHK+3m/leIckdkOI/h1rQJmUqAAY+pb0+Nzi/okH1J/TzSzdEgF5sJW+hNu63tmzHTjxcCmulfz5i0iuBWX36UH5svLKJ0tPDB7YE5n3lT1Gw/MVUnmp5+zNtO6dp4s5g8/eN/SVn+6RTR/Bc/7CKuRTbpUf7XdTdqoFcCMpUzFGKzkOYolL1u2xG2QG5tUqEwG7o6espYnT57s7hYwU9ULCzqbRUNqcn5cD+leuOc//uhDu96a/D7dbYOSnL7yV7ryS+rvmEe/+fV/WowvjnP0tbLjkHL+HCM0pKj49fVXX1p/gjjOvpdKJV955dXmyibOnKTCIuH11wpgpukE1WOW6EWyOv2S6RCVaQUZXNjTrrzSTYXwNWGi3cBcgTI3jFaTFEMJgNn3Yw4ncabv3mL2FnOmc6j8773FXF4aVf97x/btDlIuwMyatnPHjqo3zuI3g9TP4M477zI29kBl1kRVYjiTU85rYA4t5fXr17nZ338nS3mpuUZwkWQyiC1DBsBCniFLmbgyWhY1sXM5qOm9TkQ2Std99uknutaNsZyOb2IRi5hjP4i3mKMRuQfm1OS6ubDQffXl57aerVq1Uq1196X2wzS3Yl3HsCI0Sf9lOEMo5RSGStrIa2AOLeXFixfJUl6oSl5brc712WraM6ZyA8J+yljJP3/scTdB79y8RiowksuxTxN3tSYwwPzVF59bSdE4zsf3Y45DyvEfwwNzNDL3wJyaXOlR8P6779h6tlV8IMKRUQ6MrSZNmlq1xiefelqcoUmOfges90kbeQnMpDxR15puUFjKS9WdBBJBppZyeHOai/DVUSU2J4tO/8jPHzUNC22LVy7HHrnsl8srMF+l676ZNUuKyJZYTscDcyxijv0gHpijEbkH5svLlUIiEHVff+0VA2asZUi6UY6ydV21sR95NDnremXXnJfAjKUMQBFTXrhgvtjXW7JiKYcCCkgqBUanv/W2OxxxiFyDMudGGtiihQs1kee4H2Z/77YrDSyO4V3ZcUg5/mN4YI5G5h6Yq5croHzh4nnjA/35hecVX57n4mhegbE1VP2X4QzddMstYmMPTMS6Xpm08gqYyUPGWoZ9/dWXX1gJN/5NHexsDlh6k1QNZrI0K9qCEV9OwtixY7uBMq5swDk+ssRgd/sdnpWdhDmQzXPwwJxNaV7alwfmS7Ko7F80Czpx4rijRvZf/vwnt1jGRjrprJXtu7rP6Ld87bXTbV0fqz7M9GNO6sgrYKaUJiU1ly5e7D54/z25QlbIUs6cfV3x5tC+8brrrpcre5obPXqM69K1a8VNcvL3tm1F7sfZsw2UF6quLNXM4hg+XSoOKcd/DA/M0cjcA3P1cqXf/Z49u42J/eY/XremQlHXyMbjOWz4CPeACooQosT4atWqdfUnmsNv8waY0ags702NKLAWZ339ldsqF3YUg5jqbbffYXlugwsKXIcOHaM4TI33ScGUb77+2tILVqiACt2x4hgemOOQcvzH8MAcjcw9MFcv12KV4Vwv4pdll3zysdsUcXaJkXlF8qLHwaMi80LqTQKZtzop5QUwA8q4sal9/eEH71lMAuITBLAoRoE6SN19z0wD5n5q8ZiUPp2bNm50n2oik/fHxKbObBzDA3McUo7/GB6Yo5G5B+bq5Ur+MsaVvWLIX26hdo5du3az9Kj77n/QjRgxwpjY9ZQ6ldSRF8AMMYCqV0uUFvXO2/9yy5cvc8flDiFWEcWAIHDvfQ8YMFNkJNf5y+E1rl27xr3zr7eUlD/HiF9Hjx4Jv4r03QNzpOLN2c49MEcjeg/M1ct108YN7tOPP3JzBc4UTMq0QmP1R3PWBXDUqDG2nl+nJkT91CUw6SMvgJlOUcuWLhUDe56bLTYyLmxaO0YVlyAW8eBDP7MG2t0sFtEqEfeR+t8v/u2vpmkePnzIiHBxnJgH5jikHP8xPDBHI3MPzFXLNUyTevWVl60ULEWTok6TKgtNisxrocmOyQhNVi0l5xIPzLixN0rD+uyTTwyQyF2mmUOUY8TIke5nD//cgBniF66QXA5kgHcA9uKf//S82Izz0+qWle41eGBOV3LJ/p0H5mjujwfmyuXKGnby5Albx15+6e+W+kmWDUZWFIPYcjPVpBgzZoy6SD3kxinGTPlNiookfSQamAEkbtoyFRB5+aUX3UIB0pEjhwVKpyOV68hRo1RY5DG5Pqa5Tp06ueY5LtkWNhRfoHy/v8tipi44sonKY1BRuB6YK0qkdvztgTma++iBuXK5Hjt21O3audPSpP711ltq87jKuENRrWOtaELUs5dKKk92d919j5VYbqzqjVQAS/pINDADSEfVX5l8txf//rfYACkEZvKYk1BLlYYcu1VcBLLEm2/Qt3RVrPPKA3Os4o7tYB6YoxF1wZChbsbMmSIbTXOkXrZt2zaaA+XZXskiWbF8ua1jUWbVhGIhJYpyyqzjV151tevdp0/4VeLfEw3MsK6LirZavtu777yjBg5rYrESh48YqSLnD1u+WzclobdsmdsY8/79+6yJOMD8xeefOYq/xzk8MMcp7fiO5YE5GlkPLiCrY0aQ1dF/gGvXrl00B8qzvbJufaka//PVf3nVqlWRNq0gbxkS7z0z7jVg7iNQbpNHClKigRnSF25bFpBvv/1G7Ry3xjIV6Sp1vxLRpygRvYdcIfRlzuXYJuXke9UEh40NMx25xDkGkdd9x50mD1qmUbI0ihHG0rnfz/32v63cahTHqbhP3/bRt32sOCcy+TtQZO80QIjyecnkHOP87YUL560F76qVKy2rBo4MBUbIrIliNGnSxDJpiCk/8OBDbszYcTKuWjrc2PkyEg3M1hZMGta8GDSs8jcsiBHdK/LXNEcZt1xrWriu3/rnG0ovmOt2qWcpru04B7XCqRmOolIga6BDRKxGD8xx3lVnCu9vfv2fxo6N48hBDfohqlU81d2qAj6wZaMcRxQG265qeSh6byvNcO2aNVEermzf/QcMcDfedLM9L8OHj7RwWNmXdfAfp06ddIcOHTLS1xuq9EV7Xkhf5yMifYU1sSerXe91N9zoBgwcaHnLtHzMl5FYYIYQsGb1avfWm29YTIIGDnEBUqjxTlFsAo03V420zxmL8aSs5MXu1VdecovU2jLK/O2qJi0T+5ZbbzOW+pChw1xHEeKiGB6Yo5Bq1fv0ruyqZZPJNyjz06dfZxYz1lqSazJncp2p/pYsGjJrmG8fffiB9TpI9bc12Q7gxSpGMbr6munqdzDJDVeGTefOXWqym0Rsm1hgptLX0iVLVOT8BWtzSJ3sqAqKVLwTfVXt6/obbjAgGjl6tOvSJTe1si+xGOebC4hezFHmb1eUQ/h3mQUgD8JwVc3B9RvF8MAchVSr3qcH5qplk8k3FCWadsWVZjFPFCO4R4+emewu739L3YlvZwWlhLGW6Q4YxWjatKnF81GG7p4x041WmlTbtu0cn+fbSCwwnzx50rpH/fH3zxkrm0U7Klp9xZvWo2dPPVTT7MHiHcp93IPrJQ6zXIVVIH199+23RoSL+zw4HmVJcQnhghw5arRV0oniPFDGUL7my2X/++d+62PMUQi53D6Rs7myZcnEMcJ2qrCVqUWPZyrKkStXdvfuPdxEWWsBG5judPnDBs7m/Qi7AWJQvP/uu27hwvnWeIcmFtkekL1wYQ8ZOsTkftPNt5oLm8955dtILDAX799vRKc/qaDGkkWLYgNlbmBnWYQjRo4yYL7+xptcfzEr4xyAMpN6w/p15vohXWzz5s3usOI0uRh9+/Zz06+7zmLuo8eOjazbFt4AUuQAjD/+4TlTzOK43rpI/kLJxWL+r1//f/Yeh5wJCQ1WaAjAul1kwtoKzHjYRslam6rrnH799Q4PXF0cYTdACiNRSnnliuUWW+Y5z+YAeHFjw39B4Zs8ZYrrr/Bbu3bt8xKUkU1igRkGNoVFKKixXO6POEebNm2U89bXgHnGzHsdeYlxEgcoUUeDCq7//fffdXSSOnr0aOSFVaqSMfl/V199rckDpmO37t2r2jSjz88IlOER4CH461/+ZKGMjHaY4o87depsLnrIbZB2aKBem8dFp/8AZilA//2bX8cHzO07uIGykuFu3HEnwFwQqZhzZTF3FDkSLgbXebO4GZAn69rAuIirG2BzVfeC9zJu3HhLU8Or16pVK9dY7Ox8HYkF5jXKc1uhfsuvv/qyW6lWj3EO6PYwsWH1PfbEk4pVjLVqMXGB8+7du6zn9MIF892cOT86lBRcvEz2XIyevXq5adOCmNkkyQRXfxQDYhvxJ7pn/eP1V61PaxTHqbhPHuphSpEDmEMXWMVtatPfgPJ5pbBgMf/2v37jqCgXx2jXvr0xsQNgvsvqFkd53FwBM3FNGiXgGbhnxgxT7KO8zqTtO/T4xdUNkBg+69LkKZPdhEmTXS+FHhs2ahSrMZXte5BYYKb8JmlC/1SaEOzsOAcA3EjsvrHSwOjfSbyodes2DsCOcgC+uH82quPK1+o3vXjxQle4aZM7dPBglIe97L5hlY4bN8GA6+prrrUUssv+KI0NCF/QQYt87S8++9QVFm5KYy81/0mZhSNgNgtnYO22cFg4z50/Zxbz7377X1bqtuZSq/kvcC3C8EcBuvOuuwXMQ2q+kxr8IlfATK9fauwDzBQqGqGCRabU52GsswbiLts0rm6AWMTUmBgq78QNCjmOHTfOqnu1aZP/ldYSC8zffTNLlb7Wunfffcd6D5fd9Zj+wYOEC5saq1jOaMBR92U+TKUzMRiXqKgKFXLWqecyRImzZ87EdNWVHyaMDbKg3nZ7dLHBLYqjf/3Vl9YObpW8Jfv27a38hLL8aYcOHXWvhxhg3Hrb7ZHn12b59Gu8uzKSnSzm3/8uPpIdFbDga0zWPLrrbizJ2gnMjWSt4V6dKOvtyaefceMV/uGz+nlQo7nGk6mSH8TVDTD0dFF2k5Kb/QcOkNxbmKwrOa28+iixwPz5p59Yr84PLe9tfU6EiosEIgGaLy9cugB2tll+ZwS8xxRD3qZiCCvUa5q85YULFxiDMScXXuGgLRWv6a648tSpV7j7H3rIDVdbzGwOig0cOnTQXNefffqpcQqirAxU8dzjZgtXPH7cfwPMRrITMP/hud/FRrKL28WbK4s5JCORtvPY40+YmxWlPh/TdmoyN8+dO2ctHDdu2OCohb1YdRf498GD2e0GiJsaxWeAuCAAMorPsOHDI0vjrIkMsrVtYoH5w/ffs6T0Tz/52G3auDFb11uj/YSAhOY7Y8a9bphyeKPoTgLRi3jM8uWkRs2168Z9DWAlYXDNdGohdezpZ35pLqNsnhcaNqVGF0kZma8QRlHR1kgrA1U899AjgPIVB1u44vHj/psF9LTmFjHmgP2+MJZToJkDDGXkfI/yTKmwF+XIFTBzTYAzHoG77pLHTdfbT0UvanvNbAiqO1WZkDLKrNuEIEtKjlk5zmze59aQc5WCNk6ua1zYEO34LOpQYzav4XL7SiwwhxViPvn4IwHzhstdRyTf088TLXeYLERiYuPlMsFyBKQsZpTmUS3GV6pdkgIFEMG8XiZruTIXLscCHHnYWVSxeOIkgnF8Yu64jJ565hdu4sRJ1tMUzTWdUfH6N6rH9lyR3Jar88zmzYWxp4W1D0lJcrHefqdISYOjZQunI7Ns/oY5RJ2A+WK/P//HP5hlk839V7UvYn9UxSIkQrYDC2qUI5fAzHX16t3bXXHlVabQ8szQ7ag2DtYjvH67du5QJslStwDS6o8/uB3bt2f1csMQAXKFkDt+wgSFGafWSrkmFphxhaxXjPX99941azKrdzjFnQGE9O4kL5GKV5DArhL5iYIbgHa64MwkJna8rajIUqLWrFltLh96lVbWbzqsaEOMCnIYiypx57jBma5bNPeAAckiQ0pCOuPS9W81t/0qse7XyWMAGz0XJUfjJiWlI7Ns/gaSIQQdLOYXngeYF2Vz91Xuy9IQZekQY5557/3W/afKjbPwRa6BmZryQ8RTgYV+i3EXaiepkPWIspsUEvlcpE0MDLIrst2kgvmDYjd69Bh39bXXGumrvfghzZo1y8JsSdYuEgvM5LLiCvnXW/9U8fl4WdkVb1Ez8uT0kGE5UwOXeAYPXetWrc2irs5yDK1DXIcnVcydSUyP6f379rlNYlxD9MJVXzGmCug3bdpMhLO2VvCELleNZaEelIt779695jKiZGecg3zmq66+xhqPjxo1xnXr1s0s6cspKJaeY3HNU3pYj9s1AMIbxD4nDsX1Q/RC6cjFCF2sWHK4WCH91eaBYsSiCTD/mQI+4jTEMYLG9aqqp8pf90nB4zmKcuQamGFnd+7SRR6mye7e++5X0aKRrok8cCj7tWEYV0Hr2j6tZWSSLFI46vvvvrFiSNT5z5bhgKXcQt2hestSHiNLmVoKE2QkUWEN46k2jsQC80qxcrGkXn+NfNZ485gr3mgeJKj5gDPWMi64saqARepH167q1yzLsbIJwsRk8gKg+/bsNYtwp9w927Ztd1u3bHa7du0yTfOovi/fbQWgwyJn4o3RcSBbDSooMCXAkvYlm6+++sLBYo5zhAsraWQU4iD3Fy2Wxaa6Ya5TKSUoI1vUk3WDCCGrpF0Xbd2iQioHTD52/ZJVLgYpFz310GPZ3Hf/A7LkogWMXFxj+WNC/CIeiCv7r3/5s3ltyn8f1b9pvUfqHTHXh372iAFVVMdiv7kG5jAURsGLe+97wE2YONF1Us58cwF2bRgnpEjvV4ojNSdmqRb2ypXLrSUtRYKyBcrICeIcbP4xqqYG2QvFmZz42mgph/MiscC8VUU1lqvy1Yt//1tsC0colKrejQQlKxnNjQLpAwYOkku3uxVKt3QIASrjwgUVcBDIAEhnzpy2BQLXDlYi5IgdvLZvc6RHMYGxKBkAMvsBAHGfFxQM1sM82YCib79+Rm7AZQRR6q1/vmnsZaqEcZw4RrjQoJBgOaMwkK8JsHHeDRo0NAUltJCRgblNT56wa0UR2Vy4SW77jW79+rUG1OWvP45rqOwYaONcB8D8s4cBjFGVbVZrPgvzTLGYX37pRcsEiOPiWEgh2uGZeOzxJ90ouSSjHLkGZq4NhR1lfvr1N1it+eGaW5T8vZyXKUq5ZLpv1htaOe7ZvcfCjaxHs2fPNkWb77IFypC5qB9h7mssZZG9xo4fL09dNJUHM5VLNn+fWGAGtKixSgwMtm4IXtm8+JruK7RkoepTGQxrsZWAGiC1AiQiSDHOnjvrTslljdsa4OTFv4PP9Dff6TNAq/x1BROxteXRTrviCrMo6FTTQcXZcYtxfNyQuPY/+uB9NfeY77YL4LF+4hgsMngPsHyoL41F31cxH9qqwYps1qy5fU9jdCzgE8dPOLwBpEsQPz9woFjWcYkrkUaNFwHLrfz1x3ENlR0jiOG3N8B4/MmnjFhS2Xa15TMsGu4HwPzmG/+wQj5xXFvoksRi/uWz/2EuySiPmwRg5vpIE0OxhpsBiRS2Ns9RvoIzTGsyKVatXOm+Vb2JVbKYLRSl8Ei2QJm1hlK5hDsgesHvIT2qLqSdMWcSC8ws2tDu//zC80qhmfcTVy8nnoTBgwVbGaAGoEO6fthHGTA+KWuxIgBXPHcWLNxbuLl6q0b3SMWiaBvHRKys5uv2bdvEepythXWedWDaqUU2boDjwcFS7iZw5rwDYG4WAPP5C3a/jp84LgA+psplB0QG2WupE3GfZ0VZV/a3yV/3kIUT1jl5kXgH6un+1sYBT4G4/vx5c9yHH9AfN546AeHzQsGeXwiYSUNE9lEBVFKAOVRIRquF7D0z7nXjxCamExLrRj4N1jWMDDxfGAeLZSnPFfu6SCTWbHm+mAushdQWYP3jWRw5apR5DaPqA5/Ee5BYYOZGE2d+/bVXrKkB5RqZFEkbTKQGWsQbGUs7IHVcvBjElnHl8rqcFon1jeU5bPhI0f8nW6lC3F2AcmU1X48ePWKpCHSdeuftt83iydaDURP5suBAUEMh4d9YAQA24Est5vPn5MqW9wAGORZ0XC73mlwD23LOADGkkqdUqQmAxkOB0lUbB9YODVLImf/221lyQW6N7TJ5XuAoPPnU0ybnKPNPkwLM4fyCPEktAOYX6VNRNYOJ6mZCWsUooHfB7Nnfu3UCZ4hfkDazoXAzN3jmyFGepHUQotdgcWvwzOGVDA2fqK4vSftNLDAjJFi7H334vpVoTELN6GzeOB5WYm6k6pCXh8tmpOJPLFqkIlXn6grTXei6hSsSZjOuf8DPj/QlAOv+gQcfMpd2kA7WOv2dJfSXKHBbRbr7btYsN1eubPLn9+7dE+vZUlhkxsz7TM595CFCMY1iJAWYw2uD/U9pX1yzV4ujUSA58PwTSmE9SOJgvuD5O3z4kPFjKJO8XOlQhBl37NieFUuZtQ7+DkpaV3E9INdeIY/h0GHDjCzYsmV6aZlJlGeq55RoYEY7+/EHXLZzlLS+wOJiqV5YkrfjIUQ7pEvT+PET9aCOtslIyc92ikc1FWDzfVUD7RTrEyLV119+aa5+cqHxKviRvgQgmVx77XRjDaMgwSCuTYNFFg8OzWHeVhoiISLcksT84xzM86nTrjCyHfHmqLqVJQ2YzaUtT0wvWYRkdeChGS+mdpj2kzRwZr6wzpBJslyFQ1YqpowLm9LBVCYEsLNhKWOgUK+e/tyUQB4uz2GvPuLWyJ2NRw5vVl0biQbm4uL9br00tHmKpX7+2ScWF8vGRMjVTUYzRDsmHt2h46Wm8VjLuLlq2hWF1ClSyShj+Y3SFbaoahYLbz7LKFf3huOGzSyoKATrnD66LVq0NG0+l+eV8bGlyLHI4nLcr2dqqfKWP6DPt0JFuSjoEqa/jBPD9jqxlXFXtpJVlO3+uUkD5vA+hoUySKOiMliBumwBQsRWjduQY+vZ8tyPl6jeQkDcxFtJPBlQ3qqwxxF55zIdKCGshVjJXZTrjeckKOI0xUGUg2CKFV1XR6KBOUzrIJb62quvWHoQC0y+Ag9xSxjMLPiU98SlF7Cu9VA2r3lXFDRWiDy4sv8plzau7STHcpP+kDVuHLSRgzU7/brrlEM+zvW3Gsftk37q1Z7fBSlrhD9g8C+U52mR5gspLqTuYRHF/TyFZKjBspDwUOCdGDS4wIr2VHshNfwyqcDM9UP8IsY8ZMhQN0oATR/hPlLOKWbE97kazAUaylAjgQYU1BvYrNoD8BIO6nNyl5lLmYzQY4jberiIrrTFBJT79O3n2rfvYPwOFJTqvIaZHD8ffptoYMb6Q3vDjfLaqy8bA5lYKoztfBjhBMRVQxyNYiTkNA4VII+VGwvXaSaaYeiaRJN99523jaW9U3GfuNKn8uEe1PQcuWe4sOntSsyfeBd5kyykFFKBgIImz+KJB4TtkzJYVHlmAFsWzzN6TlDUjsv6OXL4iPW3Rslds3aN2yVQhjGfy4GlRC4zrFty4rv36GlyxpJq0hQ5i1TIAi05p7NIJxWYQ5mHijpKySSlA1FECNIncWeIn8w3rjuyOVbqSTlNJTgBLvOEsAb1FjZt2GhtZwmR7Va4IxsKP2CL4kHFRAqE9JNlTAElCvrgxsZjFdm1hkLPk/dEAzMLDeBTuGmj++Kzz+TSnmM1lenGlA+DhbtJk6auh8hco1SQhMVnsB5CiEV0mgldV+ksOuH1I5/d0maXLllkLNsfxJakBnfcVlB4PrXhHWDA3QpwEA/FqwFTFMAmNYymF63bkrctLkC95IAzgIzSyuJ6+MhhVVUrNkuHdLqt6vO9Q0obc+WwLB+8LWyfy4GSAyGKspWhnJE1pV75DOuJlDw4FzxLNX1Okg7MXJOFtnSNpE9RuAgvGq5tXp1lUaIEsl0UI/SkFGueQAjESmat3SbPCmGygwcOSsk/YqCcjRBZUDmwl9bAwVLGRpvnkKZAFJ2B4FWXWNeXu5+JBubw5GGN0qcYN9zs775zW7ZsNosAUEriMFeV3NYQuVhgBg4cZBYYLtJ0YsmXu0Ysn927dioFZqkVkV+9apWxtE+f9izty8muuu9ZNFGgqAoGMHfrDjB3NmDGA4LF07hRkCrWqHEjS/VgIeV3WAZNZPGxqGbLCgiB1+quC1hPq6oclvG5M0pJ0zugTEohxVvwLLHgUoN9546dSnMpUoGXA9rmlFnV1V133N+ZIlQK0AbMWqxRikJgpjIbi3ajRngqlJqo91DOeDKITVcWm006MIdyZn6gdFDylzAXyjtlJ3uKHAqYocA3EwmKayZ9kmtlXoXvVVnVoQflPB4UXpojpC4yT7CAqbFAMx2qErKmFsplXVi4qawBBdtnMkLFg+cE/gyKLaEhlA6q6/WS0st3tTUtMRPZ5QUwo90T9yD3Epctrm3ctUl1aYd5yUFN7XEGzFTKaiMrK51Y8uVuMAs2MkLjJeF/oSqlkQNONR4/0pcAC14IAAAtFjIAgYuVzwEFXI6Q+bD82rVvZy46gBzmLYQeFlQW0GwMI28pb5SFFDZ1cfF+60aGm5quZCVqEHJCRV0A3zMCa8rB2gJ8IqhAx98os0nzpoRyRrbIFAsZT1OTJgJi5KyKcgAUBLHWbQJZA9rEKJEzgFZZbDZfgJm5ATgzp6i7z5yikiDXRRwaDwLhFFy9fE/4CzkB2KYc6nf8vqICGCpyEPyOab1EHoeU9kT2Bp4T1gfq18NTQZlDwWfb0G2d6Tzh3ODUkCJGuGLgoMHGQO/YqaMBdXPdZ1Oo9Jz58VMJ5AUwM0EuXDxvcY/PPv3YSlHCFMQCyIaL5aciqflfaIa2UGsiwrjs0aOnld0bNmy4YmijLXbG92wX5cB1uX7dOiP2fKcuLxtV3SkbZI0ozzlf980iCJCwSLKIooxhXRM7AzCo4IZ3BKuAmCHbpnv/A5LfAatNTOOP7epzu0seEhZYFlt7yUIGuJNoEWdyj8vLOSx/ixIUAjMyNjnLDdxBYI31TcEfRq6BmXMHeEKLFqUIsEzF08dvce926dpFr24CNIC5g4F2AMwtTMlv0bKFXXPDhlRQC4r72HqpY2HxArKALYYMBUIgcB0oBpj3GDCzZmA1Z6qwcb54ClGQWojIipcDAMYDgscQYIZTwzNCCpQf1UsgL4CZS2CyUXPZqPuyCL/66ksrQBJqd9VfZrTfYkmhzTLxcNEUiMTBv2lEwYJtscgoSRyllwdRDs14nfpYfy35wLzdmqX0hmglmJ97Z8Fl4WVBCtyrgTubmuGtWrW0Cm7Tr7teXbiGWb1zrJx0BnWtqRe/YsVym/O4pwFryF3mnsRFqVe46Gdq6aRzjlH+prycASDCBii6eCOwygbC7p4+PWiqomcOUGDkGpiZF9xzPCwoZdwjLFOe01QGcwtFAxIYawjXzPXzecOGgSubvy10Qp16fRaCPy7roOpe6dwonSNnzl5yZRMS4VyYN5nMGUCZe4TC1FNA3FdrH+U0WQOx+GmRiyu7RQtk0VjbRmugpCLbpG+TN8CMIFmIcLfQmWjW118rPWiZEVoOHzpkEywVTTQbN8QsZFlALfTQ4WKDuEE8iPjJiBGjzHWTy/Zu4UK+VK7/FcuXW0EAADuprv9s3JMk7SNcqAYrlnbb7bdbCUZih1h56Yz1UrTef+9dN3fOHGsXSvzYj0ACyBqL7KZbbrHCMEPFog9rKucKmENABZDgJtDEAiDl+TuktYo1jPiuNbcRJwDjAoBMZ/0qs1QFzBz3gsoBA7QGzALjTC3hyuYZ6x8eIBQGwgwoR7jYYZTjKYJtDTBDcoXYhVLhR80kkFfAbNqgJhuTu6hoq+Koyx0sZNy3fMYEj2PgriH+Q1I8ZeNog9i7Vx/ruIQrm4nKpE3XdZnpNYSuT/IPIcyhwKxdG1QGy0QzzvS86tLvWTBhGlMbeYqqGQUVrnqlJQKaufz1L38y1j0KVqoWV1oHy8Mf4ealLgAypjAMrm1GroAZVzOWIvm51yhPm/xcTQcZFmeM5Ux96R07tlu9e6powRnIZP3CWmWtYc7RQPai3NghIGf7eecYeAFQOuBS9OyhrAWFEfrKOiaEg4eQkANei9DKz9U6aJMgT/8vr4A5lDEuIYqPbFalqzkiO61atVKTfIfFToiXhO7tdDTQ8Bi8MwmZ9LiimssNQ+wEwkX7Du2NjIFmCMGLd9zWoQut/D5y+W8WgLWrV7vVkg/1bekCQ9WeQEa5T5dJRTbcA16Msn/zWfCBvZd9Hnyqby6aa45FqaoXP496UGqRdnUAxpVXXWVEpXSOuWTRIvfCC3908+fOMSuL+R/1CGVa3TvnUF6+F5B3Kbks/Dzq82T/PHukI06VnKdff73rq1oBjFwBMxY7/BKUsptvudU8aZxPuG7R/hRghisAW57iHfv27S9NTTptnkEY93gIsbL5XabuZo6f6uCeY31DvGuiF6x3LOTQZR6muAHEPXuWphNKGcI6joNLk+p15PN2eQnMPPRM1JKSY5ZvB+BskNW8ceMGi0HvkQZak1hOVTcQTQ92KKQLXDTETADhHj16yjruZLmuJMtjIZcnnVS1v7g/56GG8LFfJKEdWgSQDyU8rZKP4pS41JBlUgcLRGgN8E5sqn4D3oOiC8Fnwd8N+E6fM1DIrLuVim3Q4QqC4Pnz50rfg25fcVw382X69OsMmKkiRrpIOoO+t/94/VXrsoZ1BckrylFe7jwDVb04h0C2gYzPlRY3IT2Hf5MnG4ec8UxMU9ODKQJmOjeFtbdzBcycD7XAp069wk2St4Q6Boxw3YIdfxKmfKk7Gy8ItadJbzOmtJ5XSFn8DWsaxj1u7zgUMs6T2DhGBgCMZUyoDg9hVylAeAII0xHCa9FCVnHzZubOxmAJ4scRFkTh5OrIyEtgDu+NLcB6+A+Knb1ly+YgQb5wk1nPxcX7y8CZCR0s0OHiHLh6sKzouduARV8LkGmJmpRMsKYCZFzWMCOJnbDIUjKvb19Zx9IUo2xXF15ftt4hebBIbVNTkNUAszwNO5VuQwraqZOnLB5lCyytGtVLGbnUr6cHTCzPAASDh004KZuU/8OK5ex4D198HPw7+Lzi95e2q+p723XpPvk1xwYU2G8DA+QAfO2cdG71dI62Tdl2ATBXbLtZHjz4N/OGFwtl+M6/K39puwtkBVT1/aXP7YpLzxVSDnOGLjlUEOvTr58tdGxT01EkAt93335j5C8ULDr9oJhe0HnpcEisTPbhPbB3k1Fl34X3s9x35bYN5Y6yg/x5NkJwblj6bz5jAL7ItAyUUYCkDAXnF8qZ90BOzK1A7pfkFsg9uB+X7kEAZJf+ZvvgXqBKhnOiQYOG5kqdIkAeYSk5l2L5uQLm/v0HuBtuukmKwjQrOcn6Ud0gNIEXC3DGy1W8f58yTgTK+3kJmOXlOiYjhGcVuQavwIq2dU3PbTinbT4zv5mvkjnyZobA2OZ5CZ/p8B6z5l16BcQywJZMA4AZQA6BGc8EwEzmARY0v/MjGgnkNTAjEiYiExsrgtQgysqhaUKAQvs8dPCQO6LqNXyP+5v4K0BFGToe+sbG8AzcNKQeECNu3x7tsIsxaclNZZLCKCQHGc0Q6xitksmdDwMZQQZB62axwlLG2xAuBJCJIKMQAjh16rQtgFxfY70alhZ1MGsVBabCKwTMULmxhVzbsHCGD3+4qIe/DUDj0r4uAUDpZ+EConetKTbsN9on/9n/QCQN+5xPA4Syz1iLfrqgVwQBgFZWdSmAYE0DLAYwAJ79m05M4SII2JRagaa8BNuWB/xz2hcDkg9eltYiw2Ahwz/oTJhD8waZpjNYtHF38iJNikWb+YzCyXUHci4tOiEFJpC3/ta5AFzB38HnLKZ8xjv3lPvH9xSuCLcL7zWCLpM7sq/w4lp+Kudy4FoKxIGcg+IWyIvtQzmH8gvBJvzb5A+4lJM18g0BSbsolbMImLLacKkiZxRmFGkUa0augHmQ8nVvu+MOA2bKbOJxq27wfHJtrGN4uSwPXfHo4N/B36xd3HOeXUt/4l1rHZ/x3FrhEP3+nObEWTGvz5QaI4QWMD6YeyEAl7HayR6QZdxCMiOLANmRQ02MHIuZdQ4AJpQXkr2asfZJvswVe+aquzD/XdoSyHtgruzKmayUlMNqhlSBOxfQxnUEMDORIWKgTQI8FDJgEvKQGzDrQbLKQ0qB4m++q00jXAjIbQxdZbjWTp2S0qKFge95kO2lh7B8vWJAgAfdwMDeg8U9+DuwrIJtAsAIFv/Sz/Uw12dxt33oewFvRUDnt/b7UhCIQu4hmJQBBKALCGjxB4D5HBmE3587V2qdlIL3BXkVQiAPQDwAbc4VixLiH8UwIMJkg5UangvzGlCmoAiLMotwAMySr4Gw3kut3LK/DYj5HAAO0mzI821YCth23/jbXngkAq9ENhbd8nI2rxXAHMoVWZbKOpRz2d+lFiDem/LyNWA+q9QenlvkLAXIlGlcrnpWK6aj5QqYYePffc89Bsz9Bgyw3N1M5jHyAbQBZ5Q0Sq5iQR+noIzmxEk9t3wPOAPIyDqQd5AzjaUcPM/BfQ4rp0HOCguWAMotBc7MW4wPbxFncscy/22tBGYe4FDbDNMGyltFPOwsdgxzh2I1aEFicWICo3GzuPLO32iHtW1w/Ty8yClcNANLRZafLBJzeemBDkHWrKXAVJXMTHIGCva5GbGXLCo2CDa59Fmw3SUr1/ZQxXbhd1HKPASNf3uXXOwzHdze9Xfgxi5nDf6bRR58F5532VzS/GEOZWP+hOBcdr80x7FGTdKlSkwo4+reA8WI+1LqztZJm6JUYR/Zkv2/yRcXa2WvUO7hd8BvmZxLZS8rnHvBBOUaTQkpfWYBkopyzhUwU05zxsyZ4hZMc337pR/CCO8B8grvf6CcBIoi/wa0efF92St0+fPOs8zzac9ycN9D5Rd5hVa0vavcKSEYPueFjP3IjQRqJTDnRpT+qF4CXgJJkkCugJlGFDNm3idW9lRLqcRz4oeXQE0k4IG5JtLy23oJeAnkjQQ8MOfNrfInWkECHpgrCMT/6SXgJVA7JOCBuXbcx7p4FR6Y6+Jd99fsJVAHJOCBuQ7c5Fp6iR6Ya+mN9ZflJVDXJeCBua7PgPy9fg/M+Xvv/Jl7CXgJVCMBD8zVCMd/lWgJeGBO9O3xJ+cl4CWQrgQ8MKcrOf+7XEvAA3Ou74A/vpeAl0AkEvDAHIlY/U5jkIAH5hiE7A/hJeAlEL8EPDDHL3N/xOxIwANzduTo9+Il4CWQMAl4YE7YDfGnk7IEPDCnLCq/oZeAl0A+ScADcz7dLX+u5SXggbm8NPy/vQS8BGqNBDww15pbWecuxANznbvl/oK9BOqGBDww1437XBuv0gNzbbyr/pq8BLwEctaP2Tex8JMvUwl4YM5Ugv73XgJeAomUgLeYE3lb/EmlIAEPzCkIyW/iJeAlkH8S8MCcf/fMn3EgAQ/MEc0EmpufOXPGHTt2zF1UE/NmzZu5Jo2bWGNyGtP74SWQ7xJgXp87d86d1jw/efKkq1fPuebNW7jGjRu7Bg0a6G99kMPhgTmHwveHzkgCHpgzEl/lPwaUeRUXF7uN69e7s2fPuJ69ermOHTu5Fi1auEZauPzwEsh3CZwVIB8/ftzm+a5dO119KZy9e/dxHTp2dE2aBEpoLq/RA3Mupe+PnYkEaiUws2CUlJS4EydOuJOnTpoGDyg2b948E1ml/NtTp065I4cPu6KirW750qXulM6hd5++rk/fvq5vv/6ubdu2Ke8rjg2xepBViaz7w4cPuQuyhFq2bOVatdKrdWuTX1TnwbGQ1+FDh+xeXbxwUYfi5UyBadmypWvWrLkt9FhhDDwRJSXH3MkTJ+3f5y+cd/X0X5OmTVzr1m20fbPAMxGzxXb+/Hl3+vRpO7eDBw5KITtr54IcuedNmja188/3/zujazx69Kg7cKDY7dq1y+3audPt3LlDsm/tJkycpDneT3Ontd2zXF6rB+ZcSt8fOxMJ1EpgPnTwoCss3OS2FRW53bt3uXbtO7grr7rKtPlMhJXqb/fv2+dWr17l1q5e7dasWWMLdbt2bd3Q4SPcDTfe5PoJnJM0WGR37tjhNqxf55YtW2pgN2jgIDe4YIgrGDLELKAozhdQBsxY3JcvXaL3neYaxUXKaNe+vRug88Db0KFDxzLF6uDBA27Txo12zvwbYMda69y5ixsmGffo0UOhg+auUaNGUZx2lftEuQGsNm7Y4ObPm2fg1VPnMmhwgRs9Zozr0rVrlb/Npy+K9+93azWvV69a6ZYtX+Z2bN/uTsmV3X/AAHfn3Xe7MWPG2ZyJSxGuSnYemKuSjP886RKolcC8fds29+MPs93KlSts0ejRs6e797773fARI836YxGPYuC+xvpkoVowf56Ug0J3TKCHxQwAYTFfd/0NbuCgwWVWXRTnUdN9HpDLfb1AefGihe6bWbPsfMeMHecmTJjoJk+Z6pBfFCMEZpSChQvmu3Xr1hrYoigwOnTo4AYL1Eg/GTp8uOsi4G3YsKE7JKseYA5fx2Q9t5ZV2qdvPzdu/AQpYL1zAsyBgrNdclzkPvn4I4H0ASkWA914nRP3vV//ZClk6d7TEJjnz5/rvvj8M1e4aZN5WUaMHOUefuTnbvLUqa5Lly4K27RM9xBZ+Z0H5qyI0e8kBxKolcC8RtbqW2++4RYuXOgOanHsP3CA+9nPHnHjJ06US7GdaxqRSxHX5UlZTdukGCwRyJ2Sy2+gFuaGstwAH4C7uyyobt27u+7de5irOAf3/N8OaRa+rJ8FAsdvZn1tRB6snkmTJ8vTcLXc8H3+7TfZ+gBwZgHFu4HMPvvsUy30G233TeWSbi+reeSo0e722++UNTzcYvQ4unFlA8yzv//OHdXvAT2s60FSeohxAuBxk48sfLF1qykZH37w/v/P3n34W1Uke8NfioqKGXUEDICSRRQkCGbFnHMec5p0733+jfc+9z4THR1lHMcx5xxBJEpOIgISDQQzZnHe+tZm6fZ4OMKA4mFW84Fz2HuF7uru+lX9qrq7WBaeJWDu269/cfwJJ4ZB1ml9iW2DPqekshlTt/51SDFp4oQ0SLEVFTAXaUiefsZZxYAwUPaKENb2P7HQ1QYdPNXL10gCGxUwfwkYg1KbGIritr/dmh7gRxFrRrGdetrp6f116Lh3seOOO65WOMBz5crINA1Q/eKLL4uvwtOl4NGiANbPMtbZ8CElMKNmGQdKt+7dM9YGmFGurSJmulN4guhWcbj6UsYogVUJLKVXKYFM6NXnm2+x+SrPvxZzrX+G37XBfbx38fYvoz3+rx2bbVZrQ3073o347rzX5kadZxQTJ4yPePMnCXTdu/dIY6ZtGBL15auI6YrzfvH5FzXqOd5HJuTzryT96DN1mDDupeLOO/5RTAl6VL21o0W0l9d8/PEnJMAB4B2i/7AePLVnwmP74MMPih4BCh333ie9e7HOstT6c2U+74uQB5koKceob5lBXF7f8Gcpf+01vvRRTY6bZXvr72csvPXmmxnCeDEYGx5zjV7vXhx62OGppOufvyb95PmrY3jq71c/xfUhuMiU/qxW14i9k2HZL40961vPiXH/ZbTRZ67dIsba5jFmcjw2YJoA8x9//7tizJjROR6MlwqYK2CuH+PV7/+aBDYqYLY0SSLK+FDwDzxwX/Hy9OmpMHZr0yZBmQV70EGDMmbZmLgoI38/+mhFejsfvP9BAPSnxWYtNiu22377+LtdJhfxuBvzxtxL8fOcFi1amDQ2paisjM/FPXcNik8ikGUlDWOgGaNcvqz4PADA98AOGPj8/fffi2VX/yy22XabtMAZF1tuuVVjzUiFTFEzSt59951iRWTOAjrPk4gkQQq4lcwBg0KynHrz8j755OO8Vj332GPPbHv9i1DzgNT1Kz5ckaDvWWS0y667pldbf/33/c4I0nfTI/TA05wyeXLWW7vJTV15wjz4Y449Pj1PbRGyeGHY0JQPb3qv8Ox32WXXYuvIfFfK/sRiqC+qWd8qaNbto76MJMlijZUSlGUey1uohSVq8Wz9oL0YGPcbD/qebN5/7/1i6ZIl2SaJadtvv0MaOg0NQiDfZD+ten7ZTw3rWN7PIHj3nXfz6x132jHHyfIYRwyeTaNejEFy2Sb6ntwagvPXz4k+YEx8HO0Fzi1bbpGy3z7GS2OrCcyzP/3hd8Xo0QHM0YfdKmDOPqh2/mo4Uqv/r60ENipgLpOuKHae39y5c5LKpth4zf0HDCxOPuWUTGqqV04loMpKXhIKlVKTJczD2irupcwoLz+3brV1Atrmm2+RALBTJJZJctl0001CEX5aiNcCQ0BAWfE0UK+AkUcJDCQyAWj3ebfEmQ8+CGUeSWPAhrIun7tJPBdovhleOKUPBCjZDh33jmeEsg2lqy4KgAUi70cM1rMASXr9/wxvOb7XhprX3iqzxHeN57TaJkAsKvjRxx+tysp+L4EOKPE8UXEAyL21pTHLEqS08dNoLzmWwM5Q2CMStRhCu+wSWfCrADIr18Q/nwcb4NmzXnmleP7ZZyJ5alZkaH+aMnwzDC3yUIeeEcM88eRTCvFvMUxhCrkE5IKZYERI9OMdkveHITfxUHVlpGi7dqivv4wU2fKeVZ81XQIsw8z974VRpI98rr0rQzafxbOsTReSYIwA6BYtNo12fBzv+rB4P2RvPAFH79k7vHnJbIq66dP30hBaGtd/FJ8GyxFjQf0YY4wV49azUfM7t47kt5AnAyDbFs9mrMn+1j7PYuipj2uWvPVm1vuzTz9Lg3D33feIMErbok2btgnQWQ/jpazH0pohoY3ezSgyNlu23DKW+bVOObWOn/rYmFZqwPz79JjJowLmFEtFZdfEUP27DhLYqIB54cIFxcgXhxfzI85Hwbzx+hvF5Mj2pbh4LTyui39+aSp2yqUEZ0qaVzV79quZ/LQongNEKTFg8M8ANtnKixfLPv00AXrb7bbN7Op+/QcUe0SyEaXofaNHjYxlUgsSTCg09/vutaCKeVErQgmLMx9x5JEJJMB/SdCf0yPG+2qseZ4T8VV1l3C1ayjlHUPhfxweLNoW2PLgd9utTcavJNswOHbcsabwKecF8+ZFEtXLxYQJExJMJES1CaAECoyGMaNHpcFxwAEHJJgBjCJge8H8ecW8ea9lRrH3eSYv9aCBgxJoKevXIplt5AjynZfgAIw6d+mSy5ZGx3N5pMCx53771ajbSHZbk1ICs+ePGjEiwGZ5AhJDa1h4xIwV/dW23e7FAb0j9t2vfzFw0MH56FEjRyQwd+0GmPdIYOYliluT5ch43luRmS9ezSjaJZbNob6nTpmSwCMhUB/VZ02XlPSrr8zKuDsja+cwNNqGHNvtsXsYPB8mGDEm9g75d4t399r/gFyutSDGHvnoL/cx5vYOI+rIowen16zS5aqBV2bOzHElC33fqIfcgy1atgxQfStBT396b5eQ8cBBh2TyIDm4f1Ykyr0aBsysqCND0hg1xi1V2jLA9O24ZlmA7eth2CgAe79evb6VhMb41OevzHw5wj8Ts087d+6c4LssxsqyZUtzzDKyUPE99t03x4KldEoFzCmG7/xTeczfEUn1wVpKYKMA5nIHonkBSi8OH1a8E0qJh8D7ffLxx9JzBsKU50UXX1L0DTCtUcG1daUlBc7LfvSRh+O+t3JpFaU9MIAJUA59/tmMfcq4BmR77LlHPu+oyLZtE0DLe6Fon3/uuaTT0YYdY1lU/wEDElSmTJmcyUqo9jahJE859bRQxvumNyP+PGzo86Ecx+c14ahEwto+6WVJHvvyyy+C5p2W7XC/ZBLAdFBQ89rCgOBlLQz6/KWI91GyM2ZML7YOMBp08KFF11VLnixHeuLxx9OTBp7AAAWsfdo+OZgGcWYeqgzyPn36FIOPPa5oE4YAJa0Oz4VHawkaj941QA39ffeddyQgianKyj3/gouKfXv2/Nr4aWpclsA8P/pvXGSzi113D9mgyh979JFi2tSp6RGKd7YNg6V37z7FccedkGus1emfQRdThpZV8Zh5b8bCtKlTihFhSDAYLFFrF3LnfZZywCwAdCGOYyOGzUjBFGAnGHSyq8ePH5dV7xuJgzxCbeapP/P0U2koMbK6x+f6gwHmPu+dFoYWShvrYNxZFcCIIVvgPWb0yJD5hFx2hKo/8cSTii7RBowIw+7JJx4PQ2hOer8SyI455rg0eHYJ+WJX9NeESG4cO3ZsxrXlHTAQGS3W7H8Yxse8116LBMiXkv3B0uiXiy66pOgZAM2rtvZ4bNDQjE5LvDA4g6Idxq57Af/Ml2dk6OOY447LcBAjhLGgVMCcYvjOPxUwf0ck1QdrKYGNAphRe7wXHvOkUHaoRqDzVtB5f7/tbxGznJQKl+I9LrJjBww4qOgUSrJ1xBcVirqmjiStOwAAQABJREFU5MYUY0aNCtzdpDj44INzswReKY/6pVgaItllfChrSu3AA/ulB84LR0GOCU+ZIp82bWoA3cpYu9o5MrI7pUcF+AClLGJKmSI+/IgjczmSdcLW4jIIXgoly9uSbIOa5R3yWHlJMl8nTpiYiv/LlV8mGAAUMVeeIuNiaoD/A/ffV8wMDwgNCXROP/2MBDnbgb4ZnvnY8GzfCQbhZz/bLYGsY3hzPKdnA3Ape17rpkHJdok1zNoGmLeLJDVrVrVhesTtWwYI9O03IJOyKGne20033pCxYfQrFuHqa68r+hzYNz3GkplY3dhsCMybbtoi260NPPRxL72U4ExOgEv2NQ9OG96LtqDz64GZBzl65Mj0BN+wjj28f4CDhdCXwPzee+6OTPD5GVIYcNDA4vxY5gNgAae23n/fvSlr4AoYzzrn3GBaDii2abVN9tfk2DjG+Np0k03T090/+urzzz7PLHFg/kqs87W5DXZDVjZg5s0CdePx4YcezH4SQ2cAej9jiYeNIRj+wguZxDg3xoyNSfoceGCCrmdttvlmxfQwVsbEWmkGnYx2Y4TXf8FFF+fa8xUrVmT977n7ruLVCBFICnPvVddcm8/yHmD8wP33Z+KfRERG4ICBA3P8pWEC/GNMC9P0izlj3hiPDCClAubGR3QFzI3Lpfp0zSWwUQAz74AnOX/e/IxPAgKeIE+OAubBULhiiXYmsja3fhkQsBz+wtDwYnibEzLx6pgAJMDnOe4Fyr5HtW4aSu2IAFbf9wpl/c7yt4u7Y3kWmhjIU3J9+/XLWPZusakEYOYFvb54UYJjq1at0otCLTIgAA4FCTQBs7jefqFkD4p6HnHUUUktAmbvl+yE4mwfnhsP6PQzzgzA2SO8vNdzUwv1YKDIpOatn33u+ZmxbEh4D+NA7BS1u8MO2ycwLXnzrVim9HjStijYzaJ9lr5oH2BGAaM7eaFo1m3Do9pvv/2TbpbBLqbPACJnBQD84pe/zvrxIoFAU6UhMIuZH3HkUfkececJAXRDhz4XoYbZSc8DWrSqOL2+5gkzYmRs85iFLoDG4oWLch9nBhgDi9yXBhsyKbxahpB+5x0CnCuvuib7GgWur2X1vxzeol3H9OXlV1yZIRBGmfGGOZEoxTv3DB45z9w4srkII0mc3JpquQ2AGVUt1GCcPPDA/QHAC9L7NB4vuvjnSTWTU2koynYeMTw8/ngfA0p/nHLq6en1zwp2ZsyYUcmAzA86GvAyMK7/5a+ynowC3vANf/xDys9zgfs1116f498uafOj/c+G57982fI0WoQhLI37OPINGKoTApj1baREZt0GRDvq12NXwEyq3y0VMH9XJtUnayeBjQKYLVEBXKi3xUELW+KE8qNAfb4oFLQEIVQd5dM/FNhZZ5+d1CRxLQ4KeFR4WGNDEVKqwEQMGPChIQHzyBdfTGCkjLZoWQMOCh2AvhHvvOnGP6fC5blLfgL8aD9xYkAjG1gikAQkGde7R6wSBb3LrrsEYL8eG1I8EvHpUenF8DqBQc2AOCSB2fIr2a/PPP1kxA6XpSL1/rPPPTeX5PCSAffTsQ6YR8xbp8glS1lupGiH+KmEMGCpnVuGgkalA3xAQBGTXz0w88iBjrapP4aC58nTRofyohksMtEVxs911/8y5Vcu08kvVvPP6oAZTSyBjaf+RIQkePSWonm/zHJx/m0j3okCHjz4mARWwBzYGUbIOxn7Rk2Lj0tyEqJ4LShaRgb6lveqL8jp6muuK/bp3Km2OUyMgfvuuyeAe0H2j34oqXnALLQgOYqHLOvaEjSgL4bPiACYI2K8APl6YLYmm7esn6wXZ0DsGcln3n/6mWfleCGi3PAlWAj9od2LFy3O9dyuu+TSy/IezMbYeM9DDz4YBulryRrwdhkYkuMkkTEAfvf//jc3u/Fcn19x5VUJ4GT3+edfpEzkTaDC/ZTsJt9gxoxpMRZnp5En7s2ANN6OPubYzGvwvAqYSeG7pQLm78qk+mTtJNDsgRndKTY5LDwqHhAPavMtWobC3SqBhHIFGIsXh/cUoFJ6szwUXhaakCdp+0weAoUKgCTc8MoAMxCiTIGj51hic2R4dAf07pNxyTmzXy1+/7vfJrDzjsUhjzp6cHiVvZLKlE2rngrFvmUoOntQW8YCuNT/yScey3fY/Qow804oYl4Q+hZdXCrqt8LD5X1RlOeef356UPbkZljYuUsM0u5i7q8H5tUNDdSp7GaAgjYGfPXAzFuj6HlSluXwFJcvr2VnM35mz54Ths2INHC8A4V93fW/SMOCZ45mbaqsDphRvwrPUr/wZHm72BFy9lz9icI9I4BNf9ZnZetH4Lc8ABPgYFAk0IndAua3g+lgrAHea667LtdBzwvAIweAh+HYNRiPg1DdF1yYXndT7QD80yKpTD89/+yzkYD19reAWbzZjnDG0qhRIzIbWy6BfjwltrK0Bapiv3JjgsfLs1bfegMCtb4gaHjPeeD+ezMeLO/Acy5b5dl7jvv/5//+fzku/N9YvuzyK7K9wimMM32KQdGn5gFji3wlzklYRJPzxs0Fnv/gY4/NMe95FTCTwndLl67dgsk6I+VlDMv4r0olgbWRQLMGZmD31T9Xppf5xGOPJaACBYlfvEHeIcpR4hXAymzrUOZ2kjr3vAsyhirjFDVNGUre4smIvfEMTSixXu8Byu+HAkPrigvzqDt37ho05jbpZf4hgJmHAsRtdHHiSScVffv2T2rQPTVYljZW5Ps2j3pY40w5oo/XBZjFeWUZU9TPPxeAEKApngrUz47YKJBtqnwfMFsyhRqlpFGcvFYykXUOTCRL3f7323Idsvesb2CuebtLkv1AQUsGYxCU4AxwLrzooqTQAXOZlZ3JTwHmAAf9Dbz0KVB75OGHE9DqgVnsOgExgFlogSfqHkl2l15eo7KbkuP3AbNxUIZEGELyAtDvDIPTTj89xlW3fLykt3rg5R3XU+4y8eu/187VAfP//s9/57j04IbALMNfnxrvwhD61FgBxPPDyGUMijXXcjZWAXPlMTc1BPI7c8KGRgzjDh2b3tDoex9WXfBvKYFmDcwoyvTYQrHYmhEYy65F4/KcbZTBS2LZi71KmAGcJstxcR0PA+1EqbnWIQ6ybadOnZYeVqvwproGMFPeMryBqRhc11CgvOXd2uyWHvDkSZOLITfflFQ0bxVFXaPCB6bX7PAC9aH4gAl61d/07qPOFK/s8dEBCGKqDT1mXmcZU3wysqolHdU2TRlYnHf+BRlPplxrHvWjYYAsTAASUzzrnPPSo+RxkY9S1sPvvE6MAqqex81j5sH26NEjLX6xdrFccU9JUcOH1bLeAb8Esd59+iRQ3/TnG5Jq9sz6WOaaHCaBYgdS8wIIZWWj/jEOQEshKx67NjJgJMnZthNd7Tse88+D4gVwgLlc+oY2BoCWpNn3u2NHa4l3DECeW2RSVCxPI1sGzLXXXZ8Gl7CIcIbvAZMjOvcP4LejFYPDemosh9JQjktjeVLNQBqVBpL61VPZ1gHPiMQz/fTsM09HSGJpZuhT4Gefe17mAmBUUOyzg4XRHwwRHqwxpH3qsXuEY9DNvpfsB5jViwFx2RVXJWWtfgzF//2//53X+X89MPPeZdoLn2APLNXbOTLWTz7l1KTNZ4aRKk4+Pqj5LyP0wWNWz8EJzJbY1XnM8R5zsVrHnGLJ7PuTTzktQzkSToUwqlJJYG0k0KyBuVwPisKW8MQrOuzwI5JKpuDKrTVl0PLoxof3JFaKxtt//96paA6PJC6bOFhjPHXq5FD8TyR1KDMYwFL6ts8Ug7N+UyKR5Sh+2mCCDwxMHwzK0RIYHhcvmNVcZjVbDwwAgQvQsIe25U2AkkLlyfP4UagJzMCijsoG1Lx531tGAzzqFTWqmZIFWHfFsiXevfbz7E86+dSMVzMorHNVGCfqoQBOHu+IF4enAre8xvfdu/dIw+WY445PQwEIUNJi9pLTDj/iiFTE5MDjv/3vkr+m5jMZLVddfU3G8mVM88CaKkIM4rFzg7L1HsAn2xxlWxYArL9RrMDbntqAmqEjm7kemAGZwxV4pwBOAt6ZZ52TCVQS56ZPn5qxW4CmLQDn2qDe9bVsZqyAZDa0OVpfaMKpYP0j2xz4lMuFGsoRoAKzpLKDuWgIzPIK1E0bAb9EPJ6wLPbLrrgiqfhNN2mRCXaTJk6M60YV1nHbiUsSojEhGQ/A11PdDBpAWwIz+SurA2bJeYxNY+3OO27PNfSyy/ftuW8wLOflRiaYo/EhB/F4YxxzRE6WTe29d6ccX4w4O39pb7XzV4o8/3Ga2EmR2yFHpVOnTrm08Jtvq98qCXy/BJolMAM4FjpAoxzmh/cgGadNmza5nhSVDBAAJG+MsrzzH7dn1rEYGo9MYpHlL4MHH5tesOdZw/voIw+F8p+TYCJxy4YLrs1ko6CteZ6UKUUI6MqNO8YGWEj8YQRI3gF4Di04LJb1+AlcKTj0YYsA/Ywxt2qVn6v/UwE0E8ePLxZEm2wQAWwkgFmHDKjSewnQHBFJVssDhL23dyjgTBoKsECRS3576MEHcskYoAb6PEXLcSyFqSVGxd7JIReGgsQv8W/AjHGgiB3nJ7mpfXirffr0zaQqyW5ocswD70r9Djv88AR+MpA8BigxDkIAFJOYL090z732/NogaDgceZz6EnXLy58V908K+WEqjjz66GQm6s+Dpvx51oCVJzkplo+hj1HQCcyhCBlnQOv+SN4SY2WwWVbFE+SBizvL7pY9LVOeAUPWF154ce4LLmatPx6J5Uzaa4OOlmFYoJnRvPvFtSUDwnjDemy1le1Id0hP1xhwGMi4MJIYG4wCJ15R1JLLtJeR9VAYclODPmYIqL9kROPRVqFLlyyNuo8qpsT3jJ4a3T6gOCCSt9RBna0vtoZ5WADo4sWL8hqHtMidcM3nsVe28TRkyM3F5AB5BTt02mlnZDvJBDDfdOMNGYIwpnnFDtuQdT9l8pT8nJEnSYxxcmAwMIAZ48SLNhZyOWL0GQNp7332Lk6I9dgMDVnqxqixpr4bopA/HcEQuu/ee3Js/xj1kN8hlCUmb+0647UqlQTWRgLNEpiBsDjqtKAFZSHPCU8reMVcX2kvbIqW8pA0JXYsMUoSjTgaRWjP6S1DmYqdAr99963toIUitrwKBUqBUyiyftGdvNvNN4+DCyID10Sj5HmVJb3J47a8ZvgLwxLg0ZSUdpvYBrF1650TyIEzQBQD7xuZyzwfyiM3Jnn+2fj5SmYhexflDwTsGGVd86hYJ63+vCM7T1nusk8odEloMsNl9/KC1X1CKGSeL3AmA5uB8PqBHEVpS08GB8ODx4jKHhbrYdXf0hne6Q477pDAiIGgYMXqZ8i+jiQvCVWo9PbtOyQzAGABBeYCnYtZ4H3ysA6P+rmuMeVMmTOILCGyc5j1xQsi/ut+3h/qtf48aPXCNKDVGUASqUZGfbTv0ssuz7W2No5R16eCWeDJ8fhQ2erQoUOHon0ABg903DhrxuevMujaFoccckhSxdYj2xudLGSB28mN4UFujBAUvp8obtRv+wAszIq+lFim/9HZDAJZ+NpC1uRowxVrgI1BoGlpnnaQH3m5bo8998oxMSooeGuwGSkMzUMiy9+YZqSJ8ft+UvT1nGAN9McmMdZ4taeffmZuNCKZi5E1dOhzaahQCsB4/3jPARF+6NdvQI6Pv95yS7aTMaafydvyM2NFX8q21y6GKLYAlb17yADzxJB6IUIb+myT+GM88ex57Gh3YK6+xvyGKBsKmBlax58gVDYwVwwYJ1WpJLA2Emi2wCzLlmIAFItCEVOcu0UslPKwuUfHvQHz1plliv4US1uwYF4AQe2UIHsT21KyYyi7DnEtBSsebXkKTwJN6UQnu1B9EUoLiKA1AQmvJndZig04eEI8RKBh6RAaFNBSVhRD6VFta3lPeCI8bu/iVQARGcPAFqBSuN7Do5ZVnl5KALj/S2ADfHYYUwd7aNtly6lKrHIeio0n0Nw8Z/Ww7piHCRQlPWERZKFjFhgVAFoCWrm2Vxbyp59+xsZJxkDmt8xycVlgJlEI4PNSKVyKnhdGzmRnjTPQ9L527XZPD+yQQw+NdjQNzCXzMXfunOwvMgJS2sVTtVtXfdEme2hPnz4tgGFo1LVlesSAj+f39tvLkzVguPHi9UOrVq1yS0/ttmGGz8nbs9zjfZYEAS3jAi0tjj0m4s1z587OteNfrfwqZehZmIbddmuTxlGbtm0SrAGk3bx43IAL2DGqeM3GZecYJ3uFcWBMAHt1cL2tO40FsXyg52So2gYlnwZItk2PmpFCDvbszmNFw2hAxXvnx/GZ8bd7yBx9KqYJmF+PeTE72qAtiv73DqEV3rXlUZgaXrH6AlDgyvgwnmRs88rtu03GwiH9wpBlCJEppsXzsVDaZF7svMvOmbUNnM2Rf0dgZkgdG8yCHBbniJtnVakksDYSaJbAbLck4OSQArQxDxoYoGZZ+hQQTwVYA1geiv2XXYdKpMSULYLSbrVNq/w/5Qh4nHDkNCZKd7PNIls7Pqe0PlzhBJ93IvHqrQCpj/O7XkEtXhJ7b1NCFBDanKJ0T+2+2iEGgIDy533nqUQB0pZcbRGe8WdxjzXO6FweFu+J99Ei3g2geDHa5nvgqD3WzvrMO2sU+7a59Mpn1msDG8pYjFM91IssUKLi64BHhjCQdo8YL2bB+8lHoWgdWCAxzlaYK79cmeDEu1YPnjiqHAhgEchW4hsZuVccVizeT0DWWCmpbIl3lmHpJ3Uld0aMPvTTOtr6wnhRVx6dnbF4ixLyHOqBbUC96gfGG/BFgRsXO4Snq/2MMoc/SBxEvWMNrCfXJ6jw2jNqB03U5FhbRlT2z1Yhlx3CWCnlWCa4MdyMI4Cmn7IvQ76YEv1kDJAFmZOX95PXig9r7c4+jTGsr4xR9XA9el0/6G/9417tc/gF49Fn3sVAynEV3jwq+5OPPwmZfpgyJT/Aq63GoHbKwbC9qnXxxhdqHrAy4hgejABGr/Eun8LnQEZ7tI889Jk61Mas55tT8fwYY+SiLdq1IcqG8pg7dNw7cxIwRoxFBnRVKgmsjQSaJTA31UAKSlkbZYD6RFny2IAa74WnSCECtvcDcCggHsLMmS9nAo/dmHirl8eGDQeGF0FZl5Qd4GA4oJZR4upEmQHGUok31YZ1/c77/AU65VGFFD3FTsEDVfJZGxmpUxnjpdCBtucBj3hQgkPZZsDcGKCua7sa3s8IAYTaCiTLdpXXqc8H4dlpe7lmHFC4ngEASB1vaKezpvoljcDob0AHkLS5lKPnae+/Usp+YhgZd97jrGs0ubFnzKzL87+vTt5vuaETqBgHxgNjS78qZGTc23CGEedzY/xfbe/31Wd9f7+hgBnTdXiELtD5jHZhn6pUElgbCWx0wLw2jS+vtYzq9ttvy2VLtu3s3r1HMShijk7koYj9BbbihijxV2fNTOp2n306FRdd8vOMhdZ7BhQeLyb/xn1MBd/7S7GtLSCW9Vybn6l0A5DUnWJVBwoVqNTXdW2eCeDEeD3b2u8W8bxU0qHQfeevNvOPnM71QytwIAY8ojpJvWtXfVEf7VffElDUqZSN7/2uP5rql/I56ZnGPTz0Uo7r2sayLuRqvbDGlM/37HV9fr08Gvu99n5HTX6ZBpZ2le/UbuPeNWT7Y9SnsTr+q59tKGAWCgDK8iQGNHH++7/aruq+jV8CFTBHH1tbekcsG7F8BdVp7aHThCTqyOCmkCgnyWFiweKDn4cibR8JV/VbFG78w6VqYSWB5iOBDQXMjPv9ekXyY4DzEXH6nETRqlQSWBsJVMAc0kJRTxw/rpgRWawLI2kLvblbJDbJvgbUEl94XpY6iQuK/Xbo0CEzaMts57URenVtJYFKAj+8BDYUMIvfW4PPa67favWHb3H1ho1FAhUwR09KkJHNLMtVRrWkKWt3JWvVgHmLAGaU3ldJeUqAsaxEhmtJkW4sA6JqRyWBjUUCGwqYJezRDf37H1Scc955ucd6U6GSjUXeVTvWnwQqYA5ZiqNJJJLlyiMWt0RfyzaWkSxbNeOREam1Q5IkGMlNEmLKeNz665LqSZUEKgmsDwlsKGAGwhL37HFg4xs/m0ouXB9trZ6xcUmgAuaNqz+r1lQSqCSwSgIbCpi9XkKhY1/tgOeYWXumy3ivSiWBNZFABcxrIqXqmkoClQSanQQ2JDATlmVSzsB2bGi5h3+zE2JV4Q0igQqYN4jYq5dWEqgk8ENLYEMDs7XzNirq1atXrt6w74ENg6y3/1eXLP7QMque/9OQQAXMP41+qGpRSaCSwHqWwIYGZtvdijW3a7d7LJ/qlYeQ9IkDTXbfwFuVrmcxV4/7ASTwbwHM1iBL8JLUZRtBhdXqOMIqW/IHGFUNHmljDrta2TvaASK2G7VzGNnXl/p+koynuK7qp3opVb+vqQQ2NDCX9bQVa9vY87xrbBt7YOx9b58Eqz0kkNrq1DapNnYxHypPupTav/fPfwtgtgbZ9pg29nceruIoR+uUq2zJH34C2NvZaWC2nbTDVR4AEfE3e2HXl7KfLFezh7Pi5Cb7cVf9VC+p6vc1kcBPBZgzSzscAXu1W0Zl7wOniO0RGxjZxMjyy+12iL3Ug/qu39p3TdpYXbNxSmCjBmYesr2iAbJ1yk4+cgLUNrHOsNf+vfOkH/tio5t+yFJubcg4oCzsYe0ghXDk/ZtbWJbbdPrMoRctWtRoMHGqraJ+P8YWl+tbBoDWgQ5L4khMh01YLw6MKSenf9mIQbFntT2Z337n7Tw1ysET/jrysGdQgI7nLGNz67uO1fM2XgnUgHnhqvOY7/7RzmNenUQtrbQPOp2D3t5jj93jJK898kQv53nzoLeOg0jsoVC/Barlmi1a1JZvbh7LN+krmxyVe5eXumN1760+b34S2KiB2clTjnCcEccDTpo0MU/KcWJO+9i1y4HwvQ44II8uZKn+kIWBAHgWL1wYZ0hPzROq0LY2LAHasbhiFYVV5P+tn27Vauusmx2EeI0/xqEQ61sGjqh0YtfLM2akckRp7x8y7x5JMI4edBKS4oSluXPn5HnPjpW0+9oncSThXnHM4DHHHpd7kWM4yKAqlQTWVAIOMHE61tg4l9s5684M39AFOAvNCKVhgfwsqWyfA9sa8AZAx46DgHxLn8X58YxaoO6sdsbqLnFyW8Ukbege/WHev1EDs7OOZ8VOXmPHji6eeuKJwrnMgBAwnHPueXl2bW6pGSf5/JClBGY7i40dM6qYHYfb8+LLk6ccQm+d41ZhBX8aRyCifsXCHVXonGDnPe+zT6c8j3d9xMR5sh+FoWDr0c0jrmXyUwis9PVRypjy0vCUZ70yM9sLeLcMJdQ3YmzOcEbhOQpRKYF5XJz9+9hjj+Y5xXICnMVsHajj85wFvH14FVWpJLCmEmAMLwmmbEwA8513/COPdF3TezfEdbVNjTZbBdxbJ0CXcxNYb5vHde4Yy7Da5pbA7TvEWfLhZGCT1ode2BBtrt7ZuAQ2amDOY//iyEYK/2+3DikmTZyYSWBdY+H/ubFVnr1sa57YDwvMJZWNTp82dUoxccKE4qWxY4JWj3h3HMVkI4LTzzgzwWpJnPc8a9YrAeBjAryXf30E5Qknnlx06959vVjIjrKcN++1PGcX+O8YZwu3br1zHkvZ+DBZu08zphx1fz28lVfDCGGY7BZWvnWdaOw87ze8BcyAUlLZEyeML27/+20hn/FpnOwdxsiZZ52dBtSeEZNzhnRVKgmsqQQcp4nOfinm0pAhf8n5j6n6KRfg7G+Nyl51olfQ2C2Czt5s8wDtSBKTo+GYU2c9H3f8iaE/uq0XvfBTlsu/W902KmAujwHkEfK4FJbk5ADkm278c4EmBRKyI2vAPHAVMH+bIgWkwOKLeIZkpa9iMovjOLd3i/AsPdPkWdvYTo1an5kW/BOPP1bMnTMnJ2C//gOKX/zy10XX7t2KpW8tyXrec/ddefazCdqz535R3wuKvv37JX0lvkTB8Ey1R3udkayITcvwbOgBa5PY9vvvBb0cx1dOjxO1KC6e6B7hre++x54JfN5XtivlsEqWfnecY3rVIQvvJwP0m5/1hafiYJDFixcVC+fPT4/cGk7H4QkbkGHDe9w/aeKE4pa/3JTy+SByA/aOOHQCcxhQkmUaArM6le0vM749Vzz+++Jv7iW/sp8byk+76mVR377q9+YhATqAcT4pDOHbbru1GP/SS5nnYMw052KM86SdGY/569uvf00vBGBXZeOQwEYFzJbYvBveICsZVQtgAMGr4YH+4x+3F5MnTSo+j4mKIm0KmEtLGzjIJAZ8QJmlKpPb8odSca/NMHgnkpscLTl29OjikUcezriq5zge7rpf/DJ3CfLu8WFA3HzzX4oJ48elgYHGPumkk4t+AwbEqTWd0osGjDzTd4IS/yBYAb8rW4cnuv0OO3zLAy5BCFhOnTK5mBpe+7Q4g3rzsMAZBfvu2zOOptu72DliViWgeVYyDmT50Uf5+6YhTzEtioHSk6TCcm+YPOf6JXFEJip72bJlHpU0/M4775Lv0CelcZNfrvpncuQBDLn5pmJ0yEd8UIJYU8DM0HjvvXfzWv208sug5iM5Bgsg/rZNUH+bbvKNoVG+q5QHmb337jvZx/XyQ7GLf5OlMVQaKuX91c/mIYHSeH111qzisUcfzljza3Pnpo5oHi1YfS3Nwc5duhQnnHhSHpaxT6dOX+dsrP6u6pvmIoFmD8wmX20p1PJi6dKleWbyxx99vCpOs1WC6LzX5hb3339fJhfxkL6hsld5zAEUlPVHoajRx2KeAB6I877+Gd/VMqmtq90yPbdddt01QQnIsF7XpJSxVMD88MMPpsfsIIwSmG12z4sDzDf88Q/pOaov0Dzu+BMCRPunFylZZPnyZVlHh244+QrQSSbjDfgeNb3zzvE3AMpBHB+FTBgozz/3bDEhqOLXwluX8T1w0KC0vDvGO9q0bZc0M9f4g/c/iFO23g6AXZIHe6gXgOKNKzxUWdWUQ+sAXIqCUSF2/m6AHWPh889rBg3ZfhpHZjoAhHEjgYX8xIwlv6i7UgPmv2S7efYNgVksPvspgF8/MUosrXIc5+YlLR718jyJYsD1Zz9rk7/7zL3qyOBatmxpGnCMj5VhZGibNupnbbTONGUY8tt2VR9rY1WanwTyWNcY8xJAGeeLFi3MMM7nn0ffR58bF/RIcyuM9ONPOCH0x8CiS9DZ5ntVNg4JNGtgNpn8XRTU7KiRIzPr0qTbKpYc9Nr/gFzUzyNFGT8aFrMMbZNQ8le9x2xZDq94ftCuY0aPyuMfV3y0ItfPyiK2ycWC+fPiPQszLuxYtwN698mYr80CJF+sSfk+YLavLqB4KZJVbrjhj0m9qS/wO/mUU4v9o02tY/IBv9GjRqYRoq22/ZMkRsnI+vY9z9cB7YcedlhM2F1yuRil9OQTjxXTp09PcNouwIuRsk9kfovhlpQ25uHlGdOL2eHdz583LwyWj3KJmYC45U+fffZ5yHFlbpRw7HEnZP28763wkseMGlUsfn1RAHWLXAbSrVuPAL2ieCWSwBYtWhxg+F6yDv3DUxdSaFOXbf19wMwIYnjMn/daMSraz/v5OPupdfY3kF8cce03I07PqBDXPuLIozIDnKfPyOHB86DGRBKeWPuuce62zR92D5qd10x5awcjAn0+6OCDM/EOjc6Iqkrzk4BEyndjPBgvLwWdLTt7QawWeDuMW98ZU80RnCVRnn5GLTlSljamrCobhwSaNTAn1Rqe2YwAGjHbl+Pnhys+jPWBexaDjzm24AXyhGaFp/hAeMwmpAnYrXuPbwEzinbJkreS3n3u2WcjNrowaUxLeg4/4sgc8DKqJW6NGDEiPel999uvODA83IMGDir2at++0VhrwyHSEJjR2rzt3n36FJdccmlmK/NUJ0as9Z6770xDQjwW1Xz6GWcU7Tt0zBjxq6/OKl4cPrx4P9puQgJl1wDUES8OL16Lun4ehobPT4ukMnJYEVTvlMmTUw6Wj/EMeZTu2yfaKStchrpkOGzB8BdeyJivOvJIJW1hC8jcvf527twlqOZzEthRybOjXsOGDU2PWTxZUlvffgMy85vBgEafEn/FwXn/MrS1nacunjtl8qSgslfvMbtGli0q/plnnk5jafPNt8jM1EEHH5J9xgCQcIYR4JWfdPKpcezegQnSKHb3jh83Lg0wRh0DoUfIoOPeHXPN+4shP8u7bHDCYz7ssMOLA6KOXbp0TaOoYZ9W/28eEtDXy4JRowOM6QVhzFu1Yfnk5198nmEQxuZXsTNdbRljzeivGf81j7r2e93neW3d/8u9CdJhiHvK7/PzuuvKz4Ph+uaZtT0N8v+r6vD1d6tEzFjcLHbNozO2DFasaySDnhhUtu0+sVZCL1XZOCTQrIEZncn7EYtF0S5buizX+PGWj431r6hQ7trUUPi3/nVIKmQg0zDGLJ5prSOFPXHi+ARviRW9+xz4dWKFhCYU8J0Rqwb0vGZJWaeefkZ4a/s3GmttOEQaArO6o0cZAMcef3x6vkuXLklPdeL48cV74V2ip/r27VucEQDIK33m6acyq1sClzqgv92/a4AQ+nfsS2OSIQCuvOCTTz01vXvP4THcEfVHlbsWCB919DFFnwAexgVvnNe5cMHCeM+TkTk+NuW7MhSWZRk/C+9yu+23y/gyJde27e7FiRH7dg+mYXLImdHAsz00AI3hQta+d73ku/vuvTsAdX7EgHdNwLQcqkfIUdumB3g3BcyMC/3kOWXmNsNEfI0RUBphlqPNnv1qyGebYtCgg3MbRMrrnaDYH7jv3mJceE1i4Hu171BLngkDAeuhjyluz2f4oOPbxzXi8CedfEoyAw37tPp/85FAGcbQzyXzU6Oya3S2kEaZOCqHwne1n5EEuur/K1fWkgYlC8ppyJ+ui88Z/f7W7ouEzPKemD8+q/2N7+O+8rnl57V7a9d86blxr+WMvmcoKIxQc14oiKFs3jNsbVJi/jBcq7JxSKBZA/PioK1RumMiZmt5kbjnfr32z3WvRxx1dIBJx+wlwP3nP/0plTq6EjVcT2W/EbuBPfjA/fk9z5gnyeMW++VNidOyXi23uiWSk4ADkLD5xxlnxnKeSMpqLGu44RBpDJhd0zHo8MHHHFPsGmC1ePHi4o3w1gDHpjHReLIMgEGHHBIx1XeKvw65OQFTchuv9MhoJ8+VtSx2ymv1DMD8s5i8AJJ3j0VAx1s2Rl7is3sGqJ0ehkX/WCfcPoBXIpcyN9Z7P/XkE3ndzJdfzrZ37tq16BIeuLhWy5ZbJNBuH9fblF9M+e677kzDhrGEQj/7nHNzORqloW48bcvWbrrphjQs4qFFzzB+Lrr4kjR+KBveblPA/FbI5aEHH8h66aeWW7ZMer9L1I38gzHPDSUWL16UlDZlhR3pGt93ij5HczPQJgcjsTIUaO8IR1x97XUJvK6Vq2AJm7Xm2sOz2jbWuEu6u/TSy8PA6Z3x602qWHOOk43ln9IzBYIJzFYiAMUERwAMmIFk/L4KeL8G3fw8vktvuw6YPcN3Pl8FsCUI+/kN0NcMgBqgx/2+i/d8833NiydruQ92LZT/YG4zrOv3A9hY+qNqR/iTMUiaX9bDqp5LAHni8czifWXmyxkLHjBwYAKzNcq7Bygo3wfMnvPXW27OpKP3wpPkJaGOPaMELJMXZW6jAt4h4Nxl15+Fxzk43wc8WbFNlcaAeZNNNsn1iJZD2Tt3YcSxZRqbmJKjgL/ntoolUjNmTM968hZ97ztZmbxFCV+oOJSyuFnt/u0T9O0UJHGKjP4WwGTDBUlT7cNLbixGNW/ea8XQ555LAEQ/Uy49Ii7POkfdt2nTJoGWhW43ItT4zbHMiScuXrdvyOLSyy9P+QFcdaOMyuVQY2MNNwNJfN76bYaNZVvAtilgFlu+dciQNIzUv/XOrTPxxfrutkGHo9o/yQ1aPsmf/t8m4sey6BkC+g/gMgBaBh0IcK+6+tpkHbRF3ZM9if6VFa/tksYwJ5ddcWXRr1//9FjWNNmvqbFQfffTkkAJzn4CyW/+X6OkLZn85rPGfzfG8o+fQUeX9+TnDe7/Krzg+ufVrjFMPfvb38VHWcqteuXNMEoxUYzecj+An5ZEq9qsiwSaNTBL5uJB8WBfi8zr7cK7OfjQQ9PT7RP0L2WtfB8we84Nf/pDLGMalbFTO23x+Ow4xeMDagrv8f777snlTqhkwOl9B0VWpPcBgaZKY8CMyqb4r7zq6tzhyxIjwGozAR4sixjAlHT7kFv+kpml3iNxy3IinqdJCkQUnuMmsd+2pDUJIegv34mR3zrklgRcXq6YdWM7a6GaX4hYMQAHpkCV4YFBOGrwMbUQQbzD5zxhWeZ//MPvEpi9X2LclVdfk8AsO5oiUSR31RtAqHYUMY+9U9DRtu9sCpjnBD194w1/ynoBdv0rBqz9mAXLpOqL92673bbp/aDSJ4ThcN+992SogEJjeF0THrNwgMKYQXcaT3/64++TAfC5pLwrrrwq6jkwxwLvuiqVBCoJVBL4oSTQ7IH54YceTOpR/NTyHx4dAKF0Ub3K9wGzWO+Nfw6qO4A5Pbmga88866x4xsBVW0HWdpzicUoiQwUDLztYHXb44em1SRCys1VTZXXAnBuM/OrXeV7rpwF0AE9CGs8M4LKiHcbBU+eZAjilpIIP7NcvjRKJYmUBzqhw9BdQZgA0BEZUf2M7azUE5q8ifoYOPyhketTgwUFVR+w+inqi/gDZH37324jdjs3PARkPUz/UZzNL7qo3DHjJJ59yWgIz79ke2U0BM2ZDP5H/x5HIxWjBWPTt2z/DE0IQ9UWbtZ0X/WYkjcl2t3ELQyyXqYVBcN31v8wYtPu+NjTiuj/+/htDA1PAszamjLHS0Kh/V/V7JYFKApUE1pcEmjUwWwb1tFhoxARfDm+WIpa0xdM9PJbJoKRRxYD5hj/98WuPWEzy7HPOK9DevC5Lgm7/+99yqc/y5csidiOpKRbuhyLOdbqta+sDkwq984702MQ7JUMdc9zxCUCWLohFN1VWB8ze85v//K98X2P3Az/xT1TxkFtuzvagXXn2Z9pLOtpRH+NGxdV2LIvduiKTswQo1OytQ25O6t9SITR9UsnhCTowAgNAXt8B5nhezwBm6yUBoRiyUouLrcz63PTnG2JP8jHJONgi8PwLLsp+ICMeu2szRh8e/7i4zrrqfTqJ0Z+VMV7MxGtz5wQwf7PBCAOg3nAA3H+/LfopgHl5rEPeaaegsoUuQn52P2KIaasCZMvY3ieRrS7ZTXKfUATqXZxYcpoYs3uBLY9ZYhBD4y833pBZ7D53hu4VV15d9I7sboaO9e1CHt5R0olJKcZ3VakkUEmgksC6SqBZA7Nknkz+CmCW/PX+e+8nnWwpDoUu8WfTFpsmcPzht79NhUuZAtGzzj4ngRAgoI8tt5L0w3u2CcbBhwQlHgBPKZeUOFqXx2rv3Y8+WpHAaEs8Hi9vWTZyU+VfBWYeM9CYOmVK8Y/bb8v3S7KSSWy5D2AfOGhQbqsJWAGHWLNlIJvF0iTUq3W8Mo7/HlsTJrDFUhEx7fRYI9YKbO2ZbacslHI9lQ1UGwNmbfUdg+WuO8XeR+caYOuCZWsD8k6dOyezwLh4KTzqP4eBBKBR9b0iUe+CCy9KKnm77bfPtdNfA3MwBB0DmOupdln31mF7jzgxmbSPODlgPfHEk3OTBUBKXrmsK0ICwgIWojipR4z+73+7NbPrLZPpse++xc8jqUusWdjA8+QOoPBlr1ty1TqMMvK98KKLi249eqTh8friRQna2BXrnyXWWQOuDVWpJFBJoJLAukqgWQNzbbnUK+kJPR/JSgvCo5LEAwyOO+6EUNRdMz77alCXd4WnaxtKyheFe3RkXQPwzuF1AmvxV5tLWEpjvWv79nsFGO1fHBIAzRNzn2t4XJYEiWc7K/iUU0/LZCegvDqKswRWB1RYEmQZ0gsvDE3PVAfaxOSSn1+WAC/jUky5sYKufzaWS1nOY0kQ8JHYxdA4KIwIWdbaDyytM7bh/c6R6Y1OZmzI2L43qFzAI3Pbwe0DYwONA4J67tSlc671FZd+Pb57Ydiw9NBzU5ZIRtlnn04JoLLAxYPVsUXQxErpYWMmXg7w57Wi2W2IIpOZZ4uKJ1/H79moRTze+uKTTz41jYLPYhcm66zJV9Z0gl4AHg9dP1lHrJ/s8W2d97hYFoaeRlXbU/uIIyM7vUstO937v/j8i4yzO99W8pewg7Wrjz78UI6XxQGulpDJvhcTB6zkRsY2Yhnx4gth3KzIpVg866MHH5N1ls2ujc89+0xu5IJp6B6A3b//N6GTxvqu+qySQCWBSgJrKoFmDczWJNsXe3pQk0889lgqdlQ0utG63LZt2sbSp51Swdp85I03Xg+F/0msA9whvWlLfWxMsVuABKp4TsQweYq8ZmtYnYN8+OFHpDeM4pwXlPdLAQjWIe4fa5fFUq2ZBjJlHLcxwZdUtOU3Q4c+lx6jTUDsRgQMJEEdEklkfcP7BZKri1WjTy154jkPf2FYrlfmETqr1dKJ1uFBbxlAZCczHvJeAdQ8frFYMkEVYwYAM8AF7NgA2d37BVWN2uYhLo1EqWFDn08P2yYMDIudYvtN2c9CBPuGp5kU9SqGwDItXiTQtMGJXZUU7bJzlszsN954I7Ku52bIwR7b/WLjEQZJ167dktUgG9nmDCyJfLZB3TEAnZFF1gMOqmWDMzjEmrV/WrxPn4ZDHO1vmzuc8VrRyy0CnNu12z2T8tq375BshnrytMXa7RyGzm8TTIclYEIgEua0Qf0tN9s1QhMHDTo4N2ERD8dGODFrwoRxsffyo7m1o21JGRhnB3Mic70qlQQqCVQSWFcJNGtgBhhf/XNlUq+jRowMqnJGAgSP13ICMdOfxZImHhTvGr0LjCT+WAfYKRQy4OItSZxCadtExBnCli05oFw2MsrYhgSUte0aLRECoDa2qFHY3z6dqmGnlMAsli0ePmfO3KjLB3n2sg0LABdQtOyJ98YLbqyUz5k3L851Djp3VnjA6mzHL5sPbLX1VrGv87bpIaszZkDGMdAGKo6d1D5eO2AGVDx9bcAcYAYc0sHY4TW+EVtrfvrpZwHMRbIB7XZvl16wdtcDMzaBXMWAMQ5zwwAA6OTUs2fPfIetMC0Ds/5akpZ62QBG28WbefPkLlfAvfps6wBYwNe+Y4eQd5+vM9SXx7OA+MxIxrPEynPlovPit99h+3yve4GpMIONRND56ulaXrFjN7EGNQOgtud3i01bFPPD8DFOsB+W28m295ytgkkgZzJE3TMMbFlqXABkyW4MtapUEqgkUElgXSXQrIFZ44Ez5fj28rcTfJcvW57/t/SP5yghC70LbOyVjH6lpB2duF0spaH4Je7IYOaNAV+JQvZ0dj1PuEXEaT1DvBpg2J96h/C6gRrq1zVNlZLKlknMQOB9AwnUrO+AgDpYlrVD1Gd1VHb5HIYHSrVWV2D3US2evFkcvhDAZFMM1LXnAb4tA6QAM+/afXYXez02VUH3iq1qCyNm61ZbR11aZqb1+wFgrldHpdburfL6Wru/obLVy3XoZ3F0smZ4fPnFl+mpk88mITsydEoXb57ct9mmVbbdRgzA0D0obyCvvq7P3Y7iOvXMfgr5i6FrOwYB0H4Y25jaz9s9jAEHysuerp0SpX9b5bPUU9Kc/ICynmSJtWgZ7fY+Rfzb2mvtFHcv79dG4GyjF3T8zJkzivFB36Pqxcqt365KJYFKApUE1lUCzR6Y6wVA6QI9a1EpUcuNxFfRmh8HyPCOeMZo3QTa+Lyx4l7PQm97nv8DcxTpui6XAQ4KEKkvq/u8/pqGv5ceNEBkVABPYAL4gH0JNOV93uEvwGV8+B14A+6m5FHev6Y/Sw+a/ACfok48ep7n9xkya/qehv0EYBk1ANz79HNTpQbSH2U/MwbIoCn5lc8yJuQLoNzlHbjn6MGxN3swAFWpJFBJoJLAukpgowJmihkoWCYDdCyJoZyBICUeH6Zn7P9AbHXFvZ7lHs/zf9dT3EClqXtX98wf4nP1Kj1vddUu9StBtiH4q4N7XAvUlc21J9q1PttUvsN7bF2oYCrUy9/G6pUXreU/3tOwn8p3pJfewPhp+PhyvKin39dEfp4hfCAcwGtnBDgswzps4YOqVBKoJFBJYF0lsFEB87oKo7q/ksD3SQCAi3HbBc55vvITHMiRO5wFq1KVSgKVBCoJrKsEKmBeVwlW9//bSKD0zoUNhAIUW34mPR/MzPpkHf5thFo1tJJAJYHvSKAC5u+IpPqgkkDjEiiB2U80OiD+KYU2Gq919WklgUoCzU0CFTA3tx6r6rtBJQCUFcAsJl15yRu0O6qXVxLYKCVQAfNG2a1VoyoJVBKoJFBJoLlKoALm5tpzVb0rCVQSqCRQSWCjlEAFzGvRreXyHBtclBta2Gmr/rjFtXhcdelPVAL62TK0XMsea76tOLcG2+Yr63O510+0+VW11lECuRwx9kH4zN9V6+PrzyVfx8f/ZG/PfQFijb/5Y2+Eci+F9bU88ifb8B+gYhUwr4VQTTiD7+3YMtKe1ZS0oxdbx2EIVdl4JFBu3PJ27JL2xuuvRyy5KNrFfuO2El2fG6RsPBKrWlIvASeXWeNulz9b0dqYKPVEjJ+NtQBju+nZdGflyi/j/IB2ua6/mi//Wo9vVMBcerR2/rLF4yeffBwbacQGIfHna08nBpC9tzaJP3bz+nq5S2yAYUOSxornAuUPYqtJW1k6fclfByY4D9ieyj+IVRjvlWxkpy7bT1qmoy6RepTV5ME5OWnr9Oa2iESk2paSjAdbW9ba/8XXm2fYI3z77bb/eqevH6TOjQmwmXyWcotxY9vSN+O8baCsv+3sZQ/zvTp0yJ3ktoztOjdEKcehw1tWxMlXn8bP3Bwl9lv/Z5wAZlRLRtOvOcprwyQzx+2IxouxIUrDHdHs0GZ/8hUrPsyNZ2wzu8uuu0S7t817q3GyZr1dynHJkrdy/NiIhlx3jf36j3A+fIyfjbHYefDtODxo0aKFeeqdlQo940hXh+ds02r1p+79ULKwwyPG68Pw3u05QG8a89vEVr1OlLOl8k+9bFTAXHq0S2O7xFmzXkml6qAG4JYnDoWHW1vqUtsSc5fYR7trt255wlKr2FvaFp6NFZ2Mkpoz+9U8/Yi3TAE6/nDwscfl6Uw15fXtbTYbe9bafGYHM97b6wEQUyZPymMOa7ua1TKDd2q9cx51aALkntihUBUevUMqFi9elMYEwGGYOByjx74981ALRokJVJVvJMBDdpjGjDitbOKECXmQCe+HQj3hxJOKXnEalsNPWoWy2RClHIdLQ/HPjrG4xAEmUT9j03fGIPqQgQbE04iLn7aR3S363mEme8SJX7aprS/2/R454sV8pvnixK3D4lS1Tp06r9HWpvXP+nf+nRydrjY1tmn1+7vvvpP7xe8bJ7c51rVXnJK2sRVjbHEA8qiRI4tXZr5cvBVjcreYI47V7RqH8mwICt8ZB7YCNkeGv/BCzJO3ct/8zp075Wlxzk//qZeNApgBMuVk0wfHAC6YPz+PcKRkyj2uWW4OJ/gqvIuPw5N27XZxcEPPmDQdO+5dU7ihwBoWA8+hB0veWlI419mxj++8825aXp27dC4OGjgolV0NmBvevW7/L4GZJeoMZ6cvOYPYXs0Kw8JRjCZAl67d8v8AmMcHmA3MuXPmZHsdGtGxY8eidxx1CcjXBzADA4c6JCsRcgL0PLLmCvglMDt56onHH0+QZsh1696jOCeOdewfZ163C3BzSMiGKCnvAGKGmj269S/mBpviu21j3/P27dsXO8aBH46wpJwc4Wl+7BTbhTqGk2Gm/4GzMaBQqPfde28cRzo+xvY7uef3OeeclywBVqi8bkO0uTm908lkQ597rhg9elQxNc4Wd1iMudB/wEHFr37zH3nSWXNqj7n93nvv51bGxgHWpX55IOYGi+gI23ExZxbFWDRf9ord8A4+5LAcR2uyZ/36lgkP2ZGuk+Lc9nvvvbtwqp9T8+i+0884M3Xl+n7n+n7eRgHMSaVEPOeVmTPzOD4d8VVQeyjmgQGcHQKQeMybxelLaGBnA0+aML5YEccN7hFKyvddunT9TqwYKDtW8s033sxOXr50WR4ZucMOO+RRibZibL1z6wCjVuu7X2rP8/4Y6JTl3LlziglxkpHziufPey2/d4KUOjjX+LgTTkzvX0zHPahsrMHQ558LIP8oz1DuHPHw9tFW3jUAX1djAvXpGMQP4nSnL0P5s44dHelgjOZYPg9LWwhkwriXitv+dmt6zZQPo+fc8wKYQ8HyOjcUMH/1VY1BWbZsaRhes/Jc71EjR4RnvyAOaPlnsiennHZa0T2OoXRkKYNu6PPP5/niQBqNRznx3AD0rrHHt2Lf73/c/vdifLSbot0nPOXzzr8gj7ysZ2KaY5/+mHUWV2YIjwlgfuThB7+mdZsjMNN9jrh19jt94mhTx8MyNEpwzq1p44Q1OuCTOOdeqMT82G23NnGq387JLLl+XfXM2vahkAIjm768+6478xx6jknffn2Lc8+/MOfH2j7zx76+WQOzwcMbWBZewcszphfjQrG8MGxoHjvIC3aA/dGDj0lFU2YIErCB5DxfyRniaLu1aZtKjVVVXwzIL7/8Iinh8XHOMKUN7IGP5AYAtLqB5140dEkzquum4cW4fvMwENDmwHFNCg9ZnQ20Bx64r5gxbXru0+xe3kyXoONPCGDuE2dL7xnWqiMcTYZXZ80qHn3kofCcPi4OCm9PAgovG6CXpSbDWgYyz1fihvj7ZhGTEZepUaPfjr1rE+DHTniHYx4dGdkm5MjAcdRmOXn1j5hPlqiTevlO272bp+dnfdk0rkm5Noj51/rjy7zHc5XSwPAOx3KWVG5+Gc8t7wG6X0bbvgoA8/4ttoj2RT809h5yvvGGP8XZ2aPzKEsGTQ2YB64C5qbP38531/2TYyHe/0W09csYE19FvcjBu/Wfn6W86m77zq/kxFB879338gxyZ3I/+OD9yY64GOhefe11xYDoa8wFkHjg/vsCKEYni7TlVlsGKB9QDAgDoz7mOXfO7OKZp5+KOTQj+9L4Pu6444tuPXokBaiO9YXs0YVfxNwo+w99rh3k/33tqY252gExnsOo85n5Ycxlv8TPxmRClt6f/RmyzHGwSpabByNWm+erD9F4jzn96SefZpPIRHHueP2BK/X94p3eZz5rr77LekYd69vKQRBTHhvAzLBj8Pi+34ABxfW/+FUyENq7Mp7XsP/9X8k+XtVGvyvld+W8iYuyHsZRWWrya3wnum/VP9pQXutgGe1Qx1IXkad2vBO6cfbsV5Opc/Sq8dKpc4Q2wmt2j7osj2uwLRgbeQmt4/hTe8dvH45L9l3Uz7vUsmyD//tdX8uJkBuhGT4vi+/Lee0z35G7fvs8jqrFJCqusSKmrH/5DjlGdNIrwTAOfe7ZDEnx9p13f/yJJ0bosVPeX/6j3+m0z8vxtOrZDvgp9XQpn/KeH/pnswZmnUWgr8SBAo89+kicjftSxDsWBTDsWhxz7LFF//4HFZ27dglPoQYUZceVVIclTwaiTnMNZVZfgJTnO+NZtuGHH7wfE79lDLwdMw7Hm2iMqjER1A2VzmjgWXqPAS3et30AunOXefFrUsrkiukR+3z26aeLadOmZbIFL8igZVDw6vr17x+xnWOSQtp0kxbFvKCYKFyHLZCFYwnRnaWidS9F/3EAN68c2HqXScUr3D7OdnYOMvnUF20yIadNnVpMCAOH0urStWsOfJ4Yy3rLLVtm3SSuOZdZkVznPGbKU+f8KCIAAC/ISURBVCIaOX0URgfAAsYKZbMFOTUS8/ceRop71FPRZybNF198npO03sMrQwHu0T4hCcrV+3eIvpMI19h7GG03/jmAOQDNGdoMmnUB5lJRGA+MO3UgB8koGA8JfNqQyixbtfp/9Jnzx5cFe8Mz+8ffb4vxMDVv6HNg3+K6638RwDww5btwwYLi2WeeLkaPGpVxc0AqnOH7U049PfvMjeQjDvd2jHNyAlbGCg/bWHEeeX0ps47fj/mgL4xt10mS2zGUs5/1gFV/r9/Lebsizt9+N8JC+hI4M5ZQpvqlsUNBjBfvMu5lABuv5jLaXtx/++3j/PGg7CX3lHO9/t3leP/wgxrT4ztjNfChWBqhKs9VjIn6fjHunPuNTVgR1+inHcL4VVdtNZ6U2jwNYA6D7ra//TXnBzn06du3uOrqazPk9O47b8extHHE6Ga1I0Z3ziS7bWL814x0dfS+lMmqeWHeaCP9gRFjhKorIDFvQJqxDkTq65OVin9S30X93w9a2pnnK+P88y1ablGTWcxxzkmpE+i7hREKHBvU9NQpk4tXI+eCLE47/cxi/2BatNmcUxeGrjGtPfqGXFrGvFcPxlUogOwvbXKCnaKerts8+lofGQsrJS/G/a5TOAXqQ3aK+cIL/iDqjqLWHkU/032lTiuvVxcGkLq9teTNvIdHz2FhXFhdUV/McTrtvehf71HodWMw9Uno6TXV1fXPXZffmzUw1ybCsqDgxhf33nNXKigd0mPffYsLL7okYzq5xGU1AGhQfBJxFKU+rb8GAB+mZ4I2lAGLRjRoKTEDyOTlGe65114Rv2udA8lA837W2huR1SuO7Vk1b66WeGYNtA5v36FjUudArxxQq+tI4GZCz3711WJUKNk54eFQSmLJb0WiGwPCANovJs5JJ5+cXlHr1rvk8YSobF4aq719+w7pLZsY6mWSoqPejUn7UdDdAKQ2URyDuDK9Je1zrOF2oSzVkwxQ6SNefLEYFyzCtGlT0sPeL7Iw9w25S6bbc6/2mdXrWQwlyl67gY9JZDKhu8iR1/3O2++kIjIBQ4Q5cYDhTtEmz3CW9vvvv5fK2PIT1DljQ2EouQcwM3Y6x31ANxX4ig8zxkoRs7atKzXxgH/LUB7Ghrir5W61UEdNEdSA+YZUsIDnXwFmysGEx8poHxmQHYXGhyjlwVAzfgBEycDon6ZKaVgCgCG33JyJga7nMV8THvOBwZwYiwsWzA8GaVgyLbNmvZKP7NKlS86L444/MUM46gRoGalA8q0YtxTj3vvsk+wKBbnpJptmPwADFKGkpg8ClHkvDAxt9RwAQmmTP2Uuju3/5fjOMRfj1v01g9W8qilkfUJp62/Kf68YQ+hQYSJtMQe8k5Fs7HuWcR+3paf7abwfsBtb+pOhTbbebfyXRtGKFTHmzZsIZ/lOYp+fb735Vi5xMj4YjW2DEROmAvjGEmCWVMmAUUdK3hh2fxowcY8+JR8GXQ2YpyQI7dtzv+Lsc88tOsScN2fNO31ozLVp2zb7/mc/2y3fpZPojcWLF2V/fBbjHPgCCuN192AzgnfKcJyxZYyRPTn63vzTdkWM2LjzTvOcrgOY5Ol6YGkeMGYkRJGD+cXTZ9CjscXJ27bbvTj55FPC4++d/ap/k3UL4X8U8tIfAJOcWoWxSTduHaCp7jLTzaESdI1tOgDlrf3GHoPBe83/bbZplcadZEX1oUvfCd0nV0Jb3a/+9cW8Icd6Z8e1xvSKMIRTd0T9Wm29TbKL+kt9SgOXHI19OkW40+P1sbFPNih63vaPWZo1MJfZx6y7p596MgGDtdY3LNTLrrgqqOy+ac0ChMaKzjGYFNeUHW4gzJk9O4/2kw3tmozbhTW4ePHroVSW5CSmTI8Miqd7UH6tYzK0iEFTo1DEdp9NENehJhNlY5KgSb2nX7/+qfB3zSzfb6jlxupZAvP8sGSnRFIJxUZhiAHJppUAxGpHI/Ga+/aNv/F8yqsxYDboTFZZ5oB+eRgfJosBzmigxNCaJu7++x9Q7NuzZ7aRZe0+E/epJ58oJktwiYkHbCio9u3bF3vFX9m8EqYs13px+AvpXS8Lheq6vQLofad+JpkEjZdfnpHePdm5htd95llnF/sEOACDRQHu3iljmgx8hjpTKJ+akl6Z3uDgyAbdPZQMBSvGOj7kzeDo0HHvmJhbF7w8SuDNUMwA8dDDDsv4WZtQFNqurCswU3pkLHt/dGSrzp07J8eFOBflRnHpszciPGEsYXiMo04Bmo15PFmpun9WB8xo6ssuvyINU0YrQ27Y0KEpf/HPXX62a3HIIYfm2OvZq1e0d7s0HCwLWxByxQrNjnEvUez4CI3sG/0AXPUTmft+TIyXxa8vis9aZIy6W7ce6c2VqwC8BzgyDrp27fatnINyvs6M/pa5TE6SF4ESJWwsTYjx4PdBgw7Occcw9K43w4CbNWtWIaS0IpgPBpXQyS4B3hKUJkwYF/26NABhq+zrgXF/xzgjmzx5uo7pnDPn1UwEWhIyp7i3jjmEQdAfmAzjQja1vgNuMvDbhsIHigzuJQEOr4aBY/5hEZzBfdTRR+d4FSIyr+uBmcfpM204OOTuWeay95C3cQsk6JYjjjwygZtxU2Y5z5z5ciSdvpU9T9f0iOsGHXJIgGnLYvKkScWMGdNzDntnuKdZj/POvzDl5iZGr7yBuXPmZr12CO/4gAN6J0PjuUAX4GnnkUcNTgZnZsz7cePGFcMjJGjcGmv6p2+/ftlXANzqjtatd87vtGPevNdybqLGe4YRYo4DtOXLl2W29mtz52YCKoOCrBm62iv7X1iGVz5yxIjQlx8mU6OdWIYW0e+SHOkH+UN0A+PTfcaORFj62XiRhNs1xtLu7XZPwxtbtDAM0/kxB13HsGLsnXra6RG27JpMoVykF4YOS3nDDcvaGPb6THiHrgDOnn/FVddkP/xY/zRrYKbcZNCyUEeNGpFWuPiGGNplV1wZSVG9U44A2GTz12TgwSY9FN9mBASDEp0BnAEcJWCgmFgGFdA69NDDcoKa4LwPg9akOvGkk9MDMUk900AdP25sxHYfSS9QbNfEA5qUwcRQPOqjbrwSg57yaKqUwAxoXo73o4YpFAP/iccfK6ZPn55WKwXSPoCxTwxesXWWv4lpQtR7zCxcIMciHjNmTAJo586dY8K1iYmzdQLhc88+E/X9OBOFUJ9iTCYkYJZx+vDDDxZTQj4oRZSStgC/Dh3ap8ISawa0Tz75eHrW4p3iSp271Dw2y8woUYbK2Mg4p/CtHTYRvO+6X/yy6BVeOEAAFsNfGBrKd0LWm5XNI8M2sLJZ5j4TOzrt9DNSYUuI0keUm3XHEnAYHpSV502LtrcK65ycjBfGAGZAWVdgVmceYc3zeDoBjdfDaDkkxhEDAGgCmlmzZqYSO+mkU9KQlIzIiGuqrA6YhRNOPe2MHBuABpCOjf5lwBnXkrqOPnpwylUcWZHhrQ7YD8YYY8KSqosv+XnKDMjyyIRFKMFhobABk/sZnX37DUiFOWP61BgPU8JYm5RA3jeAGTgfGMYxxS9csSAUoeVErjGveF5HRX2MHeGLBaFIn37qqbz2sJDT/mHEdNx77wSASdH3E8aPzzwS1x56+BHJ0PBazYPngxmivHlHAPvwI45MEOoQ90vgmxJAZvyYm1gcxrbx3rtPn1T0dMLC+BwLAays4uA1U/YAdduYo0sDUOkbyl4ft2/foTgp5r+xtU+nTukBNgRmMnbdYYcfnkwSJoreAn76RRxTGCqX44VhRadgwZ6P+Tf2pbFpVNFbntE/WK+TTzktx8eUSRNz7o4Iw9dYV9TjP/7r/+R4BlxirA89+GCCG6ZPNv7gGO/a9d777+YY1f8YhqMCmO3pQIb06ZNPPJ7g5LnyauzXADDbhQHremMYezEu5Dl16tQ0WBju2tlzv17pjDDEnosYr3GzMAwec5QupZ/Ov+DClJn4NCPjoQcfCJmuiFyYgakbjWVjWM6Q+xfMX5AMxjHHHJfzCPtFhwnVfPH5F7kMinw8W5hgetRpWhjzwm3ayIDHXFxx5VX5k9NAv993z92hJ14LxnGHcAQ6hQwHphwYaMZSqOoo/4zcjev98qOVZg3MlMXzzz2TA4kFjjLZNcCDor3gwouyA0jymxhF0NNhObF+k9IJoDCACZ+VZKMOMbJFMdAfeuCBTLDZqfVO6QH2DU/UdS/FxBVX1eHiKSxh7+OdywQfFyDDgx89amQqFF4Dat1gBSYmZlIk4T0ZpCxIlmBTpSEwqzvLEfUybOjzoWzG5STkGaCYWH1HHnVUeoTAfLvwjOqB+Y3XF4elOLSYGUuq3gslKzuXh7FrGAloNlbqww89mNY6z8QyoTPOPDtBlWHD43nkoYdi6RgltzDbQSn07t0nrep27XbPicsiZ+BQdum5hoJXN8lJssh5GQyZMokJSyGZgzyvi2SZAyN5j1ICsAwFIANoTcQ999ozqUTenRgVipFXcdzxJ+TEHBbZyOhAlBqDYeCgQSn36RGfZxypk0zmA8MyV59B0Y/aqqwrMPNAKawJ0S8UME+AcgNAvFCehbZSLBQhA4pS6d9/QBp5JWiubkysDpjReYBwl7D80apLw4Nk+QMhbWN8DAo5ABF5Evry9QAj8nj8sUcTmNF7lt9dfMmlKRfAzONAbY6L/ubdMCQPPezwfBdQsV2pmDfQu/eeexLchXnMiTPOPCs9QcagHIlHHn44PKy5SVGbFwwSxhqvHMAMf2FYgh5jtn2HDjk2KUlJbNaWA2H7BzAcJDvq3+UBAJMDqIwxhihDwjjDSg2OXBNzel4YKZYcykUhd8axdmJm9ou5Ka6uL2SnU+gK75Dnvl+wCx1jDL0Tc+WZyPHwrtdjbMm/4MEar4wQ4aSGwEyvWDXx80svTyOXDnktxvMzASjmmbXoVnn00/dRXzJTyFryIT0CoAAzg5XHhwY2xuQY3HP3XTkf3VMCs+fQecaxUMekqK/Ckz3k0MOL7mFs8A7FecXMUcrGB70EjDJEcvNfEjDdZ9wAUmOL0ciDNHbkmZAnQ0sfMMCOPOroZMP0qVg245Se0K/qzHnAll0ejlPP/XoGWH+auvT+6F/G0SmnnhbztWO2mROECeWRe2eHGA8YH3pKPSWeDg/DBPXPG+4X/XDa6aenPqKHJQMbM/QQw1QfAWZjg74wVu699540EjFDDPuBYYAwYOXX0MvCNeYPpuHHLM0amCkdlCoLTyeyinYL5XRQdNC5sdzDgFIMIqCdFFJY5WIKn38W2aAxeGVIioOhlMU1WNssZhYrWm6v9nvlBDUZeIAmg86WBS4WxzMAXACaV2ShvYENRN6LwVPGobpF7IfHxEMG0OJBFJzJwFNvqjQEZvHwQQcHpRX3UiK8zheHD0/lQ2kDPB45y9a9rFwbRrAIATcay4RfHJY7L9YkRceL1wLaiRMn5oTgwbLgAddFF/88FFRtgwS05cMPPZBy55VRLCbkgLA2KTGetWIiGvz6Z8SI4alwJV+4DtNApqhc8ro9kph4bCZQzWP+VdJnnkOpAubR8RyWsHixySNeChjIAQ1KafQOMNffPAnePa8IWyG+Z3xMjrYxrCgtoA8AtC83ignWQ1lXYKYwHnn4oWiXfIA5OcGtl8ciULD6m2wWhXJHuVE6FBkakAHIsGmqrA6YyRO4+wkAeLaMGsoPbd8+xp+whHfJA6B4ePb65/a//y2Bwnv1cwnMKElA9vfb/pYGlLlDcZ59zrkJBO3C4DB/gCFleNNNN+T8UAHG6EUXX5IKj/fE83nkkYczVpvjIORuHKA2FQqU4YRZYmTpT4BNuRsfM+I7rFS/oFWvjSS3A+OnpCnxzbnhgZM3gxKQo1rNy3x/9Ktna+cd/7g9E+G8r4zJG2/mBQ/qhj/9Idib0ckikdExwewYH+aHWCiGig4wB8S0jTfj+ZDDDit2jXldD8yAV/0B5m/+47/SOPZebAFDx7hnrFD8GCveGnlgdrBRDNbnn3829VANmAHPmQWDhacp+7s+x6AEZsAHmMcHIN745xtSP3BAGOB0ImCqGT2xWU7EhM1fOkN4SEKX9/7ut/+b/am+jNfrrv9ltoMRCUAxBgyUu2I5kvkCHMWik4EKeRlnmDTsIyPDOnlAvskmm+RGPT+/9LJ0nBjZWJpRoY8wYNn+6HesHMNEKE58nF7mRTNghBnkG/DCbQYk9AZYjTc5NvTq+PHjs58wNIwfMiUfwCzUxtjEftxz95259NC7GbaMRXqFrsagyXEwT+iPH7M0a2A2wJ995qmccAY48CVMHWBC6iiFAgZQi6MjKWVeFyvMhKbAdMLhAVws57ZB0ZlMFD1FbqkACsbEdg/ahkGAjpJcYnKjX0xM1jvANqBYegtC6epwXrF4nsGfFGCACevNe9NjDjBqqqwOmLWVsUBxPR6W66QAHfU00cUzDVDZl8CHpc1bo4DIg6JE5yiU6ooPY0lWUGtoXhQYADT40Y3o+J9fdkUmlbk+KbIH7k+5zw+ZeNeREWujoMQuWc7K+gJmFOeLYXED5gTUUDq8HbI/ODwWkxZdyVBSF0rIZAZgNpWRNSpvQMxp+vTpCTTz589PQMRoULzHHX9iepLqva7ATMFbLkOBkzNw48VkvkHQiYBMn378sb8fpWFBZowIRhQmpamyOmCmVM4974L0zCgTY5g3PPPlmemNWpoi36F37wOLY084IYC6QxoxFDFAokB5kiUwy1eg8GaEzGSpU2SMHpTgpZdfnvOMl9gyQgXGnHyBW/5yUzJGH3/8cYY0bOjAMFIXxjMDzTPEw42rw4/4ZqtK45AnxNMybz6NPrVMEM3+UCwLw5CRDQ/10suvSOOTogcSnk/ePF6MDgOPEr/6muuKHgESPHb1v/WvQxKAyReA/erXv0malnEkf2NIeIo2CME+AeaTTzkl37d3eOmA+fmgZgH81KmT0xBnABs/hwV1/rMwcBsCMyMM8NdvMGKb1/SI4zmjglFiQAEF15173vkJPN8HzIAwPdtbvvFsS2D20xxgCP0t2ovB0x5FEqc+ZfRgBHqEwSFhjIFrrgN0z/3D736bdXQPXXX9L39VA+YwgjkgdAida52w59ttkSdbD8yMQeN8cowLhpVQBLoag8Wz5Sjoc+PZdZwAY8//ha70A50mo5qulI/Qp0/fdKDU0xij/7SVHm3Ttk0andLsGZPGw2OPPppjvx6Yu3cPIyvu4zQYL/pdezAIVgTsuNOOWRf1lIluXhpLP2Zp1sCM+hoZFpGJgrbgIZUx5kvCIjNpgCwLT0eiddFZJgV6BXCY2AD8wosuzoEHPCUCiMl8EEqCYpW0xfsFxrNmvZIKogRmeyhTFDxSXvCb8UwDVmwE7YeG8ixeAGWR3mkoUIYAq7Jdu6B9v0cRG7Tapv6UG+qJx0zhKSxOST4mCEAFsAYrZQOIxdEuvPDi4oAAMgOYTEoWAWB5NoWCKWBJzp07J59DSZbyrI/Zs3zr18ei+8UKE5jDM8Q+KGsCzAwJwGDilgq1ocfMAxo54sUweEalkhaKaMzTzZfGPzxqk1b2Ng9P+3gYrHeeFS9/fsQ7KU2JIADi+NhykxeurCswY1T+ctOf06PR9xiEgw8+NNkECkZGb33J5WFhROkbVB9QbaqsDpjRoJZL9Q8FD9gwRGKzPMkXhg3LcUFBCWvYIhI9h1Y3H/7f//zfVMjGTQnMEn5K7+2Pv//d14ramL/y6mtyvog1GtcKD+qvt9ychil5o0dPimzetu3aJkuDSaAMrSUXP855c8QRBQOhsWJM1hTs6DQ8Fy9elIlp2le/xWXKA1CFIq73IAHvL3756/TQJANq55AGQPab//yvBFZ6gIK+dUgAWQCTOY8tO+20M9Lz5jFR5uY1w5sRwoixWYtxnzkYMe4bArM5CCjrgRmNmvkdUV9Aj7UwZ1x3QcxTnm09MHMg2sf7fS+HgrfbFDCbPwpD5tnwzCdNRr2/nrrswxUf5tz3felBY/0OOfTQBGoGFj2iv/WVgpkgR3I3Vs0bhRNyTwDz6JDHG6EbJTHWAzNdp9BZ9wVlTK50NsMAw7hHsC3eZ4yZF5wWTAkP95lwbOh17/gyrpEISk+TdcNQj/oYg+aPZzPoOEX0yv333ZsMRQJzzHMes+cwCOzkKJaOdaQnjFkOijlg/tgTAlsgJn9FjPcfszRrYG44wClwAqVQrrjy6oxB6TDZ0oRNUfGWWVKoJAMXSJnAlpmwilA1qBH0KaWAXkWfoWg3a7FZAjMA4XkZEPXAbMAAUd7a/Hmv5bKmV6LzJT4tCG9N6j7aVdYwsDQhvLPhQGs4ACgVEx4wA0UUUT0wA39xYxbpo48+XLwcdQNMBj3F612XX3FV0qQGL48EWGEcxo+v7faExt82rEXyssXe0xEioAgbA2YT7f77YqLFwDfRGCQ5IUNx8KbWHJgjbJCezuhveTrrCsw8fQk+Eqx4DeTAwzY2gLOkK4acOOwPAcys/CE335TjzFji0ctCPTDGWf1ylrKfeSAUuL7yE0g0VVYHzA0pR+NtXhggAMtGJOQB9NGvOR6iPrx3hkhjwMxjptDkb5QeVJm4yFADrBShOaOQ9a1DbkmFyguUjXzyKaem8Sl8wqhlEFOK+sP9cgLEvBsrwHFuMDgMC7FpYw3tanxgcMRuFfJoCFRkaG7x9HjnvGrbRtYDN6DbIMAcssCqAHjAbC7SCTzvM88+Jzfq+DYwv5fhgxownx4g1jSVXQIzBvGteBfDnZOg/1+Nv1iIFeG5GncZ/gmDnaculEIfCo396Y+/D2Ael/I1bq//9a9T7ltsFsAc1yhrCsz0ltUJgFmID1PHCGYYCJ9J8GMY+IlO18/PRQweMGMDATOq/8BYbXL04MHpcWcFVv2jr9Xb0j1OlTyZRoE5+vuKq65Kh41OwCLQEwz1Uj5yP8TLedDmBr2IGb37vgfqX/mD/96sgZlggbGkD0kIQMuie5TheeefnxMTSLRqVct6zokeNLQBIgZooAJXsahf/+Y/E6B1iLjfqJEj0moF0Cia04IKNoh5IJIdTCwDgleOyj4sLH+UBy8TdSrb24TLJJ/obPS3AWe9JHAUczQRj4xsSDG7pgqQBfbayrCQbHNI7EVL8SkGGQ/YXtpiYKg/maM1qv6fSfledc212U7vpsQsi5gU2ZCMFIP64PDA27evremcPfvV4qGI1ZnQ2qx9DT3m+++7L+W4IChhCVhJZcd1JjeZkw3vu95js/xANrlYWi2JpW1mTAJ4lJj+YxhQLBQqg0lp6DFrKwrOc8QAJVWVhQHGoHgpFMCk8OAYEejWEyP2JLbPGJk2LbLR452MKPE275MVK+6prN5jXrMtOTEmd93xj5QtJchDzuSuUAyUq+xYMlf0nfW7fjIAtb/8Li9o5B9AJP8B4P41gBAgKg09ZiwNxWO83xPZpwxKzwbMV10V4yE8Z4zKd4G5V8aYARt6k3H6lxtjXXcAm7AO4+L8Cy7K8StnwpgidwbJLeGRkj2KXjLNmZH8ZZwyij2Hx4mlEY9kmJ586qkZv2U0lRuZeJa/jJq33ngjwHxMej7mErZIHP7yy68KBqhPGjIMV8/Xp2Ll+pxSxQxcedXVGVdlvErcXDdgfi+TJnmIchXM8XqP2bjHsJlT5c5f5C2j+Ve/ru2VbV4klR3MHWBGZfPw7AFgPFvuZ8MZ8XQMkQ2FAAXvjZ6SrAaYly9floax94hlK77/j//8PzlvjCcGkMRDFDyZY/kAkDkAuOgU/cSDtAEKw45hiPGpAfM3HvO1MR8PinbUgLm2tHRGesx3pNyxY6vzmK3cwMKVyXfm8w6RBY2dtOui1RcMe8CslEBOjsIPTonSfuGgk04+NTPl0+EK3c1QpLPpBOYsI5FBmsAc8qt5zK+lgWnuAWbtpVMZ5vY/4ClbrTF/3vyUD4fNvEG7196zWTFmfC2BLiv4I/zTrIFZ8hYBU4SWBUyYMC5jHTw4y5tMTDEJ8RvF4BRDBQSPRhKKdbwmjg779X/8ZwKYSY7SuuuuOxLoeLhAVFayTpJsBvh4wZI/0H4AFpWFhkQlo83RTUDN7wwIHsPkeC6KhvVeo/IGRHbrEUnjNNXXrpckBQSt6ZOQwBAApIrBSZGZrNZZmgAYAYrM57x6WzVqJyXK2Hj4oYdyTejCRQuScpR1KWtz0cJFaXg8//yzuYkBj4lnc3lQQIwQikXiiyQbCl+GqXai5j3fJie7tdktk3Ioy3oFY52pxCTPO/vc85PipCT0B0NAf1AM5PmLX/0mFYz3NQbM3bv3yOccE1tHlsCsrSYpo0mSD4WFHZC4Y+9nIQPJIDwBY2ZlXMty974yCcn7GgPmtTnEQpueeSaSe6Jd3kNBonUlLdUrFv3mO2DHSBAPb2yntYZjw7U8Us+/9a+AeXJeYgvaa669PvvBWMxlcSFTgPVYMCnGrDg8BXfNddenfHnQKN7//Z//zuepE8Ul65nBYi5pz113UsCjkg63fIi80IqMGV6scc4b/vOf/pg0r7XHQOuiiy4p9olrGImo7gceuC/HJYDtEUbc6UHNMhTE2EsD2rMYH1YdkA8QLGOBK1d+mR7wFQG42qGdPEOhCUD3YOQ+YI/Qj+p/ViSpGR9AvkZ1fzsmuzYeMwU+bOhzKU/GufItYA4P0BgvDQQrN4wnBtCvQr/4KVlt3rzXvuURMo4yeTLqm8xceKWzg9UBzI9HjNRyH96l+XXhxRcnMAPZNLjuvjMNHnWh734T7zHfa8zd8mTufNc+qHDGCgMFSEr+lGhnBYo5cO11tWQ63jBHpwxdGA/65+oYL95vRz9LvLSDx3y3cRFyd/4Aw7cxKlsf8mJ54v+IkJVldQ4TEuLQh2LY/tINCkOEk2G8PRmHyXBo5MtgPmT5a59xyZj76p+xE9yK2Phm+dupy4G98bMgGEr98MD9qOxvAzODkfwwa3QGHW8Mi01zrBh2z8Vqn3kx7oVdlGEjRuXPH+ufZg3MpZBYRzayEPfhBUsEMtGTLovBDiQpAjtA8QYnBuVrPSZa09o7A7pc3wYEWWk333RjdpD4qaQanplnpFKPCcfytFuRSX9gxPbEWA0UcRnPsBa03e7tIiFkt/AENs2YFc8GILJSBxw0KAZjHCjQK44SXJXFXLan/GlSAJqknQNMed3AlkVtuQoKUP0ZDAplZjkYQHosDA8eMauYHFD1JhYlMGvVshATW4xXXc+IJJ2aZ7M8wH1mJOmMSPlI7GF82JKyd1BePCiD+umnatnwDAWsA9CWKNGzlw0GOuQmE/YfNrjJE8XOsADiDJ0TT4rYYyh4BguqVPbl/PieYmC0yNr0vi0i+Y4HDFDRz7wuE0+fkjsPQ5YxCoyR5TuG0403/DENDHv72tBErJOVPn3a9KTHpgVFBhBlFaP6ecziWJZekd+dd9we42lSylT8S/+jdiWsyHZvinJGz/PKAfzoUaPTQ9IuG14cFdnrskv1g/pSWpvEHyyIxBzPpkAbK8YDRaKPsTr6j0FKiflO3J0BYRMT44KSIS8goi5ipJQnA+HsuE59vk6KunVIrvX1XvS+nZ76hsfcPtqO6RgxfHgqVv2t3sDb5jPetdNOrfM5GIp7wzOnSK1GsNzNult9ZU7wsB4JAwxNC6glL1qOJPyBRTA2NgkgEzKyFNF8sgIBkLhPpq2VAkDXshr95hnW22MDzC+gYs93jAoGQchHOIYHxGO2LAczo1Dwl195ZY4zu5sl0ARzQ1aAnFdvXguNyeSlyO29bAmc+a9gXLxHqEKb9Y2QkmzfGSF7Xhxj9ZKfX5ogTvkzdKwyAAAAy1I644s8bXQjSU99ZbmrL4PKmJCTgmli5HEybM37zNNP5vf633vMGwCmvL5ocYJmiDSNqD0jZk5XGDvmm/rx8PcOT/X8VctLyV/7GVjmLU+UnhHbBtAMhNKAokceCEOIh21vbeOA144JIVuJjKhlzwSgDIG77rgjDUFGu0TEk0IPGGe8ZcyWwlMVZ7b23DI+40auRtvwruk9+hjFbA5ZforqXhl9rl6cMAyEpW8cFHKmP1pt3SrHKsreuermqDqILW8bc8UzefzkaD498vCDaexlAu0WLYsbbx6Sdfux/tkogFmnUfAmMKtcHAW1wroDShI3DBKbHEhA4VWKM6J7rI1DmVLMBgdqA/gCZgM0+ik6bOfMWmzbpk0ojK3yXZTi8uhUlpYlCCbWjvG7CSuuI6O7deudk6ahcN4NWhvwTAmlb7MC11NITSliIMODR62g1tHY6GGKRsIS5WjSmBAKpW0iWfKkDQamyQX464GZl2udtjaw3mPmZNvbt+9YtA+v+YOwqseMHplAqg7iXyYEYEI7eYf6sEjRjJTszjFhO4QSB4KA18RE4TIMWMoU9ozptaUhKD/PcRAIj41xQKmjfU1im7UMPuaYzML0DMo4Fcn0Gfk8/UamKFVA532SRkxME4uiuPkvN6YCsOsXL7RLt66ZbMKwkOQ2csSL+T6Tu2vXbsWx0R97RNvJm/GGchWftdZZH3UNMKU4eWGApqkkLX3Po8UsDB82LA0Pu5epm3EIHNUjLf7oMwqHcm/fsUPKzOeNFe0mewbO6FEjso8lEZGPvhfL5nmUSg5TY7wxpMT1vJex0zvAlBLfJP64f9y4WGcahi1mggGBngYC+pAxR2GSGfBjIDGEFQAx6OCD83seEybm5QCbLVpGRnTMKQAhrCTUQXla+8tomhDzyjxFx4tRky8ZYDQYed5PUbaP8bRTzCHUpLFTrj8H8h067p3rmY0BS27MVQr401gGyeATmvGdMJTxaawDbXS75EiFkXX8CSek199iU57svGSazGFyNq+6B8DvF/OUcQowrD9WFzkfinXexvwRkZUtGdN9FLtsYOPIeGbYHRqhJ8YHQxtVKywg25gxSA8IG7iO8Y/JYURp0113/iMMjin5XHrIvOFZMpiBIRbONqrGhvuPPOqoeF6vHAvAncfIyACWnAh9qe5iveQPaBmK6HYGgvpiYP4WTAxPmOwYBViPHj32zYRB99ALlgICPs6QdgOxPfbaM1e3SO5izJQ5CMb+/AiN2T+B8zIrdLB+uiCSbo19q1Z4rgpWhJOBWqaHbAwjbwYtr0/IQWKZg3OMe3rWHCZ/S6mWL1+e+olOMQft1WB1TccYMzZAMT/sl2De2EeekjevOSYYJWv7OXocPPKmPzF8P2bZKIBZ5xiYlMesAC/g+/+3dz+9VVRhHMd7QTCxFYUSF7RFWAArqysSw9sgvlA3vgJXvgHTmGhCAUHpwhgNsYjP55kOXpvLRTIDC/I7BvnTmTPnfJ//Z2bOELw9li1tMHTZrB1cHpVRdqZ0dNSKcP3a9d4/1RISYcvsDr73HurXbYCcAIWRoTEIrxhYOvuujFzW5Z7GtTIIDowS+oi9bE9w5mApjH+35M7YZGjbpVxf3rnTS1IqLxXIqjYGZhkuZRZEGZknYRnTjRu3hsBczmG5qZScYynNntabW5sbd+9+teGD7eYiieGoPFjhKWUVvD4ZpqpLU1FaEjRum1HYlEAC8uIhuHI+MnZO1paeHkjDWtAyZxU0hyvQcXQMWBb7W1UIxrCzs9urGpw2I/TAGT4c8yfVD2e3u+cTkpXUlKw4ZQmHKtxKBW6CnGBpOVVgViVqP9TKwjeVaZu/5cfusz4WoDrmjM1J0sIw9cNhclw2xcDCcwDGzIGRjdfgtrcvdTBQIQpI6wIzJ0SPHtyvz4vWuFVGqh7BWsXE+Xqti1wkJnb7un27qtNit67fMTB77c+ysYcT6ZrE1M/cplBNbl+ujf2LhX2MPdjCoakYzNOT2JbyyMoTugIzuUj+6I35crCqB0FDIMfWmw3Daz51G6cSO84P788qgDueTakW2YZlRs52TBCsZmijXnKW5ElHyYIMvFJGB9mMSmp//4sONPrC88mvv7RcBXYJHAfq9RpJnJ8LgmzVrZdP6zUn42avZO94esovCMoCvSZBNH7+wfazno72OqSHSvmUreLpGPK+efNWr24I7od1+4ceapL/Kzt7pe/DypfnBSRCrtfjfO9sJ4b68BCRFRI+wNz5jv39z9uWzQMDbZSzWztuSVn1wM4+zpIvqwTmzj9YnZCAWXCVJHgHlx6xZTJx601VLJERCOnd06d/lrx/7Gs5VkAXlCTBGvm65cYH2N3r76rgBfRr5SvZG7sWiG1rixc/qEnILlz4sPlL6hw/BmY/Nw6yPzgYCiPj9eyHFS9L44vFwmEvmlUBK4T00yqW+8C4u+VzsXwSfffA5JV6TUritLt7tbcVtawtqbEy8aT6sKxPry9XAHctfkNirGj4tgoM/setMXruc6l8LB/CT/Fj9IO/fZvtnQjMgDGkvpdRUDkcxkcglJzWEowlZfe+zpwZvshC0QnXVnQqX1koI7dkdXjvsBT7cS/RcRyctkqVk1Z9+LnfVVwqMo6OYqrQfGaRsbhHxuCdzwGfq+u1o69MT5bnXH9/WTMWGbbgxqlzPIxRf6oL2wZa1h6Xssd+HCPAPP75USuY4wVVToajooiWxzkiFfjx8V81t/qSVCmrubj/w4hwYICcpXM5SZwW9Z97VSrdn6rKwKG/RlWGrR8Gri+KbfyWSwVBiZMMvE7vnzvOrmSWo44q+Bq37TNlwuaHNQfs9SjZveu0PGuijFiAM15faeL8zVPrp9QflPzqejanb6Ms+fSx5RzN//DwXr/CRubGrJq0+9Oz42f9c32Qn+tghvFm8TYvFYRrnXYkffGT/5Ed/ROs7Acsa/f6lo31nYeXcetLMFEJ0Id1/eqTntMHTssY6TzGdNwXiOi08dJxrIYAUl/s6vEPuiqQCgrkLnFxi0c1iD/ZcnZk5zgO2Sb+43wkSRIoS7DHtXxIr3vMZVuu68lYyYUAsFWJh+uyOW3Uyxevsemrrm/85OB4NkbHyAqPUbfNUwLiYy4cJ7Y1qJ4H+UoczN0tAQnDOG6syZv+8AlWM5pXjadlX0lzr1DUcSokD0r53XzNyzFkJGmwGZH5L+uhOdNDyeu5Chge/DROgdR13Io5W8G5PwRyUgmqCPkF/V78+FLLH2vLvtooZ4wlEgKfD6GQvUDXdlO/EzrdssqnAtQffyAJw4HsHz683/a38XzRdkBeZ0pWuJgb3ZMgflDn+JmGr2p7+CbAUR1bQa2qVDradn3+/UEPi+XIy3nkwF7tSe844zCn0cfxJXyBWyP8gCey967WLYxKvlfZkuMllXwp/+Acutf6Uvqr/wsf/fsVPMUBmTmv/eXv9QWusmF2oH/XI0fy8s4yvXj8aPg4xmA7w2dDh/E+b59iHnyL895me2cC82lolJsxEypD4cwIjdHLXDkbf1/VGAAnwvidT1CyRALVCJSSqNzayZVRtMKfBNl2QBVEKRXHpz+OmHD9YkRvo5m3rF0bKsr/7smNicqnM+J6qV4g5GjcZ3X/lYKbC06rxi1RsEJwXMGsuZYj5dA59uU28vSUsIBiWZMMJEV+CQZ+pnHGo4NY7uN1/uweHWP8owK5wNyO5UR+DFTyxMAdI4gYswBg7m+icSR4qibpg+uaP91ZxfXVY6jngUv3tMGhDZUGzi2zklsHn3ZG51t+y/r56v7XHzHqt/lw4p5O3pIonshUMFrXTusDexK86YJqX4BZntdyX6Nd4+j6HK+AvE7/ls9/k38euZAvXcKcbvm7JIq9DJsWndu4VPMUWBxHP1e1UY+dx04t2WPTxUT5EU/xsxus/LuguNzG80c7sHSOvUREde6cVXphKZ3vdF2cJRbDveXhS1+dWS9f6DX/jAc91f6P3U3Rl3VDO92vOeOBr4DM379MD9f1O8fPFqXog4XP0Vv6CIEQCIEQCIEQmEQggXkSvpwcAiEQAiEQAvMSSGCel2d6C4EQCIEQCIFJBBKYJ+HLySEQAiEQAiEwL4EE5nl5prcQCIEQCIEQmEQggXkSvpwcAiEQAiEQAvMSSGCel2d6C4EQCIEQCIFJBBKYJ+HLySEQAiEQAiEwL4EE5nl5prcQCIEQCIEQmEQggXkSvpwcAiEQAiEQAvMSSGCel2d6C4EQCIEQCIFJBBKYJ+HLySEQAiEQAiEwL4EE5nl5prcQCIEQCIEQmEQggXkSvpwcAiEQAiEQAvMSSGCel2d6C4EQCIEQCIFJBBKYJ+HLySEQAiEQAiEwL4EE5nl5prcQCIEQCIEQmEQggXkSvpwcAiEQAiEQAvMSSGCel2d6C4EQCIEQCIFJBBKYJ+HLySEQAiEQAiEwL4EE5nl5prcQCIEQCIEQmEQggXkSvpwcAiEQAiEQAvMSSGCel2d6C4EQCIEQCIFJBBKYJ+HLySEQAiEQAiEwL4F/APYVo/fyx9VSAAAAAElFTkSuQmCC;" parent="1" vertex="1">
          <mxGeometry x="67.07" y="30" width="143.87" height="180" as="geometry" />
        </mxCell>
        <mxCell id="ShWJT1CUM9F-AKnDE7Rj-24" style="edgeStyle=orthogonalEdgeStyle;rounded=0;orthogonalLoop=1;jettySize=auto;html=1;" parent="1" source="ShWJT1CUM9F-AKnDE7Rj-4" target="ShWJT1CUM9F-AKnDE7Rj-6" edge="1">
          <mxGeometry relative="1" as="geometry" />
        </mxCell>
        <mxCell id="ShWJT1CUM9F-AKnDE7Rj-4" value="" style="shape=image;verticalLabelPosition=bottom;labelBackgroundColor=default;verticalAlign=top;aspect=fixed;imageAspect=0;image=https://min.io/resources/img/logo/MINIO_wordmark.png;" parent="1" vertex="1">
          <mxGeometry x="180" y="400" width="240" height="36.2" as="geometry" />
        </mxCell>
        <mxCell id="ShWJT1CUM9F-AKnDE7Rj-21" style="edgeStyle=orthogonalEdgeStyle;rounded=0;orthogonalLoop=1;jettySize=auto;html=1;" parent="1" source="ShWJT1CUM9F-AKnDE7Rj-6" target="ShWJT1CUM9F-AKnDE7Rj-8" edge="1">
          <mxGeometry relative="1" as="geometry">
            <Array as="points">
              <mxPoint x="770" y="455" />
              <mxPoint x="770" y="455" />
            </Array>
          </mxGeometry>
        </mxCell>
        <mxCell id="ShWJT1CUM9F-AKnDE7Rj-6" value="" style="shape=image;verticalLabelPosition=bottom;labelBackgroundColor=default;verticalAlign=top;aspect=fixed;imageAspect=0;image=https://cdn.icon-icons.com/icons2/2699/PNG/512/apache_spark_logo_icon_170561.png;" parent="1" vertex="1">
          <mxGeometry x="588" y="420" width="140" height="70" as="geometry" />
        </mxCell>
        <mxCell id="ShWJT1CUM9F-AKnDE7Rj-7" value="ETL Worker" style="text;html=1;align=center;verticalAlign=middle;resizable=0;points=[];autosize=1;strokeColor=none;fillColor=none;" parent="1" vertex="1">
          <mxGeometry x="613" y="370" width="90" height="30" as="geometry" />
        </mxCell>
        <mxCell id="ShWJT1CUM9F-AKnDE7Rj-17" style="edgeStyle=orthogonalEdgeStyle;rounded=0;orthogonalLoop=1;jettySize=auto;html=1;" parent="1" source="ShWJT1CUM9F-AKnDE7Rj-8" target="ShWJT1CUM9F-AKnDE7Rj-9" edge="1">
          <mxGeometry relative="1" as="geometry">
            <Array as="points">
              <mxPoint x="1100" y="455" />
              <mxPoint x="1100" y="455" />
            </Array>
          </mxGeometry>
        </mxCell>
        <mxCell id="ShWJT1CUM9F-AKnDE7Rj-8" value="" style="strokeWidth=2;html=1;shape=mxgraph.flowchart.database;whiteSpace=wrap;" parent="1" vertex="1">
          <mxGeometry x="880" y="380" width="120" height="150" as="geometry" />
        </mxCell>
        <mxCell id="ShWJT1CUM9F-AKnDE7Rj-15" style="edgeStyle=orthogonalEdgeStyle;rounded=0;orthogonalLoop=1;jettySize=auto;html=1;entryX=1.026;entryY=0.433;entryDx=0;entryDy=0;entryPerimeter=0;" parent="1" source="ShWJT1CUM9F-AKnDE7Rj-9" target="ShWJT1CUM9F-AKnDE7Rj-8" edge="1">
          <mxGeometry relative="1" as="geometry" />
        </mxCell>
        <mxCell id="ShWJT1CUM9F-AKnDE7Rj-19" style="edgeStyle=orthogonalEdgeStyle;rounded=0;orthogonalLoop=1;jettySize=auto;html=1;" parent="1" source="ShWJT1CUM9F-AKnDE7Rj-9" target="ShWJT1CUM9F-AKnDE7Rj-11" edge="1">
          <mxGeometry relative="1" as="geometry">
            <Array as="points">
              <mxPoint x="1310" y="450" />
              <mxPoint x="1310" y="450" />
            </Array>
          </mxGeometry>
        </mxCell>
        <mxCell id="ShWJT1CUM9F-AKnDE7Rj-9" value="" style="shape=image;verticalLabelPosition=bottom;labelBackgroundColor=default;verticalAlign=top;aspect=fixed;imageAspect=0;image=https://cdn.icon-icons.com/icons2/2699/PNG/512/apache_spark_logo_icon_170561.png;" parent="1" vertex="1">
          <mxGeometry x="1130" y="410" width="140" height="70" as="geometry" />
        </mxCell>
        <mxCell id="ShWJT1CUM9F-AKnDE7Rj-20" style="edgeStyle=orthogonalEdgeStyle;rounded=0;orthogonalLoop=1;jettySize=auto;html=1;entryX=1.006;entryY=0.422;entryDx=0;entryDy=0;entryPerimeter=0;" parent="1" source="ShWJT1CUM9F-AKnDE7Rj-11" target="ShWJT1CUM9F-AKnDE7Rj-9" edge="1">
          <mxGeometry relative="1" as="geometry" />
        </mxCell>
        <mxCell id="ShWJT1CUM9F-AKnDE7Rj-11" value="Streamlit" style="shape=image;verticalLabelPosition=bottom;labelBackgroundColor=default;verticalAlign=top;aspect=fixed;imageAspect=0;image=https://seeklogo.com/images/S/streamlit-logo-1A3B208AE4-seeklogo.com.png;" parent="1" vertex="1">
          <mxGeometry x="1410" y="380" width="220.86" height="120" as="geometry" />
        </mxCell>
      </root>
    </mxGraphModel>
  </diagram>
</mxfile>
